<?xml version="1.0" encoding="UTF-8"?>
<svg width="823px" height="455px" viewBox="0 0 823 455" version="1.1" xmlns="http://www.w3.org/2000/svg" xmlns:xlink="http://www.w3.org/1999/xlink">
    <!-- Generator: Sketch 48.2 (47327) - http://www.bohemiancoding.com/sketch -->
    <title>air_support 2</title>
    <desc>Created with Sketch.</desc>
    <defs>
        <linearGradient x1="19926%" y1="16230%" x2="19926%" y2="0%" id="linearGradient-1">
            <stop stop-color="#808080" stop-opacity="0.25" offset="0%"></stop>
            <stop stop-color="#808080" stop-opacity="0.12" offset="54%"></stop>
            <stop stop-color="#808080" stop-opacity="0.1" offset="100%"></stop>
        </linearGradient>
        <linearGradient x1="49.8163038%" y1="100.119356%" x2="50.0179342%" y2="0.0163878053%" id="linearGradient-2">
            <stop stop-color="#FFFFFF" stop-opacity="0.12" offset="0%"></stop>
            <stop stop-color="#FFFFFF" stop-opacity="0.09" offset="55%"></stop>
            <stop stop-color="#FFFFFF" stop-opacity="0.02" offset="100%"></stop>
        </linearGradient>
        <linearGradient x1="91063%" y1="45278%" x2="91063%" y2="20414%" id="linearGradient-3">
            <stop stop-color="#808080" stop-opacity="0.25" offset="0%"></stop>
            <stop stop-color="#808080" stop-opacity="0.12" offset="54%"></stop>
            <stop stop-color="#808080" stop-opacity="0.1" offset="100%"></stop>
        </linearGradient>
    </defs>
    <g id="Page-1" stroke="none" stroke-width="1" fill="none" fill-rule="evenodd">
        <g id="air_support">
            <rect id="Rectangle-path" fill="#F2F2F2" fill-rule="nonzero" x="576.34" y="24.91" width="200.86" height="21.69" rx="9.96"></rect>
            <rect id="Rectangle-path" fill="#F2F2F2" fill-rule="nonzero" x="621.33" y="44.39" width="200.86" height="21.69" rx="9.96"></rect>
            <rect id="Rectangle-path" fill="#F2F2F2" fill-rule="nonzero" x="545" y="59.46" width="200.86" height="21.69" rx="9.96"></rect>
            <rect id="Rectangle-path" fill="#F2F2F2" fill-rule="nonzero" x="230.46" y="277.18" width="200.86" height="21.69" rx="9.96"></rect>
            <rect id="Rectangle-path" fill="#F2F2F2" fill-rule="nonzero" x="277.45" y="291.66" width="200.86" height="21.69" rx="9.96"></rect>
            <rect id="Rectangle-path" fill="#F2F2F2" fill-rule="nonzero" x="201.12" y="307.72" width="200.86" height="21.69" rx="9.96"></rect>
            <rect id="Rectangle-path" fill="#F2F2F2" fill-rule="nonzero" x="31.59" y="123.73" width="200.86" height="21.69" rx="9.96"></rect>
            <rect id="Rectangle-path" fill="#F2F2F2" fill-rule="nonzero" x="76.59" y="142.21" width="200.86" height="21.69" rx="9.96"></rect>
            <rect id="Rectangle-path" fill="#F2F2F2" fill-rule="nonzero" x="0.26" y="158.28" width="200.86" height="21.69" rx="9.96"></rect>
            <g id="Group" opacity="0.5" transform="translate(58.000000, 0.000000)" fill="url(#linearGradient-1)" fill-rule="nonzero">
                <circle id="Oval" cx="81.26" cy="81.15" r="81.15"></circle>
            </g>
            <circle id="Oval" fill="#FCCC63" fill-rule="nonzero" cx="138.26" cy="81.15" r="72.31"></circle>
            <polyline id="Shape" stroke="#B3B3B3" points="665.52 400.93 655.88 347.09 686.41 345.6 686.41 400.93 707.3 400.93 728.19 341.47"></polyline>
            <rect id="Rectangle-path" fill="#000000" fill-rule="nonzero" x="644.63" y="395.3" width="83.56" height="59.46" rx="27.3"></rect>
            <path d="M699.27,395.3 L675.17,395.3 C658.771088,395.349419 645.489419,408.631088 645.44,425.03 C645.44,425.71 645.44,426.37 645.52,427.03 C646.619731,411.451434 659.552746,399.360264 675.17,399.31 L699.27,399.31 C714.887254,399.360264 727.820269,411.451434 728.92,427.03 C728.92,426.37 729,425.7 729,425.03 C728.950581,408.631088 715.668912,395.349419 699.27,395.3 Z" id="Shape" fill="#000000" fill-rule="nonzero" opacity="0.05"></path>
            <polygon id="Shape" fill="url(#linearGradient-2)" fill-rule="nonzero" points="705.66 413.01 697.77 406.82 678.69 430.99 668.43 423.04 662.01 431.2 676.93 442.6 676.93 442.6 680.63 445.57"></polygon>
            <polygon id="Shape" fill="#69F0AE" fill-rule="nonzero" points="705.08 412.86 697.92 407.38 678.97 432.1 668.44 424.02 662.95 431.18 677.06 441.98 677.06 441.98 680.68 444.69"></polygon>
            <path d="M813.17,234.39 C813.17,303.05 755.81,358.71 694.74,358.71 C633.67,358.71 571.08,303.05 571.08,234.39 C571.08,165.73 633.67,110.07 694.75,110.07 C755.83,110.07 813.17,165.73 813.17,234.39 Z" id="Shape" fill="url(#linearGradient-3)" fill-rule="nonzero"></path>
            <path d="M807.5,234.39 C807.5,299.84 752.83,352.89 694.61,352.89 C636.39,352.89 576.73,299.84 576.73,234.39 C576.73,168.94 636.41,115.93 694.62,115.93 C752.83,115.93 807.5,168.93 807.5,234.39 Z" id="Shape" fill="#000000" fill-rule="nonzero"></path>
            <rect id="Rectangle-path" fill="#000000" fill-rule="nonzero" x="676.53" y="357.05" width="26.19" height="9.15"></rect>
            <g id="Group" opacity="0.2" transform="translate(690.000000, 115.000000)" fill="#000000" fill-rule="nonzero">
                <path d="M4.62,0.48 C3.23,0.48 1.85,0.48 0.46,0.58 C57.09,3.03 109.19,55.09 109.19,118.98 C109.19,182.87 57.09,234.93 0.5,237.38 C1.89,237.44 3.28,237.48 4.66,237.48 C62.87,237.48 117.55,184.43 117.55,118.98 C117.55,53.53 62.83,0.48 4.62,0.48 Z" id="Shape"></path>
            </g>
            <g id="Group" opacity="0.2" transform="translate(578.000000, 115.000000)" fill="#FFFFFF" fill-rule="nonzero">
                <path d="M5.4,119.39 C5.4,54.88 63.4,2.39 120.78,0.93 C119.95,0.93 119.12,0.93 118.29,0.93 C60.08,0.93 0.41,53.98 0.41,119.43 C0.41,184.88 60.07,237.93 118.28,237.93 C119.11,237.93 119.94,237.93 120.77,237.93 C63.37,236.37 5.4,183.93 5.4,119.39 Z" id="Shape"></path>
            </g>
            <rect id="Rectangle-path" fill="#000000" fill-rule="nonzero" x="653.25" y="336.26" width="75.26" height="24.53"></rect>
            <path d="M653.25,124.52 C653.25,124.52 563.86,226.7 653.25,344.26 L682.77,344.16 C682.77,344.16 601.28,247.04 679.03,117.16 L664.5,120.47 L653.25,124.52 Z" id="Shape" fill="#FFFFFF" fill-rule="nonzero" opacity="0.2"></path>
            <path d="M731,122.93 C731,122.93 820.39,226.67 731,344.23 L701.48,344.13 C701.48,344.13 782.97,246.13 705.22,116.28 L719.77,119.19 L731,122.93 Z" id="Shape" fill="#FFFFFF" fill-rule="nonzero" opacity="0.2"></path>
        </g>
    </g>
</svg>