<?xml version="1.0" encoding="UTF-8" standalone="no"?>
<!DOCTYPE svg PUBLIC "-//W3C//DTD SVG 1.1//EN" "http://www.w3.org/Graphics/SVG/1.1/DTD/svg11.dtd">
<svg version="1.1" xmlns="http://www.w3.org/2000/svg" xmlns:xlink="http://www.w3.org/1999/xlink" preserveAspectRatio="xMidYMid meet" viewBox="2.498564702121598 37.191001234163295 633.6140894417557 46.885664389531215" width="629.61" height="42.89"><defs><path d="M633.11 78.49C633.1 79.92 627.01 81.07 619.5 81.08C559.26 81.08 77.35 81.08 17.11 81.08C9.6 81.07 3.51 79.92 3.5 78.49C3.5 78.06 3.5 74.62 3.5 74.19C5.85 72.36 15.18 70.76 25.36 70.31C39.01 69.7 53.16 70.55 66.5 71.37C79.84 72.2 94.06 73.02 107.66 72.37C147.12 70.48 151.63 58.33 190.91 56.31C213.92 55.14 236.53 58.13 255.14 60.96C273.75 63.79 296.29 66.8 319.33 65.65C336.2 64.8 347.72 61.95 359.15 59.44C370.59 56.94 385.6 54.45 402.98 54.73C421.18 55.04 434.42 58.28 452.12 59.14C475.39 60.27 498.39 56.96 512.13 53.22C525.87 49.48 535 45.04 552.81 41.98C574.09 38.33 605.2 37.42 633.11 38.81C633.11 46.75 633.11 74.52 633.11 78.49Z" id="d7d17w7aOe"></path></defs><g><g><use xlink:href="#d7d17w7aOe" opacity="1" fill="#cccccc" fill-opacity="0.14"></use></g></g></svg>