<?xml version="1.0" encoding="UTF-8" standalone="no"?>
<!DOCTYPE svg PUBLIC "-//W3C//DTD SVG 1.1//EN" "http://www.w3.org/Graphics/SVG/1.1/DTD/svg11.dtd">
<svg version="1.1" xmlns="http://www.w3.org/2000/svg" xmlns:xlink="http://www.w3.org/1999/xlink" preserveAspectRatio="xMidYMid meet" viewBox="-0.5646725755135549 -0.5185899944700125 1032.6307154535116 165.75736309690166" width="1028.63" height="161.76"><defs><path d="M758.98 157.58C760.66 125.41 787.24 100.19 819.45 100.19C821.29 100.19 823.11 100.28 824.91 100.44C847.24 62.02 896.49 48.98 934.91 71.31C946.96 78.32 956.98 88.33 964 100.38C965.52 100.26 967.04 100.19 968.59 100.19C1000.81 100.19 1027.38 125.41 1029.07 157.58" id="l7ZkeBVJn"></path><path d="M0.44 138.27C2.71 94.74 38.67 60.61 82.26 60.61C84.75 60.61 87.21 60.74 89.65 60.96C119.86 8.98 186.5 -8.67 238.48 21.55C254.79 31.03 268.35 44.58 277.84 60.87C279.89 60.72 281.96 60.61 284.05 60.61C327.64 60.61 363.6 94.74 365.88 138.27" id="b8afjQhBB"></path><path d="M746.36 162.24C748.05 130.07 774.62 104.84 806.84 104.84C808.68 104.84 810.5 104.94 812.3 105.1C834.63 66.68 883.88 53.64 922.29 75.97C934.34 82.98 944.37 92.99 951.38 105.03C952.9 104.92 954.43 104.84 955.98 104.84C988.19 104.84 1014.77 130.07 1016.45 162.24" id="c7HaHzYOW"></path><path d="M17.5 131.97C19.78 88.44 55.74 54.31 99.33 54.31C101.82 54.31 104.28 54.44 106.71 54.66C136.93 2.67 203.56 -14.97 255.55 15.24C271.85 24.72 285.41 38.27 294.91 54.57C296.96 54.41 299.03 54.31 301.12 54.31C344.71 54.31 380.67 88.44 382.95 131.97" id="b1ElJkSaiB"></path></defs><g><g><use xlink:href="#l7ZkeBVJn" opacity="1" fill="#000000" fill-opacity="0"></use><g><use xlink:href="#l7ZkeBVJn" opacity="1" fill-opacity="0" stroke="#3f3d56" stroke-width="1" stroke-opacity="1"></use></g></g><g><use xlink:href="#b8afjQhBB" opacity="1" fill="#f2f2f2" fill-opacity="1"></use><g><use xlink:href="#b8afjQhBB" opacity="1" fill-opacity="0" stroke="#000000" stroke-width="1" stroke-opacity="0"></use></g></g><g><use xlink:href="#c7HaHzYOW" opacity="1" fill="#f2f2f2" fill-opacity="1"></use><g><use xlink:href="#c7HaHzYOW" opacity="1" fill-opacity="0" stroke="#000000" stroke-width="1" stroke-opacity="0"></use></g></g><g><use xlink:href="#b1ElJkSaiB" opacity="1" fill="#000000" fill-opacity="0"></use><g><use xlink:href="#b1ElJkSaiB" opacity="1" fill-opacity="0" stroke="#3f3d56" stroke-width="1" stroke-opacity="1"></use></g></g></g></svg>