<?xml version="1.0" encoding="UTF-8" standalone="no"?>
<!DOCTYPE svg PUBLIC "-//W3C//DTD SVG 1.1//EN" "http://www.w3.org/Graphics/SVG/1.1/DTD/svg11.dtd">
<svg version="1.1" xmlns="http://www.w3.org/2000/svg" xmlns:xlink="http://www.w3.org/1999/xlink" preserveAspectRatio="xMidYMid meet" viewBox="278.9290489686381 190.44493291192475 149.96749899999998 252.17260799999997" width="145.97" height="248.17"><defs><path d="M294.97 191.75L295.2 192.11L295.52 192.61L295.93 193.24L296.43 193.99L297.02 194.85L297.69 195.82L298.44 196.9L299.27 198.07L300.19 199.32L301.18 200.66L302.25 202.08L303.39 203.56L304.61 205.1L305.91 206.7L307.27 208.35L308.7 210.03L310.21 211.76L311.77 213.51L313.41 215.29L315.11 217.08L316.87 218.87L318.69 220.67L320.57 222.47L322.51 224.25L324.51 226.02L326.56 227.76L328.67 229.47L330.83 231.15L333.04 232.78L335.3 234.35L337.6 235.87L339.96 237.33L342.36 238.71L344.8 240.02L347.28 241.24L349.81 242.38L352.37 243.41L354.98 244.34L355.92 244.66L356.85 244.99L357.78 245.33L358.69 245.67L359.6 246.02L360.49 246.38L361.38 246.75L362.26 247.13L363.13 247.51L363.99 247.9L364.84 248.3L365.69 248.7L366.52 249.12L367.35 249.54L368.17 249.96L368.98 250.4L369.78 250.84L370.57 251.29L371.35 251.74L372.13 252.2L372.9 252.67L373.66 253.15L374.41 253.63L375.15 254.12L375.88 254.61L376.61 255.11L377.32 255.62L378.03 256.13L378.74 256.65L379.43 257.18L380.11 257.71L380.79 258.25L381.46 258.79L382.12 259.34L382.78 259.9L383.42 260.46L384.06 261.03L384.69 261.6L385.31 262.18L385.93 262.76L386.62 263.46L387.27 264.19L387.86 264.94L388.42 265.7L388.92 266.49L389.37 267.29L389.78 268.11L390.15 268.94L390.47 269.78L390.74 270.64L390.97 271.5L391.15 272.37L391.29 273.24L391.38 274.12L391.44 274.99L391.44 275.87L391.41 276.75L391.33 277.62L391.22 278.49L391.05 279.35L390.85 280.21L390.61 281.05L390.33 281.88L390.01 282.7L389.64 283.5L389.24 284.29L388.8 285.05L388.32 285.8L387.8 286.53L387.25 287.23L386.65 287.9L386.02 288.55L385.35 289.17L384.65 289.76L383.91 290.32L383.13 290.85L382.32 291.34L381.48 291.79L380.6 292.21L379.68 292.58L379.65 292.59L379.63 292.6L379.6 292.61L379.59 292.62L379.54 292.63L379.52 292.64L379.48 292.66L379.45 292.67L379.41 292.68L379.37 292.7L379.33 292.72L379.28 292.73L379.25 292.75L378.38 293.11L377.56 293.5L376.79 293.91L376.07 294.34L375.38 294.78L374.74 295.25L374.13 295.73L373.57 296.22L373.03 296.72L372.53 297.24L372.05 297.77L371.6 298.3L371.18 298.84L370.78 299.39L370.4 299.94L370.03 300.5L369.68 301.06L369.34 301.61L369.02 302.17L368.7 302.73L368.38 303.28L368.07 303.82L367.76 304.36L367.45 304.89L367.14 305.42L366.82 305.93L366.49 306.43L366.15 306.92L365.8 307.39L365.43 307.85L365.04 308.29L364.64 308.71L364.21 309.11L363.76 309.49L363.28 309.85L362.77 310.18L362.23 310.49L361.66 310.77L361.04 311.03L360.4 311.25L359.7 311.48L359.01 311.72L358.34 311.97L357.68 312.24L357.03 312.51L356.4 312.79L355.78 313.09L355.17 313.39L354.58 313.69L354.01 314.01L353.45 314.32L352.9 314.64L352.37 314.97L351.86 315.29L351.36 315.62L350.88 315.94L350.42 316.26L349.97 316.58L349.54 316.9L349.13 317.21L348.73 317.52L348.36 317.82L348 318.11L347.66 318.4L347.33 318.67L347.03 318.93L346.75 319.19L346.48 319.43L346.24 319.65L346.01 319.87L345.81 320.06L345.62 320.24L345.46 320.41L345.32 320.55L345.19 320.68L345.09 320.78L345.02 320.86L344.96 320.92L344.93 320.96L344.92 320.97L344.96 320.96L345.1 320.94L345.34 320.91L345.66 320.86L346.06 320.81L346.55 320.76L347.11 320.7L347.75 320.65L348.46 320.6L349.24 320.55L350.09 320.52L351.01 320.5L351.98 320.49L353.01 320.5L354.09 320.53L355.23 320.58L356.42 320.66L357.65 320.76L358.92 320.9L360.24 321.07L361.59 321.27L362.97 321.51L364.39 321.8L365.83 322.13L367.3 322.5L368.79 322.93L370.3 323.4L371.82 323.93L373.36 324.52L374.9 325.17L376.46 325.88L378.01 326.65L379.57 327.49L381.13 328.41L382.68 329.39L384.22 330.46L385.75 331.6L387.27 332.82L388.77 334.12L390.25 335.51L390.41 335.66L390.56 335.81L390.71 335.96L390.86 336.1L391.02 336.25L391.17 336.39L391.32 336.54L391.48 336.68L391.63 336.82L391.78 336.96L391.93 337.1L392.08 337.23L392.24 337.37L392.39 337.51L392.54 337.64L392.69 337.77L392.84 337.91L392.99 338.04L393.14 338.17L393.29 338.3L393.44 338.42L393.6 338.55L393.75 338.68L393.9 338.8L394.05 338.93L394.2 339.05L394.35 339.17L394.49 339.29L394.64 339.41L394.79 339.53L394.94 339.65L395.09 339.76L395.24 339.88L395.39 340L395.54 340.11L395.68 340.22L395.83 340.34L395.98 340.45L396.13 340.56L396.27 340.67L397.12 341.31L397.95 341.97L398.75 342.66L399.54 343.36L400.31 344.08L401.05 344.82L401.77 345.58L402.47 346.35L403.16 347.14L403.81 347.94L404.45 348.76L405.07 349.6L405.66 350.45L406.23 351.31L406.78 352.19L407.3 353.08L407.81 353.98L408.29 354.9L408.74 355.83L409.18 356.76L409.59 357.71L409.97 358.67L410.33 359.64L410.67 360.62L410.98 361.61L411.27 362.6L411.54 363.61L411.78 364.62L411.99 365.64L412.18 366.66L412.34 367.69L412.48 368.72L412.6 369.77L412.68 370.81L412.74 371.86L412.78 372.91L412.79 373.97L412.77 375.03L412.72 376.09L412.65 377.15L412.64 377.23L412.64 377.25L412.64 377.27L412.64 377.3L412.64 377.32L412.64 377.34L412.46 379.98L412.36 382.59L412.32 385.16L412.34 387.69L412.41 390.19L412.54 392.64L412.73 395.06L412.95 397.42L413.23 399.75L413.54 402.02L413.9 404.25L414.28 406.42L414.7 408.54L415.15 410.61L415.62 412.62L416.11 414.57L416.62 416.46L417.15 418.3L417.68 420.06L418.23 421.77L418.78 423.41L419.33 424.97L419.89 426.47L420.43 427.9L420.97 429.26L421.5 430.54L422.01 431.74L422.51 432.86L422.99 433.91L423.44 434.87L423.86 435.75L424.25 436.54L424.61 437.25L424.93 437.87L425.21 438.4L425.45 438.83L425.64 439.17L425.78 439.42L425.87 439.57L425.9 439.62L423.45 439.25L421.05 438.84L418.69 438.39L416.37 437.89L414.09 437.34L411.86 436.74L409.67 436.1L407.51 435.41L405.41 434.66L403.34 433.86L401.32 433.02L399.33 432.12L397.39 431.16L395.5 430.15L393.64 429.09L391.83 427.97L390.05 426.79L388.33 425.56L386.64 424.27L384.99 422.92L383.39 421.5L381.83 420.03L380.32 418.5L378.84 416.9L377.41 415.24L376.02 413.52L374.67 411.73L373.37 409.88L372.11 407.96L370.89 405.97L369.71 403.91L368.58 401.79L367.48 399.59L366.43 397.33L365.43 394.99L364.46 392.59L363.54 390.11L362.67 387.55L361.83 384.92L361.04 382.22L360.04 379.14L358.83 376.28L357.44 373.61L355.87 371.14L354.13 368.86L352.23 366.76L350.19 364.83L348.02 363.08L345.73 361.48L343.33 360.04L340.83 358.74L338.26 357.59L335.6 356.57L332.89 355.67L330.13 354.9L327.33 354.24L324.51 353.69L321.67 353.23L318.84 352.87L316.01 352.6L313.2 352.41L310.43 352.29L307.71 352.23L305.04 352.23L302.45 352.29L299.93 352.39L297.51 352.53L295.19 352.71L292.99 352.9L290.92 353.12L289 353.35L287.22 353.58L285.61 353.81L284.17 354.03L282.92 354.24L281.88 354.42L281.04 354.58L280.43 354.7L280.06 354.78L279.93 354.8L282.23 353.79L284.5 352.68L286.74 351.5L288.96 350.23L291.13 348.89L293.27 347.48L295.36 345.99L297.4 344.44L299.38 342.83L301.31 341.15L303.18 339.41L304.98 337.62L306.7 335.78L308.35 333.89L309.92 331.95L311.41 329.96L312.81 327.94L314.11 325.88L315.32 323.78L316.43 321.66L317.43 319.5L318.32 317.32L319.09 315.12L319.75 312.9L320.28 310.66L320.68 308.4L320.95 306.14L321.09 303.87L321.08 301.59L320.93 299.32L320.63 297.04L320.18 294.77L319.57 292.51L318.79 290.26L317.85 288.02L316.74 285.79L315.45 283.59L313.98 281.41L312.33 279.25L310.49 277.12L308 274.28L305.7 271.4L303.58 268.49L301.65 265.56L299.89 262.62L298.3 259.66L296.87 256.7L295.58 253.74L294.45 250.78L293.46 247.83L292.59 244.9L291.86 241.99L291.24 239.11L290.73 236.26L290.33 233.45L290.03 230.68L289.82 227.96L289.7 225.29L289.65 222.69L289.68 220.15L289.77 217.68L289.91 215.28L290.11 212.97L290.36 210.75L290.64 208.61L290.95 206.58L291.29 204.65L291.64 202.83L292.01 201.12L292.37 199.53L292.74 198.07L293.1 196.74L293.44 195.54L293.75 194.49L294.04 193.58L294.29 192.83L294.49 192.23L294.65 191.8L294.75 191.53L294.78 191.44L294.83 191.52L294.97 191.75ZM385.47 302.38L386.17 303.42L386.43 304.68L386.17 305.95L385.47 306.98L384.44 307.67L383.18 307.93L381.91 307.67L380.88 306.98L380.18 305.95L379.93 304.68L380.18 303.42L380.88 302.38L381.91 301.69L383.18 301.43L384.44 301.69L385.47 302.38Z" id="a26ylin5Dm"></path></defs><g><g><use xlink:href="#a26ylin5Dm" opacity="1" fill="#000000" fill-opacity="1"></use><g><use xlink:href="#a26ylin5Dm" opacity="1" fill-opacity="0" stroke="#000000" stroke-width="1" stroke-opacity="0"></use></g></g></g></svg>