<?xml version="1.0" encoding="UTF-8" standalone="no"?>
<!DOCTYPE svg PUBLIC "-//W3C//DTD SVG 1.1//EN" "http://www.w3.org/Graphics/SVG/1.1/DTD/svg11.dtd">
<svg version="1.1" xmlns="http://www.w3.org/2000/svg" xmlns:xlink="http://www.w3.org/1999/xlink" preserveAspectRatio="xMidYMid meet" viewBox="16.709792752344313 140.1251555206868 725.1675349714269 255.87481449421267" width="721.17" height="251.87"><defs><path d="M537.98 341.17C524.18 341.17 512.99 352.36 512.99 366.16C512.99 379.96 524.18 391.15 537.98 391.15C551.78 391.15 562.96 379.96 562.96 366.16C562.96 352.36 551.78 341.17 537.98 341.17Z" id="b5kAo5wUkW"></path><path d="M625.93 341.17C612.13 341.17 600.95 352.36 600.95 366.16C600.95 379.96 612.13 391.15 625.93 391.15C639.73 391.15 650.92 379.96 650.92 366.16C650.92 352.36 639.73 341.17 625.93 341.17Z" id="d1SYVqB6NR"></path><path d="M713.89 341.17C700.09 341.17 688.9 352.36 688.9 366.16C688.9 379.96 700.09 391.15 713.89 391.15C727.69 391.15 738.88 379.96 738.88 366.16C738.88 352.36 727.69 341.17 713.89 341.17Z" id="c3kdGGz9rM"></path><path d="M210.11 331.78L88.37 331.78L63.19 390.2L17.71 390.2L130.35 141.13L167.09 141.13L280.08 390.2L234.95 390.2L210.11 331.78ZM195.07 296.8L149.24 190.1L103.42 296.8L195.07 296.8Z" id="a2wMkm5QLC"></path><path d="M472.83 213.54L472.83 390.2L429.81 390.2C429.81 373.2 429.81 363.75 429.81 361.87C424.51 371.59 416.48 379.56 406.72 384.78C391.67 392.99 375.86 392.18 372.43 393C349.35 393 335.6 382.93 331.5 381.81C313.66 370.61 306.63 353.16 303.87 349.97C294.07 329.33 295.05 306.84 294.07 302.05C294.07 274.76 303.05 258.44 304.04 253.59C314.01 232.43 329.07 224 331.85 220.71C349.7 208.99 368.38 210.16 372.43 208.99C391.67 208.99 403.29 216.39 406.72 217.21C416.48 222.44 424.51 230.4 429.81 240.13C429.81 238.35 429.81 229.49 429.81 213.54L472.83 213.54ZM429.81 301.35C429.81 273.36 419.1 262.62 417.91 258.32C406.01 243.28 387.37 244.78 383.98 243.27C362.28 243.27 353.6 257.29 350.22 258.84C338.15 274.41 339.36 297.72 338.15 302.05C338.15 329.33 349.01 339.83 350.22 344.02C362.29 358.72 380.92 357.25 384.33 358.72C398.79 358.72 409.98 353.7 417.91 343.67C425.05 318.28 429.01 304.17 429.81 301.35Z" id="f11wkUOpKa"></path></defs><g><g><use xlink:href="#b5kAo5wUkW" opacity="1" fill="#3f3d56" fill-opacity="1"></use><g><use xlink:href="#b5kAo5wUkW" opacity="1" fill-opacity="0" stroke="#000000" stroke-width="1" stroke-opacity="0"></use></g></g><g><use xlink:href="#d1SYVqB6NR" opacity="1" fill="#3f3d56" fill-opacity="1"></use><g><use xlink:href="#d1SYVqB6NR" opacity="1" fill-opacity="0" stroke="#000000" stroke-width="1" stroke-opacity="0"></use></g></g><g><use xlink:href="#c3kdGGz9rM" opacity="1" fill="#3f3d56" fill-opacity="1"></use><g><use xlink:href="#c3kdGGz9rM" opacity="1" fill-opacity="0" stroke="#000000" stroke-width="1" stroke-opacity="0"></use></g></g><g><use xlink:href="#a2wMkm5QLC" opacity="1" fill="#000000" fill-opacity="1"></use><g><use xlink:href="#a2wMkm5QLC" opacity="1" fill-opacity="0" stroke="#000000" stroke-width="1" stroke-opacity="0"></use></g></g><g><use xlink:href="#f11wkUOpKa" opacity="1" fill="#000000" fill-opacity="1"></use><g><use xlink:href="#f11wkUOpKa" opacity="1" fill-opacity="0" stroke="#000000" stroke-width="1" stroke-opacity="0"></use></g></g></g></svg>