<?xml version="1.0" encoding="UTF-8" standalone="no"?>
<!DOCTYPE svg PUBLIC "-//W3C//DTD SVG 1.1//EN" "http://www.w3.org/Graphics/SVG/1.1/DTD/svg11.dtd">
<svg version="1.1" xmlns="http://www.w3.org/2000/svg" xmlns:xlink="http://www.w3.org/1999/xlink" preserveAspectRatio="xMidYMid meet" viewBox="5.0332356739766055 122.24553397849424 640.897712128672 309.9699877345207" width="636.9" height="305.97"><defs><path d="M335.48 405.26C335.48 418.49 261.73 429.22 170.76 429.22C79.78 429.22 6.03 418.49 6.03 405.26C6.03 392.02 79.78 381.3 170.76 381.3C261.73 381.3 335.48 392.02 335.48 405.26Z" id="cYwD9re6E"></path><path d="M623.56 319.78C594.25 325.55 554.26 329.09 510.22 329.09C461.02 329.09 416.93 324.67 387.05 317.67C362.25 311.86 347.23 304.3 347.23 296.01C347.23 288.72 358.85 281.97 378.55 276.51C449.76 281.12 512.96 288.18 563.87 297.02C595.19 302.46 621.88 308.58 642.93 315.21C637.17 316.85 630.68 318.38 623.56 319.78Z" id="e5WzxyUHre"></path><path d="M271.89 365.32C188.85 365.32 122.04 380.37 122.04 331.72C122.04 283.06 189.85 272.48 272.89 272.48C355.93 272.48 422.76 283.06 422.76 331.72C422.76 380.37 354.93 365.32 271.89 365.32Z" id="buWKyBT8V"></path><path d="M271.89 377.3C188.85 377.3 122.04 392.35 122.04 343.7C122.04 295.04 189.85 284.46 272.89 284.46C355.93 284.46 422.76 295.04 422.76 343.7C422.76 392.35 354.93 377.3 271.89 377.3Z" id="c5YaCEg0VS"></path><path d="M412.33 258.51C412.37 258.67 412.36 258.83 412.31 258.99C410.76 263.84 398.32 302.72 396.76 307.58C396.62 308.04 396.12 308.3 395.65 308.15C395.32 308.04 395.08 307.75 395.05 307.41C394.83 305.52 393.11 290.37 392.89 288.48C392.88 288.35 392.89 288.23 392.93 288.11C394.36 283.73 405.78 248.68 407.2 244.3C407.36 243.84 407.85 243.59 408.32 243.74C408.61 243.83 408.83 244.07 408.9 244.37C409.59 247.2 411.99 257.09 412.33 258.51Z" id="bIetQOLM9"></path><path d="M410.81 257.69L397.09 302L393.93 288.29L407.64 245.56L407.64 245.56L410.81 257.69Z" id="af5IE74sW"></path><path d="M393.93 310.44C394.39 309.78 394.78 309.07 395.09 308.33C395.58 307.28 396.04 306.22 396.04 306.22C395.9 305.08 395.19 299.39 393.93 289.14C361.65 288 343.71 287.36 340.13 287.23C340.13 287.23 338.78 301.71 338.51 308.33C338.41 309.39 338.42 310.45 338.54 311.5C339.07 313.08 393.4 310.97 393.93 310.44Z" id="d1uBdTb7v"></path><path d="M388.12 306.22L364.39 306.22L364.39 291.45L387.07 291.45L387.07 291.45L388.12 306.22Z" id="jcsBCK0wi"></path><path d="M356.62 296.17L355.95 302.53L342.76 302.53L342.76 296.2L356.48 296.2L356.48 296.2L356.62 296.17Z" id="b11o8cei6"></path><path d="M393.93 310.44C394.39 309.78 394.78 309.07 395.09 308.33C389.43 308.33 344.16 308.33 338.51 308.33C338.41 309.39 338.42 310.45 338.54 311.5C339.07 313.08 393.4 310.97 393.93 310.44Z" id="d3Fik2Fcrz"></path><path d="M254.67 256.11L269.44 256.11C291.28 247.57 303.41 242.82 305.84 241.87C305.84 241.87 331.69 231.32 329.58 251.36C327.47 271.41 323.77 298.31 323.77 298.31C323.77 298.31 312.17 293.04 305.84 294.62C299.51 296.2 303.73 262.44 303.73 262.44C303.73 262.44 252.04 287.23 247.29 284.07C242.54 280.9 241.49 258.75 241.49 258.75C243.25 258.4 247.64 257.52 254.67 256.11Z" id="cmxaZsFns"></path><path d="M254.67 256.11L269.44 256.11C291.28 247.57 303.41 242.82 305.84 241.87C305.84 241.87 331.69 231.32 329.58 251.36C327.47 271.41 323.77 298.31 323.77 298.31C323.77 298.31 312.17 293.04 305.84 294.62C299.51 296.2 303.73 262.44 303.73 262.44C303.73 262.44 252.04 287.23 247.29 284.07C242.54 280.9 241.49 258.75 241.49 258.75C243.25 258.4 247.64 257.52 254.67 256.11Z" id="aCDGO6U5H"></path><path d="M277.94 209.86L295.82 235.54C320.82 256.43 334.71 268.03 337.49 270.35C337.49 270.35 375.99 279.32 370.72 285.65C370.72 285.65 333.27 279.32 333.27 279.32C333.27 279.32 285.27 244.51 283.69 241.87C282.1 239.23 264.7 214.44 264.7 214.44C266.46 213.83 270.88 212.3 277.94 209.86Z" id="f25ahQ4Be7"></path><path d="M277.94 209.86L295.82 235.54C320.82 256.43 334.71 268.03 337.49 270.35C337.49 270.35 375.99 279.32 370.72 285.65C370.72 285.65 333.27 279.32 333.27 279.32C333.27 279.32 285.27 244.51 283.69 241.87C282.1 239.23 264.7 214.44 264.7 214.44C266.46 213.83 270.88 212.3 277.94 209.86Z" id="a232czepED"></path><path d="M275.25 134.27C262.14 134.27 251.51 144.89 251.51 158C251.51 171.11 262.14 181.74 275.25 181.74C288.35 181.74 298.98 171.11 298.98 158C298.98 144.89 288.35 134.27 275.25 134.27Z" id="dIQF4CL1"></path><path d="M264.17 200.2C264.17 200.2 240.43 185.43 240.43 185.43C240.14 184.67 237.82 178.55 237.53 177.78C237.53 177.78 258.37 168.02 256.78 160.11C255.2 152.2 273.66 179.1 273.66 179.1C271.76 183.32 265.75 192.81 264.17 200.2Z" id="bepYRsvLu"></path><path d="M267.33 189.12C274.3 202.73 278.16 210.29 278.94 211.8C278.94 211.8 276.3 222.88 272.08 223.94C272.08 223.94 249.93 210.22 249.93 210.22C252.25 207.41 258.05 200.38 267.33 189.12Z" id="atauphBnd"></path><path d="M277.88 220.24L299.51 248.73C330.52 271.83 347.76 284.67 351.2 287.23C351.2 287.23 388.65 295.15 380.21 300.95C380.21 300.95 347.51 295.67 347.51 295.67C347.51 295.67 295.29 267.72 284.21 256.11C284.21 256.11 252.56 224.99 252.56 224.99C255.94 224.36 264.38 222.78 277.88 220.24Z" id="e7Y5Z7FxS"></path><path d="M255.2 274.57C277.87 267.44 290.46 263.48 292.98 262.69C301.26 260.01 310.3 261.1 317.71 265.67C324.3 269.83 328.52 276.42 319.03 286.18C300.04 305.69 287.38 295.15 287.38 295.15C287.38 295.15 223.55 325.21 213 310.44C202.45 295.67 201.93 288.29 201.93 288.29C201.93 288.29 242.54 262.97 248.87 264.55C249.72 265.89 251.83 269.23 255.2 274.57Z" id="aGEJHpkqJ"></path><path d="M324.83 315.72C324.83 315.72 290.01 313.61 290.01 313.61C290.01 313.61 272.61 313.61 272.61 304.64C272.61 304.64 278.41 294.62 278.41 294.62C280.2 294.88 294.55 296.99 296.34 297.26C296.34 297.26 317.97 291.45 327.99 299.37C327.36 302.64 344.87 310.44 324.83 315.72Z" id="a1Gm2sxdvU"></path><path d="M299.69 153.81C301.48 154.13 303.28 153.36 304.28 151.85C304.67 150.97 304.85 150.01 304.8 149.06C304.86 146.16 304.65 143.03 302.82 140.79C301.65 139.36 299.95 138.46 298.74 137.07C297.92 136.03 297.23 134.9 296.67 133.7C294.32 129.28 290.84 125.04 286 123.76C283.95 123.32 281.86 123.16 279.77 123.29C278.55 123.3 268.8 123.44 267.58 123.46C265.61 123.39 263.64 123.61 261.72 124.09C257.8 125.27 254.94 128.57 252.33 131.73C250.3 134.03 248.49 136.52 246.94 139.16C244.84 143.09 243.77 147.49 243.85 151.95C243.83 153.09 243.98 154.23 244.29 155.33C244.65 156.34 245.09 157.31 245.62 158.25C247.9 162.74 249.26 168.34 246.68 172.67C251.16 170.85 255.58 168.45 258.53 164.63C259.85 162.92 260.88 160.91 262.64 159.66C264.4 158.4 267.26 158.3 268.39 160.14C268.78 160.88 268.98 161.71 268.97 162.55C268.94 163.94 269.16 165.32 269.64 166.63C270.17 167.96 271.54 168.74 272.96 168.52C275.25 167.87 275.03 164.35 276.8 162.75C278.15 161.53 280.22 161.76 281.94 161.21C283.94 160.45 285.53 158.89 286.32 156.9C286.98 155.43 286.97 151.6 288.2 150.8C289.75 149.81 293.28 151.39 294.72 152.03C296.28 152.87 297.95 153.47 299.69 153.81Z" id="a6DlYHpO1"></path><path d="M238.91 175.29C242.29 176.2 249.88 178.6 251.51 182.27C253.62 187.01 261 194.4 261 194.4C261 194.4 271.03 204.42 268.92 211.28C266.81 218.13 258.89 226.05 258.89 226.05C258.89 226.05 261 258.75 250.45 267.19C239.9 275.63 235.68 269.83 235.68 277.74C235.68 285.65 202.98 310.44 196.65 295.15C196.65 295.15 199.82 266.66 198.76 256.64C197.72 246.76 199.24 185.13 235.65 175.28C236.71 174.99 237.84 175 238.91 175.29Z" id="d1FU2Iy8Cy"></path><path d="M278.94 222.35C278.94 222.35 259.42 231.85 255.2 231.32C250.98 230.79 234.63 212.33 230.41 210.75C226.19 209.17 224.08 180.68 252.56 188.6C257.84 195.35 284.74 212.33 278.94 222.35Z" id="fKZ7MmCuV"></path><path d="M153.02 220.69C152.54 223.09 152.83 225.59 152.43 228C151.51 233.61 147.11 237.89 143.05 241.86C139 245.83 134.81 250.45 134.51 256.12C134.19 262.33 138.69 268.15 137.91 274.32C137.01 281.48 129.44 286.13 127.57 293.11C126.32 297.77 127.85 302.78 130.37 306.9C135.17 314.74 143.37 320.06 152.11 322.91C160.85 325.77 170.16 326.37 179.35 326.46C190.54 326.58 202.69 325.62 211.1 318.23C215.91 313.97 218.92 308.06 219.55 301.67C220.35 293.12 216.77 284.27 219.24 276.04C220.79 270.86 224.68 266.13 224.1 260.75C223.53 255.49 218.94 251.77 215.79 247.52C212.85 243.55 211.06 238.87 209.31 234.25C208.71 232.67 203.93 220.04 203.33 218.46C202.15 215.35 200.86 212.08 198.24 210.05C193.33 206.23 185.44 206.98 179.7 207.77C174.37 208.5 168.7 208.14 163.58 209.87C158.58 211.56 154.04 215.51 153.02 220.69Z" id="a3U5o7lkH"></path><path d="M148.21 274.45C148.21 274.45 150.2 295.02 150.2 295.02C152.52 295.55 171.09 299.79 173.41 300.32C173.41 300.32 197.29 297.01 199.95 293.03C199.95 293.03 207.24 275.78 205.91 273.79C204.92 272.37 203.81 271.04 202.6 269.81C202.6 269.81 186.68 267.16 187.34 259.86C188.01 252.57 165.46 255.88 165.46 255.88C162.01 259.6 168.11 264.51 148.21 274.45Z" id="aCLUlE8v8"></path><path d="M148.21 274.45C148.21 274.45 150.2 295.02 150.2 295.02C152.52 295.55 171.09 299.79 173.41 300.32C173.41 300.32 197.29 297.01 199.95 293.03C199.95 293.03 207.24 275.78 205.91 273.79C204.92 272.37 203.81 271.04 202.6 269.81C202.6 269.81 186.68 267.16 187.34 259.86C188.01 252.57 165.46 255.88 165.46 255.88C162.01 259.6 168.11 264.51 148.21 274.45Z" id="g1MQMbVoa"></path><path d="M178.39 227.03C166.67 227.03 157.16 236.53 157.16 248.26C157.16 259.98 166.67 269.48 178.39 269.48C190.11 269.48 199.61 259.98 199.61 248.26C199.61 236.53 190.11 227.03 178.39 227.03Z" id="a208PpqtVE"></path><path d="M150.02 273.52C150.02 273.52 140.91 272.46 138.26 275.12C135.61 277.77 126.99 279.76 126.99 286.39C126.99 293.03 141.58 312.92 141.58 312.92C141.58 312.92 149.54 339.45 146.22 344.1C142.9 348.74 142.24 360.68 142.24 360.68C142.24 360.68 175.4 358.03 180.71 360.68C186.02 363.33 207.24 363.33 208.57 360.68C209.89 358.03 207.24 324.86 207.24 324.86C207.24 324.86 213.21 316.9 211.88 307.62C213.48 305.76 226.21 290.9 227.8 289.05C227.8 289.05 221.83 271.14 212.55 271.14C212.55 271.14 199.95 267.82 199.61 269.48C199.28 271.14 205.91 289.71 176.07 293.03C170.86 289.12 150.51 291.16 150.02 273.52Z" id="ervBQKUxu"></path><path d="M116.37 351.39C116.37 351.39 122.34 360.68 137.6 362.67C137.6 362.67 155.51 359.35 154.18 358.03C154.18 358.03 136.94 350.73 136.94 350.73C136.32 350.24 133.22 347.81 127.65 343.43C121.64 347.68 117.88 350.33 116.37 351.39Z" id="bFVqIGwkG"></path><path d="M225.15 343.43C214.8 349.4 209.05 352.72 207.9 353.38C207.9 353.38 185.35 352.06 193.98 358.69C193.98 358.69 218.52 362.67 218.52 362.67C219.53 362.18 224.62 359.75 233.77 355.37L225.15 343.43Z" id="cc6WHu8vC"></path><path d="M142.24 405.78C142.24 405.78 214.54 410.42 226.48 402.46C226.48 402.46 241.73 383.89 239.74 380.58C239.74 380.58 224.49 367.98 215.2 367.31C205.91 366.65 138.92 360.68 138.92 360.68C139.59 369.7 123.01 399.81 142.24 405.78Z" id="aD4fCcoaO"></path><path d="M142.24 405.78C142.24 405.78 214.54 410.42 226.48 402.46C226.48 402.46 241.73 383.89 239.74 380.58C239.74 380.58 224.49 367.98 215.2 367.31C205.91 366.65 138.92 360.68 138.92 360.68C139.59 369.7 123.01 399.81 142.24 405.78Z" id="a1OiBzQJJu"></path><path d="M129.64 283.08C128.05 284.27 127.16 284.93 126.99 285.07C126.99 285.07 121.02 300.32 120.35 308.94C120.35 308.94 111.73 344.1 112.39 347.41C112.39 347.41 113.72 353.38 117.7 356.7C117.7 356.7 123.01 344.76 132.29 346.75C133.04 344.01 136.8 330.3 143.57 305.63L129.64 283.08Z" id="cD5KEuGp"></path><path d="M214.06 363.11C214.06 363.11 270.25 342.77 269.59 367.31C269.59 367.31 233.77 398.49 233.77 398.49C233.06 398.57 229.53 399.02 223.16 399.81C188.14 401.01 168.68 401.67 164.79 401.8C164.79 401.8 166.78 391.19 162.14 389.86C162.14 389.86 177.39 385.88 178.06 385.22C178.72 384.56 216.53 371.29 219.18 370.63C221.83 369.96 229.79 364.66 235.76 365.32C235.76 365.32 242.39 360.02 249.69 361.34C248.32 361.43 241.47 361.87 229.13 362.67C221.09 362.9 216.07 363.05 214.06 363.11Z" id="a52jg9DrZ"></path><path d="M214.06 363.11C214.06 363.11 270.25 342.77 269.59 367.31C269.59 367.31 233.77 398.49 233.77 398.49C233.06 398.57 229.53 399.02 223.16 399.81C188.14 401.01 168.68 401.67 164.79 401.8C164.79 401.8 166.78 391.19 162.14 389.86C162.14 389.86 177.39 385.88 178.06 385.22C178.72 384.56 216.53 371.29 219.18 370.63C221.83 369.96 229.79 364.66 235.76 365.32C235.76 365.32 242.39 360.02 249.69 361.34C248.32 361.43 241.47 361.87 229.13 362.67C221.09 362.9 216.07 363.05 214.06 363.11Z" id="cqTMLESoS"></path><path d="M211.22 382.57L254.33 367.31L257.65 358.69L246.37 356.7L223.71 360.68L213.87 363.33L204.14 366.4L204.14 366.4L211.22 382.57Z" id="aMOCjicBc"></path><path d="M211.22 382.57L254.33 367.31L257.65 358.69L246.37 356.7L223.71 360.68L213.87 363.33L204.14 366.4L204.14 366.4L211.22 382.57Z" id="ebAa0rJp0"></path><path d="M112.39 385.88C112.39 385.88 125 401.8 139.59 405.78C139.59 405.78 162.14 404.45 162.14 404.45C161.83 403.22 160.28 397.03 157.5 385.88L155.51 373.94L146.88 367.97L129.64 360.02C117.3 356.04 110.45 353.83 109.08 353.38C109.08 353.38 100.46 352.06 100.46 353.38C100.46 353.38 108.41 374.61 108.41 374.61C109.21 376.86 111.6 383.63 112.39 385.88Z" id="a3OGesIkrJ"></path><path d="M133.62 415.07C133.62 415.07 146.88 413.74 149.54 412.41C149.54 412.41 161.21 404.97 161.21 404.97C161.21 404.97 129.64 393.18 127.65 394.51C128.84 398.62 130.3 413.74 133.62 415.07Z" id="agqBiex3o"></path><path d="M200.61 398.49L199.28 413.74L181.7 409.47L188.01 396.5L188.01 396.5L200.61 398.49Z" id="a7uYNHCNe"></path><path d="M195.9 400.74C195.9 400.74 190 407.77 195.97 411.75C196.36 412.08 199.55 414.74 199.95 415.07C199.95 415.07 213.21 417.72 214.54 419.05C214.54 419.05 221.17 417.06 221.17 417.06C221.17 417.06 221.83 397.16 221.17 395.83C221.17 395.83 212.55 393.18 211.88 394.51C211.88 394.51 203.26 397.82 198.62 396.5C198.08 397.34 196.45 399.89 195.9 400.74Z" id="g1qpHr5NDC"></path><path d="M142.9 365.32C142.9 365.32 96.48 338.13 89.18 348.08C89.18 348.08 73.92 371.95 95.15 382.57C95.15 382.57 182.7 415.07 182.7 415.07C182.7 415.07 192.65 399.81 192.65 395.83C192.65 395.83 157.5 379.91 151.53 378.59C145.56 377.26 121.68 362.01 118.36 360.68C115.05 359.35 110.4 355.37 110.4 355.37C116.9 357.36 136.4 363.33 142.9 365.32Z" id="a4hdeStjN4"></path><path d="M222.5 283.08C225.68 286.66 227.45 288.65 227.8 289.05C227.8 289.05 231.12 297.01 231.12 299C231.12 299 237.75 330.17 238.41 331.5C238.41 331.5 241.73 349.4 238.41 353.38C238.41 353.38 229.13 360.02 229.13 360.02C229.13 360.02 233.11 346.09 220.51 345.42C220.59 345.07 221.04 343.3 221.83 340.12L209.89 300.32L222.5 283.08Z" id="biGDNfAky"></path><path d="M130.97 363.68C130.97 368.27 134.65 372.01 139.24 372.08C146.55 372.19 205 373.05 212.3 373.16C216.86 373.23 220.65 369.64 220.82 365.08C220.96 361.59 222.03 333.64 222.17 330.14C222.34 325.51 218.73 321.61 214.1 321.43C214.03 321.42 213.96 321.42 213.89 321.42C206.45 321.31 146.93 320.45 139.49 320.34C134.85 320.28 131.03 323.98 130.97 328.62C130.97 328.66 130.97 328.7 130.97 328.74C130.97 335.73 130.97 360.18 130.97 363.68Z" id="a2dNBA48Mh"></path><path d="M202.48 235.27C202.48 242.07 192.25 247.58 179.63 247.58C167.02 247.58 156.79 242.07 156.79 235.27C156.79 228.48 167.02 222.97 179.63 222.97C192.25 222.97 202.48 228.48 202.48 235.27Z" id="h4oRhQLGfb"></path><path d="M175.74 341.78C172.81 341.78 170.43 344.15 170.43 347.08C170.43 350.01 172.81 352.39 175.74 352.39C178.67 352.39 181.04 350.01 181.04 347.08C181.04 344.15 178.67 341.78 175.74 341.78Z" id="b2SyC6qrW"></path></defs><g><g><use xlink:href="#cYwD9re6E" opacity="1" fill="#000000" fill-opacity="1"></use><g><use xlink:href="#cYwD9re6E" opacity="1" fill-opacity="0" stroke="#000000" stroke-width="1" stroke-opacity="0"></use></g></g><g><use xlink:href="#e5WzxyUHre" opacity="1" fill="#000000" fill-opacity="1"></use><g><use xlink:href="#e5WzxyUHre" opacity="1" fill-opacity="0" stroke="#000000" stroke-width="1" stroke-opacity="0"></use></g></g><g><use xlink:href="#buWKyBT8V" opacity="1" fill="#3f3d56" fill-opacity="1"></use><g><use xlink:href="#buWKyBT8V" opacity="1" fill-opacity="0" stroke="#000000" stroke-width="1" stroke-opacity="0"></use></g></g><g><use xlink:href="#c5YaCEg0VS" opacity="1" fill="#000000" fill-opacity="1"></use><g><use xlink:href="#c5YaCEg0VS" opacity="1" fill-opacity="0" stroke="#000000" stroke-width="1" stroke-opacity="0"></use></g></g><g><use xlink:href="#bIetQOLM9" opacity="1" fill="#2f2e41" fill-opacity="1"></use><g><use xlink:href="#bIetQOLM9" opacity="1" fill-opacity="0" stroke="#000000" stroke-width="1" stroke-opacity="0"></use></g></g><g><use xlink:href="#af5IE74sW" opacity="1" fill="#f2f2f2" fill-opacity="1"></use><g><use xlink:href="#af5IE74sW" opacity="1" fill-opacity="0" stroke="#000000" stroke-width="1" stroke-opacity="0"></use></g></g><g><use xlink:href="#d1uBdTb7v" opacity="1" fill="#2f2e41" fill-opacity="1"></use><g><use xlink:href="#d1uBdTb7v" opacity="1" fill-opacity="0" stroke="#000000" stroke-width="1" stroke-opacity="0"></use></g></g><g><use xlink:href="#jcsBCK0wi" opacity="1" fill="#000000" fill-opacity="1"></use><g><use xlink:href="#jcsBCK0wi" opacity="1" fill-opacity="0" stroke="#000000" stroke-width="1" stroke-opacity="0"></use></g></g><g><use xlink:href="#b11o8cei6" opacity="1" fill="#000000" fill-opacity="1"></use><g><use xlink:href="#b11o8cei6" opacity="1" fill-opacity="0" stroke="#000000" stroke-width="1" stroke-opacity="0"></use></g></g><g><use xlink:href="#d3Fik2Fcrz" opacity="1" fill="#000000" fill-opacity="1"></use><g><use xlink:href="#d3Fik2Fcrz" opacity="1" fill-opacity="0" stroke="#000000" stroke-width="1" stroke-opacity="0"></use></g></g><g><use xlink:href="#cmxaZsFns" opacity="1" fill="#2f2e41" fill-opacity="1"></use><g><use xlink:href="#cmxaZsFns" opacity="1" fill-opacity="0" stroke="#000000" stroke-width="1" stroke-opacity="0"></use></g></g><g><use xlink:href="#aCDGO6U5H" opacity="1" fill="#000000" fill-opacity="1"></use><g><use xlink:href="#aCDGO6U5H" opacity="1" fill-opacity="0" stroke="#000000" stroke-width="1" stroke-opacity="0"></use></g></g><g><use xlink:href="#f25ahQ4Be7" opacity="1" fill="#a0616a" fill-opacity="1"></use><g><use xlink:href="#f25ahQ4Be7" opacity="1" fill-opacity="0" stroke="#000000" stroke-width="1" stroke-opacity="0"></use></g></g><g><use xlink:href="#a232czepED" opacity="1" fill="#000000" fill-opacity="1"></use><g><use xlink:href="#a232czepED" opacity="1" fill-opacity="0" stroke="#000000" stroke-width="1" stroke-opacity="0"></use></g></g><g><use xlink:href="#dIQF4CL1" opacity="1" fill="#a0616a" fill-opacity="1"></use><g><use xlink:href="#dIQF4CL1" opacity="1" fill-opacity="0" stroke="#000000" stroke-width="1" stroke-opacity="0"></use></g></g><g><use xlink:href="#bepYRsvLu" opacity="1" fill="#a0616a" fill-opacity="1"></use><g><use xlink:href="#bepYRsvLu" opacity="1" fill-opacity="0" stroke="#000000" stroke-width="1" stroke-opacity="0"></use></g></g><g><use xlink:href="#atauphBnd" opacity="1" fill="#d0cde1" fill-opacity="1"></use><g><use xlink:href="#atauphBnd" opacity="1" fill-opacity="0" stroke="#000000" stroke-width="1" stroke-opacity="0"></use></g></g><g><use xlink:href="#e7Y5Z7FxS" opacity="1" fill="#a0616a" fill-opacity="1"></use><g><use xlink:href="#e7Y5Z7FxS" opacity="1" fill-opacity="0" stroke="#000000" stroke-width="1" stroke-opacity="0"></use></g></g><g><use xlink:href="#aGEJHpkqJ" opacity="1" fill="#2f2e41" fill-opacity="1"></use><g><use xlink:href="#aGEJHpkqJ" opacity="1" fill-opacity="0" stroke="#000000" stroke-width="1" stroke-opacity="0"></use></g></g><g><use xlink:href="#a1Gm2sxdvU" opacity="1" fill="#d0cde1" fill-opacity="1"></use><g><use xlink:href="#a1Gm2sxdvU" opacity="1" fill-opacity="0" stroke="#000000" stroke-width="1" stroke-opacity="0"></use></g></g><g><use xlink:href="#a6DlYHpO1" opacity="1" fill="#2f2e41" fill-opacity="1"></use><g><use xlink:href="#a6DlYHpO1" opacity="1" fill-opacity="0" stroke="#000000" stroke-width="1" stroke-opacity="0"></use></g></g><g><use xlink:href="#d1FU2Iy8Cy" opacity="1" fill="#d0cde1" fill-opacity="1"></use><g><use xlink:href="#d1FU2Iy8Cy" opacity="1" fill-opacity="0" stroke="#000000" stroke-width="1" stroke-opacity="0"></use></g></g><g><use xlink:href="#fKZ7MmCuV" opacity="1" fill="#d0cde1" fill-opacity="1"></use><g><use xlink:href="#fKZ7MmCuV" opacity="1" fill-opacity="0" stroke="#000000" stroke-width="1" stroke-opacity="0"></use></g></g><g><use xlink:href="#a3U5o7lkH" opacity="1" fill="#2f2e41" fill-opacity="1"></use><g><use xlink:href="#a3U5o7lkH" opacity="1" fill-opacity="0" stroke="#000000" stroke-width="1" stroke-opacity="0"></use></g></g><g><use xlink:href="#aCLUlE8v8" opacity="1" fill="#ffb9b9" fill-opacity="1"></use><g><use xlink:href="#aCLUlE8v8" opacity="1" fill-opacity="0" stroke="#000000" stroke-width="1" stroke-opacity="0"></use></g></g><g><use xlink:href="#g1MQMbVoa" opacity="1" fill="#000000" fill-opacity="1"></use><g><use xlink:href="#g1MQMbVoa" opacity="1" fill-opacity="0" stroke="#000000" stroke-width="1" stroke-opacity="0"></use></g></g><g><use xlink:href="#a208PpqtVE" opacity="1" fill="#ffb9b9" fill-opacity="1"></use><g><use xlink:href="#a208PpqtVE" opacity="1" fill-opacity="0" stroke="#000000" stroke-width="1" stroke-opacity="0"></use></g></g><g><use xlink:href="#ervBQKUxu" opacity="1" fill="#ff6584" fill-opacity="1"></use><g><use xlink:href="#ervBQKUxu" opacity="1" fill-opacity="0" stroke="#000000" stroke-width="1" stroke-opacity="0"></use></g></g><g><use xlink:href="#bFVqIGwkG" opacity="1" fill="#ffb9b9" fill-opacity="1"></use><g><use xlink:href="#bFVqIGwkG" opacity="1" fill-opacity="0" stroke="#000000" stroke-width="1" stroke-opacity="0"></use></g></g><g><use xlink:href="#cc6WHu8vC" opacity="1" fill="#ffb9b9" fill-opacity="1"></use><g><use xlink:href="#cc6WHu8vC" opacity="1" fill-opacity="0" stroke="#000000" stroke-width="1" stroke-opacity="0"></use></g></g><g><use xlink:href="#aD4fCcoaO" opacity="1" fill="#2f2e41" fill-opacity="1"></use><g><use xlink:href="#aD4fCcoaO" opacity="1" fill-opacity="0" stroke="#000000" stroke-width="1" stroke-opacity="0"></use></g></g><g><use xlink:href="#a1OiBzQJJu" opacity="1" fill="#000000" fill-opacity="1"></use><g><use xlink:href="#a1OiBzQJJu" opacity="1" fill-opacity="0" stroke="#000000" stroke-width="1" stroke-opacity="0"></use></g></g><g><use xlink:href="#cD5KEuGp" opacity="1" fill="#ff6584" fill-opacity="1"></use><g><use xlink:href="#cD5KEuGp" opacity="1" fill-opacity="0" stroke="#000000" stroke-width="1" stroke-opacity="0"></use></g></g><g><use xlink:href="#a52jg9DrZ" opacity="1" fill="#2f2e41" fill-opacity="1"></use><g><use xlink:href="#a52jg9DrZ" opacity="1" fill-opacity="0" stroke="#000000" stroke-width="1" stroke-opacity="0"></use></g></g><g><use xlink:href="#cqTMLESoS" opacity="1" fill="#000000" fill-opacity="1"></use><g><use xlink:href="#cqTMLESoS" opacity="1" fill-opacity="0" stroke="#000000" stroke-width="1" stroke-opacity="0"></use></g></g><g><use xlink:href="#aMOCjicBc" opacity="1" fill="#2f2e41" fill-opacity="1"></use><g><use xlink:href="#aMOCjicBc" opacity="1" fill-opacity="0" stroke="#000000" stroke-width="1" stroke-opacity="0"></use></g></g><g><use xlink:href="#ebAa0rJp0" opacity="1" fill="#000000" fill-opacity="1"></use><g><use xlink:href="#ebAa0rJp0" opacity="1" fill-opacity="0" stroke="#000000" stroke-width="1" stroke-opacity="0"></use></g></g><g><use xlink:href="#a3OGesIkrJ" opacity="1" fill="#2f2e41" fill-opacity="1"></use><g><use xlink:href="#a3OGesIkrJ" opacity="1" fill-opacity="0" stroke="#000000" stroke-width="1" stroke-opacity="0"></use></g></g><g><use xlink:href="#agqBiex3o" opacity="1" fill="#f2f2f2" fill-opacity="1"></use><g><use xlink:href="#agqBiex3o" opacity="1" fill-opacity="0" stroke="#000000" stroke-width="1" stroke-opacity="0"></use></g></g><g><use xlink:href="#a7uYNHCNe" opacity="1" fill="#ffb9b9" fill-opacity="1"></use><g><use xlink:href="#a7uYNHCNe" opacity="1" fill-opacity="0" stroke="#000000" stroke-width="1" stroke-opacity="0"></use></g></g><g><use xlink:href="#g1qpHr5NDC" opacity="1" fill="#f2f2f2" fill-opacity="1"></use><g><use xlink:href="#g1qpHr5NDC" opacity="1" fill-opacity="0" stroke="#000000" stroke-width="1" stroke-opacity="0"></use></g></g><g><use xlink:href="#a4hdeStjN4" opacity="1" fill="#2f2e41" fill-opacity="1"></use><g><use xlink:href="#a4hdeStjN4" opacity="1" fill-opacity="0" stroke="#000000" stroke-width="1" stroke-opacity="0"></use></g></g><g><use xlink:href="#biGDNfAky" opacity="1" fill="#ff6584" fill-opacity="1"></use><g><use xlink:href="#biGDNfAky" opacity="1" fill-opacity="0" stroke="#000000" stroke-width="1" stroke-opacity="0"></use></g></g><g><use xlink:href="#a2dNBA48Mh" opacity="1" fill="#3f3d56" fill-opacity="1"></use><g><use xlink:href="#a2dNBA48Mh" opacity="1" fill-opacity="0" stroke="#000000" stroke-width="1" stroke-opacity="0"></use></g></g><g><use xlink:href="#h4oRhQLGfb" opacity="1" fill="#2f2e41" fill-opacity="1"></use><g><use xlink:href="#h4oRhQLGfb" opacity="1" fill-opacity="0" stroke="#000000" stroke-width="1" stroke-opacity="0"></use></g></g><g><use xlink:href="#b2SyC6qrW" opacity="1" fill="#f2f2f2" fill-opacity="1"></use><g><use xlink:href="#b2SyC6qrW" opacity="1" fill-opacity="0" stroke="#000000" stroke-width="1" stroke-opacity="0"></use></g></g></g></svg>