<svg width="581" height="377" xmlns="http://www.w3.org/2000/svg">

 <g>
  <title>background</title>
  <rect fill="none" id="canvas_background" height="379" width="583" y="-1" x="-1"/>
 </g>
 <g>
  <title>Layer 1</title>
  <path opacity="0.3" id="svg_3" fill="#3f3d56" d="m559.00001,4l-539,0a19.01722,19.01722 0 0 0 -19,19l0,58a19.01722,19.01722 0 0 0 19,19l539,0a19.01722,19.01722 0 0 0 19,-19l0,-58a19.01722,19.01722 0 0 0 -19,-19zm17,77a17.02411,17.02411 0 0 1 -17,17l-539,0a17.02411,17.02411 0 0 1 -17,-17l0,-58a17.0241,17.0241 0 0 1 17,-17l539,0a17.0241,17.0241 0 0 1 17,17l0,58z"/>
  <path opacity="0.3" id="svg_4" fill="#3f3d56" d="m559.00001,237l-539,0a19.02162,19.02162 0 0 1 -19,-19l0,-58a19.02162,19.02162 0 0 1 19,-19l539,0a19.02162,19.02162 0 0 1 19,19l0,58a19.02162,19.02162 0 0 1 -19,19zm-539,-94a17.01908,17.01908 0 0 0 -17,17l0,58a17.01909,17.01909 0 0 0 17,17l539,0a17.01917,17.01917 0 0 0 17,-17l0,-58a17.01916,17.01916 0 0 0 -17,-17l-539,0z"/>
  <path opacity="0.3" id="svg_5" fill="#3f3d56" d="m559.00001,374l-539,0a19.02162,19.02162 0 0 1 -19,-19l0,-58a19.02162,19.02162 0 0 1 19,-19l539,0a19.02162,19.02162 0 0 1 19,19l0,58a19.02162,19.02162 0 0 1 -19,19zm-539,-94a17.01908,17.01908 0 0 0 -17,17l0,58a17.01909,17.01909 0 0 0 17,17l539,0a17.01917,17.01917 0 0 0 17,-17l0,-58a17.01916,17.01916 0 0 0 -17,-17l-539,0z"/>
  <path opacity="0.3" id="svg_6" fill="#0c0c0c" d="m108.83068,84.5l-32,0a16.51867,16.51867 0 0 1 -16.5,-16.5l0,-32a16.51866,16.51866 0 0 1 16.5,-16.5l32,0a16.51867,16.51867 0 0 1 16.5,16.5l0,32a16.51868,16.51868 0 0 1 -16.5,16.5z"/>
  <path id="svg_7" fill="#ccc" d="m510.16933,79l-353,0a8,8 0 1 1 0,-16l353,0a8,8 0 0 1 0,16z"/>
  <path id="svg_8" fill="#ccc" d="m395.16933,45l-238,0a8,8 0 1 1 0,-16l238,0a8,8 0 0 1 0,16z"/>
  <path opacity="0.3" id="svg_9" fill="#0c0c0c" d="m108.83068,221.5l-32,0a16.51867,16.51867 0 0 1 -16.5,-16.5l0,-32a16.51866,16.51866 0 0 1 16.5,-16.5l32,0a16.51867,16.51867 0 0 1 16.5,16.5l0,32a16.51868,16.51868 0 0 1 -16.5,16.5z"/>
  <path id="svg_10" fill="#ccc" d="m510.16933,216l-353,0a8,8 0 1 1 0,-16l353,0a8,8 0 0 1 0,16z"/>
  <path id="svg_11" fill="#ccc" d="m395.16933,182l-238,0a8,8 0 1 1 0,-16l238,0a8,8 0 0 1 0,16z"/>
  <path opacity="0.3" id="svg_12" fill="#0c0c0c" d="m108.83068,358.5l-32,0a16.51867,16.51867 0 0 1 -16.5,-16.5l0,-32a16.51866,16.51866 0 0 1 16.5,-16.5l32,0a16.51867,16.51867 0 0 1 16.5,16.5l0,32a16.51868,16.51868 0 0 1 -16.5,16.5z"/>
  <path id="svg_13" fill="#ccc" d="m510.16933,353l-353,0a8,8 0 1 1 0,-16l353,0a8,8 0 0 1 0,16z"/>
  <path id="svg_14" fill="#ccc" d="m395.16933,319l-238,0a8,8 0 1 1 0,-16l238,0a8,8 0 0 1 0,16z"/>
 </g>
</svg>