<svg width="359.3779" height="727.77798" xmlns="http://www.w3.org/2000/svg">

 <g>
  <title>background</title>
  <rect fill="none" id="canvas_background" height="729.77798" width="361.3779" y="-1" x="-1"/>
 </g>
 <g>
  <title>Layer 1</title>
  <path id="svg_1" fill="#e6e6e6" d="m362.88929,172.94723l-3.99878,0l0,-109.54533a63.40187,63.40187 0 0 0 -63.40179,-63.40191l-232.08676,0a63.40184,63.40184 0 0 0 -63.402,63.4017l0,600.97443a63.40181,63.40181 0 0 0 63.40184,63.40187l232.08661,0a63.40185,63.40185 0 0 0 63.402,-63.40167l0,-413.45283l3.99884,0l0.00004,-77.97626z"/>
  <path id="svg_2" fill="#fff" d="m298.04676,16.49499l-30.295,0a22.49485,22.49485 0 0 1 -20.82715,30.99053l-132.95945,0a22.49484,22.49484 0 0 1 -20.82715,-30.99061l-28.29559,0a47.34781,47.34781 0 0 0 -47.34784,47.34774l0,600.09262a47.34781,47.34781 0 0 0 47.34777,47.34784l233.20441,0a47.34781,47.34781 0 0 0 47.34784,-47.34778l0,0l0,-600.09263a47.34777,47.34777 0 0 0 -47.34784,-47.34771z"/>
  <path fill="#e6e6e6" d="m326.15144,197.81881l-279.619,0a5.184,5.184 0 0 1 -5.178,-5.178l0,-69.361a5.184,5.184 0 0 1 5.178,-5.178l279.619,0a5.184,5.184 0 0 1 5.178,5.178l0,69.362a5.184,5.184 0 0 1 -5.178,5.177zm-279.619,-77.646a3.11,3.11 0 0 0 -3.107,3.107l0,69.362a3.11,3.11 0 0 0 3.107,3.107l279.619,0a3.11,3.11 0 0 0 3.107,-3.107l0,-69.362a3.11,3.11 0 0 0 -3.107,-3.107l-279.619,0z" id="f3818c68-126c-4685-b4e0-2450731ccc2a"/>
  <circle fill="#e6e6e6" r="21.74797" cy="157.95985" cx="82.77841" id="abdb74b7-e321-430b-89c2-b563f66442fc"/>
  <path fill="#e6e6e6" d="m133.00642,143.46185a3.625,3.625 0 0 0 0,7.249l170.878,0a3.625,3.625 0 0 0 0.13989,-7.24866l-0.02087,-0.00033q-0.05943,-0.001 -0.119,0l-170.87802,-0.00001z" id="addd02b1-b85b-481a-baea-1b0ba5ed9f4a"/>
  <path fill="#e6e6e6" d="m133.00642,165.20986a3.625,3.625 0 0 0 0,7.249l170.878,0a3.625,3.625 0 0 0 0.119,-7.249q-0.05943,-0.00092 -0.119,0l-170.878,0z" id="a42dc2a4-5fb2-4ea8-b2b3-ce81bc256782"/>
  <path fill="#e6e6e6" d="m326.15144,314.8088l-279.619,0a5.184,5.184 0 0 1 -5.178,-5.178l0,-69.361a5.184,5.184 0 0 1 5.178,-5.178l279.619,0a5.184,5.184 0 0 1 5.178,5.178l0,69.362a5.184,5.184 0 0 1 -5.178,5.177zm-279.619,-77.646a3.11,3.11 0 0 0 -3.107,3.107l0,69.362a3.11,3.11 0 0 0 3.107,3.107l279.619,0a3.11,3.11 0 0 0 3.107,-3.107l0,-69.362a3.11,3.11 0 0 0 -3.107,-3.107l-279.619,0z" id="b84687c4-e3b4-4975-8361-bf73c33c9ee5"/>
  <circle fill="#e6e6e6" r="21.74799" cy="274.94987" cx="82.77841" id="fe3713e7-4e14-41f8-af1d-48b338e5371c"/>
  <path fill="#e6e6e6" d="m133.00642,260.45187a3.625,3.625 0 0 0 0,7.249l170.878,0a3.625,3.625 0 0 0 0.119,-7.249q-0.05943,-0.001 -0.119,0l-170.878,0z" id="e34cf46a-1d6c-4c41-b5e1-331fa5bf8d4c"/>
  <path fill="#e6e6e6" d="m133.00642,282.19985a3.625,3.625 0 0 0 0,7.249l170.878,0a3.625,3.625 0 0 0 0.119,-7.249q-0.05943,-0.00092 -0.119,0l-170.878,0z" id="e105039f-b7a6-49c8-8f81-87505f1b0ae5"/>
  <path fill="#e6e6e6" d="m326.15144,432.8088l-279.619,0a5.184,5.184 0 0 1 -5.178,-5.178l0,-69.361a5.184,5.184 0 0 1 5.178,-5.178l279.619,0a5.184,5.184 0 0 1 5.178,5.178l0,69.362a5.184,5.184 0 0 1 -5.178,5.177zm-279.619,-77.646a3.11,3.11 0 0 0 -3.107,3.107l0,69.362a3.11,3.11 0 0 0 3.107,3.107l279.619,0a3.11,3.11 0 0 0 3.107,-3.107l0,-69.362a3.11,3.11 0 0 0 -3.107,-3.107l-279.619,0z" id="svg_23"/>
  <circle fill="#e6e6e6" r="21.74799" cy="392.94987" cx="82.77841" id="svg_24"/>
  <path fill="#e6e6e6" d="m133.00642,378.45187a3.625,3.625 0 0 0 0,7.249l170.878,0a3.625,3.625 0 0 0 0.119,-7.249q-0.05943,-0.001 -0.119,0l-170.878,0z" id="svg_25"/>
  <path fill="#e6e6e6" d="m133.00642,400.19985a3.625,3.625 0 0 0 0,7.249l170.878,0a3.625,3.625 0 0 0 0.119,-7.249q-0.05943,-0.00092 -0.119,0l-170.878,0z" id="svg_26"/>
 </g>
</svg>