<?xml version="1.0" encoding="UTF-8" standalone="no"?>
<!DOCTYPE svg PUBLIC "-//W3C//DTD SVG 1.1//EN" "http://www.w3.org/Graphics/SVG/1.1/DTD/svg11.dtd">
<svg version="1.1" xmlns="http://www.w3.org/2000/svg" xmlns:xlink="http://www.w3.org/1999/xlink" preserveAspectRatio="xMidYMid meet" viewBox="228.4346225205499 221.65298829929876 374.2883373663637 398.4836313809724" width="370.29" height="394.48"><defs><path d="M414.68 606.12C417.14 606.12 419.63 606.07 422.09 605.97C422.09 606.1 422.13 607.08 422.14 607.21C419.66 607.3 417.15 607.36 414.68 607.36C414.68 607.11 414.68 606.25 414.68 606.12ZM407.23 607.21C404.76 607.12 402.26 606.97 399.79 606.77C399.8 606.65 399.88 605.67 399.89 605.54C402.34 605.74 404.83 605.88 407.28 605.98C407.27 606.23 407.24 606.97 407.23 607.21ZM429.48 605.53C431.93 605.33 434.41 605.08 436.85 604.79C436.86 604.91 436.98 605.89 436.99 606.01C434.54 606.31 432.04 606.56 429.58 606.76C429.58 606.76 429.49 605.65 429.48 605.53ZM392.37 606.04C389.91 605.74 387.43 605.4 384.99 605.01C385.01 604.88 385.16 603.91 385.18 603.79C387.61 604.18 390.07 604.52 392.52 604.81C392.49 605.06 392.4 605.79 392.37 606.04ZM444.18 603.75C446.6 603.36 449.05 602.91 451.46 602.42C451.49 602.54 451.68 603.51 451.71 603.63C449.28 604.13 446.81 604.58 444.37 604.97C444.37 604.97 444.2 603.88 444.18 603.75ZM377.65 603.67C375.22 603.18 372.78 602.63 370.38 602.05C370.41 601.93 370.64 600.97 370.67 600.85C373.05 601.43 375.49 601.98 377.9 602.46C377.85 602.71 377.7 603.43 377.65 603.67ZM458.69 600.8C461.08 600.21 463.48 599.57 465.84 598.88C465.87 599 466.15 599.95 466.18 600.07C463.81 600.76 461.39 601.41 458.98 602C458.98 602 458.72 600.92 458.69 600.8ZM363.17 600.13C360.79 599.44 358.4 598.7 356.05 597.92C356.09 597.8 356.41 596.86 356.44 596.75C358.77 597.52 361.15 598.26 363.52 598.94C363.45 599.18 363.24 599.89 363.17 600.13ZM472.91 596.68C475.24 595.9 477.58 595.06 479.88 594.19C479.93 594.31 480.28 595.23 480.32 595.34C478.01 596.22 475.64 597.07 473.3 597.85C473.22 597.62 472.95 596.8 472.91 596.68ZM349.01 595.41C346.7 594.53 344.36 593.6 342.08 592.62C342.13 592.51 342.51 591.6 342.56 591.49C344.83 592.45 347.15 593.39 349.45 594.26C349.36 594.49 349.1 595.18 349.01 595.41ZM486.73 591.43C488.99 590.47 491.25 589.44 493.46 588.39C493.52 588.5 493.94 589.4 493.99 589.51C491.77 590.57 489.49 591.59 487.22 592.57C487.22 592.57 486.78 591.54 486.73 591.43ZM335.27 589.56C333.02 588.49 330.78 587.37 328.59 586.22C328.64 586.11 329.1 585.23 329.16 585.12C331.34 586.27 333.57 587.38 335.8 588.44C335.69 588.66 335.37 589.33 335.27 589.56ZM500.07 585.09C502.25 583.94 504.42 582.74 506.54 581.51C506.61 581.62 507.1 582.47 507.16 582.58C505.03 583.82 502.84 585.03 500.65 586.18C500.65 586.18 500.13 585.19 500.07 585.09ZM322.05 582.61C319.9 581.37 317.75 580.07 315.66 578.75C315.73 578.64 316.26 577.81 316.32 577.7C318.4 579.02 320.53 580.31 322.67 581.54C322.54 581.76 322.17 582.4 322.05 582.61ZM512.87 577.68C514.94 576.37 517.01 575 519.04 573.6C519.11 573.7 519.67 574.51 519.74 574.61C517.7 576.02 515.61 577.4 513.53 578.72C513.53 578.72 512.94 577.79 512.87 577.68ZM309.44 574.63C307.4 573.22 305.36 571.75 303.39 570.26C303.46 570.16 304.06 569.38 304.13 569.28C306.09 570.75 308.11 572.21 310.14 573.61C310 573.82 309.58 574.42 309.44 574.63ZM525.04 569.27C526.99 567.8 528.95 566.26 530.86 564.7C530.94 564.8 531.56 565.56 531.64 565.66C529.72 567.23 527.75 568.77 525.78 570.26C525.78 570.26 525.11 569.37 525.04 569.27ZM297.52 565.66C295.6 564.09 293.69 562.47 291.84 560.83C291.92 560.73 292.58 560 292.66 559.9C294.5 561.53 296.4 563.15 298.3 564.7C298.14 564.9 297.67 565.47 297.52 565.66ZM536.5 559.91C538.34 558.28 540.17 556.59 541.94 554.89C542.02 554.98 542.71 555.69 542.79 555.78C541.01 557.49 539.17 559.19 537.32 560.83C537.32 560.83 536.58 560 536.5 559.91ZM286.36 555.77C284.58 554.06 282.8 552.29 281.09 550.5C281.18 550.42 281.89 549.73 281.98 549.65C283.68 551.42 285.44 553.18 287.21 554.88C287.04 555.06 286.53 555.59 286.36 555.77ZM547.18 549.65C548.88 547.88 550.57 546.05 552.2 544.21C552.29 544.29 553.03 544.95 553.13 545.03C551.48 546.88 549.78 548.72 548.07 550.51C548.07 550.51 547.27 549.74 547.18 549.65ZM276.03 545.03C274.38 543.17 272.76 541.26 271.2 539.35C271.29 539.28 272.06 538.65 272.15 538.57C273.7 540.47 275.32 542.37 276.95 544.21C276.77 544.37 276.21 544.86 276.03 545.03ZM557.01 538.57C558.57 536.66 560.11 534.7 561.58 532.74C561.68 532.82 562.47 533.41 562.57 533.49C561.08 535.46 559.53 537.43 557.96 539.35C557.96 539.35 557.1 538.65 557.01 538.57ZM266.6 533.49C265.11 531.52 263.64 529.49 262.24 527.46C262.34 527.39 263.15 526.82 263.25 526.75C264.65 528.77 266.11 530.79 267.58 532.75C267.39 532.9 266.79 533.35 266.6 533.49ZM565.92 526.73C567.32 524.71 568.7 522.63 570.01 520.55C570.12 520.62 570.95 521.15 571.06 521.22C569.73 523.3 568.35 525.4 566.94 527.44C566.94 527.44 566.02 526.8 565.92 526.73ZM258.12 521.25C256.8 519.17 255.5 517.02 254.26 514.89C254.37 514.82 255.22 514.33 255.33 514.27C256.56 516.39 257.85 518.52 259.16 520.59C258.96 520.72 258.33 521.12 258.12 521.25ZM573.86 514.21C575.09 512.08 576.3 509.89 577.44 507.72C577.55 507.78 578.43 508.24 578.54 508.3C577.39 510.48 576.17 512.68 574.93 514.83C574.93 514.83 573.97 514.28 573.86 514.21ZM250.66 508.37C249.51 506.19 248.39 503.95 247.33 501.72C247.44 501.67 248.33 501.24 248.44 501.19C249.5 503.4 250.61 505.63 251.75 507.8C251.54 507.91 250.88 508.26 250.66 508.37ZM580.76 501.09C581.82 498.86 582.85 496.59 583.81 494.32C583.93 494.37 584.84 494.76 584.95 494.81C583.98 497.09 582.94 499.38 581.88 501.62C581.88 501.62 580.88 501.14 580.76 501.09ZM244.27 494.94C243.29 492.67 242.36 490.35 241.48 488.05C241.6 488.01 242.52 487.65 242.64 487.61C243.51 489.9 244.44 492.2 245.4 494.46C245.17 494.55 244.49 494.85 244.27 494.94ZM586.59 487.44C587.46 485.13 588.3 482.78 589.08 480.44C589.2 480.48 590.13 480.8 590.25 480.83C589.47 483.18 588.62 485.55 587.74 487.88C587.74 487.88 586.7 487.48 586.59 487.44ZM238.97 481.03C238.19 478.68 237.44 476.29 236.75 473.91C236.87 473.88 237.82 473.6 237.94 473.57C238.62 475.93 239.36 478.31 240.14 480.64C239.91 480.72 239.21 480.95 238.97 481.03ZM591.28 473.37C591.96 471.02 592.6 468.61 593.19 466.22C593.31 466.25 594.27 466.48 594.39 466.51C593.8 468.92 593.15 471.34 592.47 473.71C592.47 473.71 591.4 473.41 591.28 473.37ZM234.82 466.71C234.23 464.31 233.67 461.86 233.18 459.44C233.3 459.42 234.27 459.22 234.39 459.19C234.88 461.6 235.43 464.03 236.02 466.42C235.78 466.48 235.06 466.65 234.82 466.71ZM594.81 458.99C595.3 456.59 595.74 454.14 596.14 451.71C596.26 451.73 597.23 451.89 597.35 451.91C596.96 454.35 596.51 456.82 596.02 459.24C596.02 459.24 594.93 459.02 594.81 458.99ZM231.84 452.11C231.44 449.67 231.09 447.19 230.79 444.73C230.91 444.71 231.89 444.59 232.02 444.58C232.31 447.02 232.66 449.49 233.05 451.91C232.81 451.95 232.08 452.07 231.84 452.11ZM597.17 444.38C597.46 441.93 597.71 439.45 597.9 437.01C598.02 437.02 599.01 437.1 599.13 437.11C598.94 439.57 598.69 442.06 598.39 444.52C598.39 444.52 597.29 444.39 597.17 444.38ZM230.04 437.31C229.84 434.85 229.69 432.34 229.59 429.87C229.71 429.87 230.7 429.83 230.82 429.82C230.92 432.28 231.07 434.76 231.27 437.21C231.03 437.23 230.29 437.29 230.04 437.31ZM598.34 429.62C598.44 427.16 598.49 424.67 598.49 422.21C598.49 422.19 598.49 422.05 598.49 421.8L599.72 421.8C599.72 422.05 599.72 422.18 599.72 422.21C599.72 424.68 599.67 427.19 599.58 429.67C599.58 429.67 598.47 429.62 598.34 429.62ZM230.67 422.42L229.43 422.42C229.43 422.29 229.43 422.22 229.43 422.21C229.43 419.8 229.48 417.36 229.57 414.97C229.7 414.97 230.68 415.01 230.81 415.01C230.72 417.4 230.67 419.82 230.67 422.21C230.67 422.24 230.67 422.31 230.67 422.42ZM598.33 414.4C598.22 411.95 598.07 409.46 597.87 407.01C597.99 407 598.98 406.92 599.1 406.91C599.3 409.38 599.46 411.88 599.56 414.35C599.31 414.36 598.57 414.39 598.33 414.4ZM230.01 407.52C230.2 405.05 230.45 402.56 230.74 400.11C230.86 400.12 231.84 400.24 231.97 400.25C231.68 402.69 231.43 405.17 231.24 407.62C230.99 407.6 230.13 407.53 230.01 407.52ZM597.12 399.64C596.82 397.21 596.47 394.74 596.07 392.31C596.19 392.29 597.17 392.13 597.29 392.12C597.69 394.56 598.04 397.04 598.34 399.49C598.1 399.52 597.36 399.61 597.12 399.64ZM231.77 392.72C232.16 390.28 232.61 387.81 233.1 385.39C233.22 385.41 234.19 385.61 234.31 385.63C233.82 388.04 233.38 390.49 232.99 392.92C232.75 392.88 231.89 392.74 231.77 392.72ZM594.73 385.03C594.23 382.62 593.68 380.19 593.09 377.81C593.21 377.78 594.17 377.54 594.29 377.51C594.88 379.91 595.44 382.36 595.94 384.78C595.7 384.83 594.97 384.98 594.73 385.03ZM234.72 378.11C235.31 375.71 235.95 373.29 236.64 370.91C236.75 370.94 237.7 371.21 237.82 371.25C237.14 373.61 236.5 376.02 235.92 378.4C235.92 378.4 234.84 378.14 234.72 378.11ZM591.17 370.66C590.48 368.3 589.73 365.93 588.95 363.6C589.07 363.56 590 363.24 590.12 363.2C590.91 365.55 591.66 367.94 592.35 370.32C592.11 370.38 591.4 370.59 591.17 370.66ZM238.84 363.79C239.62 361.44 240.47 359.07 241.34 356.74C241.46 356.79 242.38 357.13 242.5 357.18C241.63 359.49 240.79 361.84 240.01 364.18C239.78 364.1 238.96 363.82 238.84 363.79ZM586.45 356.63C585.57 354.33 584.64 352.03 583.68 349.78C583.79 349.73 584.7 349.34 584.81 349.29C585.78 351.56 586.72 353.87 587.6 356.18C587.37 356.27 586.68 356.54 586.45 356.63ZM244.13 349.81C245.1 347.53 246.13 345.23 247.19 342.99C247.3 343.05 248.19 343.47 248.31 343.52C247.25 345.75 246.23 348.02 245.26 350.29C245.26 350.29 244.24 349.85 244.13 349.81ZM580.63 343.05C579.57 340.84 578.46 338.62 577.31 336.45C577.42 336.39 578.29 335.93 578.4 335.87C579.55 338.06 580.68 340.29 581.74 342.52C581.52 342.63 580.85 342.95 580.63 343.05ZM250.53 336.31C251.68 334.12 252.89 331.92 254.13 329.77C254.24 329.83 255.09 330.33 255.2 330.39C253.97 332.52 252.76 334.71 251.62 336.88C251.62 336.88 250.64 336.37 250.53 336.31ZM573.73 329.98C572.49 327.86 571.2 325.73 569.88 323.67C569.99 323.6 570.82 323.07 570.93 323C572.25 325.09 573.55 327.23 574.79 329.36C574.58 329.49 573.94 329.86 573.73 329.98ZM257.99 323.38C259.32 321.29 260.7 319.19 262.11 317.16C262.21 317.23 263.02 317.79 263.12 317.86C261.72 319.88 260.35 321.96 259.03 324.04C259.03 324.04 258.1 323.45 257.99 323.38ZM565.79 317.5C564.39 315.49 562.93 313.47 561.45 311.51C561.55 311.44 562.34 310.84 562.44 310.77C563.93 312.74 565.4 314.77 566.8 316.8C566.6 316.94 565.99 317.36 565.79 317.5ZM266.47 311.1C267.95 309.12 269.5 307.15 271.07 305.23C271.16 305.31 271.93 305.93 272.02 306.01C270.47 307.92 268.93 309.88 267.45 311.85C267.45 311.85 266.57 311.18 266.47 311.1ZM556.88 305.7C555.32 303.8 553.7 301.9 552.07 300.07C552.16 299.98 552.9 299.33 552.99 299.25C554.64 301.09 556.26 303 557.83 304.91C557.64 305.07 557.07 305.54 556.88 305.7ZM275.9 299.55C277.54 297.7 279.24 295.85 280.95 294.07C281.04 294.15 281.75 294.84 281.84 294.92C280.14 296.7 278.45 298.53 276.82 300.37C276.82 300.37 275.99 299.63 275.9 299.55ZM547.04 294.63C545.33 292.86 543.57 291.1 541.8 289.4C541.88 289.31 542.57 288.6 542.65 288.51C544.43 290.22 546.21 291.99 547.93 293.78C547.75 293.95 547.22 294.46 547.04 294.63ZM286.22 288.79C288 287.08 289.84 285.37 291.69 283.73C291.77 283.82 292.43 284.56 292.51 284.65C290.67 286.29 288.84 287.98 287.07 289.68C287.07 289.68 286.3 288.88 286.22 288.79ZM536.35 284.39C534.5 282.76 532.6 281.14 530.7 279.59C530.78 279.5 531.4 278.73 531.48 278.64C533.4 280.2 535.31 281.82 537.17 283.46C537 283.65 536.51 284.2 536.35 284.39ZM297.36 278.9C299.27 277.33 301.24 275.78 303.22 274.29C303.29 274.39 303.88 275.18 303.96 275.28C302 276.75 300.04 278.29 298.14 279.85C298.14 279.85 297.44 278.99 297.36 278.9ZM524.86 275.03C522.9 273.55 520.87 272.09 518.85 270.7C518.92 270.6 519.48 269.78 519.55 269.68C521.59 271.09 523.62 272.55 525.61 274.04C525.46 274.24 525.01 274.83 524.86 275.03ZM309.25 269.93C311.29 268.52 313.37 267.13 315.46 265.81C315.52 265.91 316.05 266.75 316.12 266.85C314.05 268.17 311.98 269.54 309.95 270.94C309.95 270.94 309.32 270.03 309.25 269.93ZM512.66 266.61C510.58 265.3 508.45 264.01 506.32 262.78C506.38 262.67 506.87 261.82 506.93 261.71C509.08 262.95 511.23 264.25 513.32 265.57C513.19 265.78 512.79 266.4 512.66 266.61ZM321.82 261.95C323.95 260.71 326.14 259.5 328.33 258.34C328.39 258.45 328.85 259.33 328.91 259.43C326.73 260.58 324.56 261.78 322.44 263.01C322.44 263.01 321.88 262.05 321.82 261.95ZM499.82 259.21C497.64 258.06 495.4 256.95 493.18 255.9C493.23 255.79 493.65 254.89 493.71 254.78C495.95 255.84 498.2 256.96 500.39 258.11C500.28 258.33 499.93 258.99 499.82 259.21ZM334.98 255.01C337.2 253.95 339.48 252.91 341.75 251.94C341.8 252.05 342.19 252.96 342.24 253.08C339.99 254.04 337.72 255.07 335.51 256.12C335.51 256.12 335.03 255.12 334.98 255.01ZM486.41 252.86C484.14 251.89 481.82 250.97 479.52 250.1C479.56 249.98 479.91 249.06 479.95 248.94C482.27 249.82 484.61 250.75 486.89 251.72C486.79 251.95 486.5 252.63 486.41 252.86ZM348.65 249.15C350.96 248.27 353.32 247.43 355.66 246.64C355.7 246.76 356.02 247.69 356.06 247.81C353.73 248.59 351.38 249.43 349.09 250.31C349.09 250.31 348.69 249.27 348.65 249.15ZM472.52 247.62C470.19 246.84 467.81 246.11 465.45 245.43C465.48 245.31 465.75 244.36 465.79 244.24C468.16 244.92 470.56 245.67 472.91 246.44C472.83 246.68 472.6 247.38 472.52 247.62ZM362.78 244.41C365.15 243.72 367.58 243.07 369.98 242.48C370.01 242.6 370.25 243.55 370.28 243.67C367.89 244.26 365.48 244.91 363.12 245.6C363.12 245.6 362.81 244.53 362.78 244.41ZM458.29 243.53C455.91 242.95 453.47 242.41 451.06 241.92C451.08 241.8 451.28 240.83 451.3 240.71C453.73 241.2 456.18 241.74 458.58 242.33C458.52 242.57 458.35 243.29 458.29 243.53ZM377.25 240.83C379.67 240.34 382.14 239.88 384.58 239.49C384.6 239.61 384.76 240.58 384.78 240.7C382.35 241.1 379.9 241.55 377.5 242.04C377.5 242.04 377.27 240.95 377.25 240.83ZM443.77 240.61C441.35 240.22 438.88 239.88 436.44 239.59C436.45 239.47 436.57 238.49 436.58 238.36C439.04 238.65 441.52 239 443.97 239.39C443.93 239.63 443.81 240.36 443.77 240.61ZM391.96 238.44C394.42 238.14 396.91 237.88 399.38 237.68C399.39 237.81 399.47 238.79 399.48 238.91C397.03 239.11 394.55 239.36 392.11 239.66C392.11 239.66 391.98 238.56 391.96 238.44ZM429.07 238.87C426.62 238.67 424.14 238.53 421.68 238.44C421.68 238.31 421.72 237.33 421.72 237.2C424.2 237.3 426.7 237.44 429.17 237.63C429.15 237.88 429.09 238.62 429.07 238.87ZM406.82 237.23C409.29 237.13 411.79 237.07 414.27 237.07C414.27 237.19 414.27 238.18 414.27 238.3C411.81 238.31 409.32 238.36 406.87 238.46C406.87 238.46 406.82 237.35 406.82 237.23Z" id="b1Djy8HoO6"></path><path d="M349.2 299.54C283.42 299.54 230.09 352.86 230.09 418.65C230.09 484.43 283.42 537.76 349.2 537.76C414.98 537.76 468.31 484.43 468.31 418.65C468.31 352.86 414.98 299.54 349.2 299.54Z" id="b1mOLsKKqp"></path><path d="M370.18 418.65C370.18 466.71 341.86 505.66 306.93 505.66C271.99 505.66 243.67 466.71 243.67 418.65C243.67 370.59 271.99 331.63 306.93 331.63C341.86 331.63 370.18 370.59 370.18 418.65Z" id="fPXxrdj0z"></path><path d="M303.61 437.08C303.61 452.42 295.71 464.85 285.96 464.85C276.21 464.85 268.3 452.42 268.3 437.08C268.3 421.74 276.21 409.31 285.96 409.31C295.71 409.31 303.61 421.74 303.61 437.08Z" id="b2BksyyQSO"></path><path d="M583.22 340.4C576.74 340.4 571.49 345.65 571.49 352.13C571.49 358.61 576.74 363.86 583.22 363.86C589.69 363.86 594.94 358.61 594.94 352.13C594.94 345.65 589.69 340.4 583.22 340.4Z" id="a1DQa2CXx"></path><path d="M447.77 222.65C438.22 222.65 430.49 230.39 430.49 239.93C430.49 249.48 438.22 257.21 447.77 257.21C457.31 257.21 465.05 249.48 465.05 239.93C465.05 230.39 457.31 222.65 447.77 222.65Z" id="bQwwu2z3U"></path><path d="M436.32 593.69C429.84 593.69 424.59 598.93 424.59 605.41C424.59 611.89 429.84 617.14 436.32 617.14C442.8 617.14 448.05 611.89 448.05 605.41C448.05 598.93 442.8 593.69 436.32 593.69Z" id="bbjKm1bg3"></path></defs><g><g><use xlink:href="#b1Djy8HoO6" opacity="1" fill="#cccccc" fill-opacity="1"></use><g><use xlink:href="#b1Djy8HoO6" opacity="1" fill-opacity="0" stroke="#000000" stroke-width="1" stroke-opacity="0"></use></g></g><g><use xlink:href="#b1mOLsKKqp" opacity="1" fill="#3f3d56" fill-opacity="1"></use><g><use xlink:href="#b1mOLsKKqp" opacity="1" fill-opacity="0" stroke="#000000" stroke-width="1" stroke-opacity="0"></use></g></g><g><use xlink:href="#fPXxrdj0z" opacity="1" fill="#ffffff" fill-opacity="1"></use><g><use xlink:href="#fPXxrdj0z" opacity="1" fill-opacity="0" stroke="#000000" stroke-width="1" stroke-opacity="0"></use></g></g><g><use xlink:href="#b2BksyyQSO" opacity="1" fill="#3f3d56" fill-opacity="1"></use><g><use xlink:href="#b2BksyyQSO" opacity="1" fill-opacity="0" stroke="#000000" stroke-width="1" stroke-opacity="0"></use></g></g><g><use xlink:href="#a1DQa2CXx" opacity="1" fill="#0c0c0c" fill-opacity="1"></use><g><use xlink:href="#a1DQa2CXx" opacity="1" fill-opacity="0" stroke="#000000" stroke-width="1" stroke-opacity="0"></use></g></g><g><use xlink:href="#bQwwu2z3U" opacity="1" fill="#0c0c0c" fill-opacity="1"></use><g><use xlink:href="#bQwwu2z3U" opacity="1" fill-opacity="0" stroke="#000000" stroke-width="1" stroke-opacity="0"></use></g></g><g><use xlink:href="#bbjKm1bg3" opacity="1" fill="#0c0c0c" fill-opacity="1"></use><g><use xlink:href="#bbjKm1bg3" opacity="1" fill-opacity="0" stroke="#000000" stroke-width="1" stroke-opacity="0"></use></g></g></g></svg>