<?xml version="1.0" encoding="UTF-8" standalone="no"?>
<!DOCTYPE svg PUBLIC "-//W3C//DTD SVG 1.1//EN" "http://www.w3.org/Graphics/SVG/1.1/DTD/svg11.dtd">
<svg version="1.1" xmlns="http://www.w3.org/2000/svg" xmlns:xlink="http://www.w3.org/1999/xlink" preserveAspectRatio="xMidYMid meet" viewBox="-0.5991656866959563 -1.0025754218762284 1012.1938572512737 701.6984219871445" width="1008.19" height="697.7"><defs><path d="M401.2 65.31C342.42 42.48 284.19 17.19 221.11 5.09C180.53 -2.69 134.13 -3.78 101.44 17.96C69.97 38.93 59.81 75.03 54.34 108.56C50.23 133.79 47.81 160.34 59.08 183.95C66.91 200.35 80.79 214.13 90.39 229.84C123.82 284.49 100.19 351.88 63.98 405.24C47 430.27 27.28 454.17 14.17 480.8C1.05 507.42 -5.01 537.97 6.47 565.15C17.83 592.12 44.93 612.33 74.28 626.56C133.89 655.46 204.1 663.74 272.62 668.43C424.25 678.8 576.67 674.31 728.7 669.81C784.96 668.15 841.47 666.46 896.81 657.76C927.55 652.93 959.28 645.26 981.6 626.8C1009.92 603.3 1016.94 563.51 997.96 534.04C966.12 484.62 878.12 472.35 855.84 419.3C843.6 390.11 856.17 357.58 873.98 330.51C912.16 272.43 976.17 221.46 979.53 155.07C981.85 109.46 951.08 63.79 903.51 42.22C853.64 19.6 784.49 22.45 747.71 59.89C709.82 98.4 643.24 113.23 586.17 111.25C521.54 109 459.98 88.14 401.2 65.31Z" id="m5iYQolyqw"></path><path d="M250.53 630C238.55 634.52 228.96 638.54 226.56 639.48C226.39 639.19 226.22 638.88 226.06 638.58C224.32 635.38 223.46 631.78 223.58 628.14C223.79 623.46 225.86 619.42 229.57 617.47C233.27 615.53 237.77 616.07 241.75 618.47C244.84 620.43 247.35 623.18 249.03 626.43C249.63 627.58 250.13 628.77 250.53 630Z" id="b1KuKptkp9"></path><path d="M239.32 608.02C243.71 616.34 242.13 625.8 235.78 629.15C229.43 632.5 220.72 628.48 216.33 620.17C211.93 611.85 213.52 602.39 219.87 599.04C226.22 595.68 234.93 599.71 239.32 608.02Z" id="l1o3QDprlD"></path><path d="M229.61 589.62C234 597.94 232.41 607.4 226.06 610.75C219.71 614.1 211 610.08 206.61 601.77C202.22 593.45 203.81 583.99 210.16 580.64C216.51 577.28 225.22 581.31 229.61 589.62Z" id="b8FYNWYKcl"></path><path d="M219.89 571.22C224.28 579.54 222.69 589 216.34 592.35C209.99 595.71 201.29 591.68 196.9 583.37C192.5 575.05 194.09 565.59 200.44 562.24C206.79 558.89 215.5 562.91 219.89 571.22Z" id="caWK1LKUw"></path><path d="M210.17 552.82C214.56 561.14 212.97 570.6 206.62 573.95C200.27 577.31 191.56 573.28 187.17 564.97C182.78 556.65 184.37 547.19 190.72 543.84C197.07 540.49 205.78 544.51 210.17 552.82Z" id="abKWskm0F"></path><path d="M81.52 451.76C83.36 450.36 92.55 443.37 109.11 430.78C89.58 441.29 78.73 447.12 76.56 448.29C62.95 437.85 54.23 422.26 52.47 405.2C56.19 405.17 74.8 405.03 108.31 404.79C74.64 399.78 55.93 397.01 52.19 396.45C53.48 362.07 82.41 335.25 116.79 336.55C151.17 337.85 177.99 366.77 176.69 401.15C176.58 404.14 176.25 407.11 175.71 410.05C179.8 411.87 183.69 414.13 187.29 416.78C185.4 419.52 175.91 433.22 158.84 457.87C179.49 436.19 190.95 424.15 193.25 421.75C208.52 436.23 215.45 457.45 211.68 478.16C243.12 492.13 257.28 528.95 243.3 560.39C229.33 591.83 192.51 605.99 161.07 592.01C134.79 580.33 119.92 552.17 125.1 523.88C98.84 512.19 83.99 484.06 89.15 455.78C86.5 454.59 83.96 453.26 81.52 451.76Z" id="d1gpJjQctF"></path><path d="M211.68 478.13C243.12 492.1 257.28 528.92 243.3 560.36C229.33 591.8 192.51 605.96 161.07 591.98C134.79 580.3 119.92 552.14 125.1 523.85C112.76 518.38 202.21 431.67 205.48 437.85C212.02 450.2 214.21 464.39 211.68 478.13Z" id="adtNXeW0t"></path><path d="M689.64 501.28C707.04 505.18 720.97 508.91 724.45 509.76C724.63 509.33 724.81 508.87 724.97 508.41C726.75 503.67 727.23 498.54 726.36 493.56C725.17 487.17 721.55 482.01 716.07 480.03C710.58 478.04 704.52 479.66 699.51 483.78C695.64 487.06 692.71 491.3 691.02 496.09C690.41 497.77 689.95 499.51 689.64 501.28Z" id="bjvwIfqPv"></path><path d="M725.92 452.86C735.29 456.26 739.28 468.97 734.82 481.24C730.37 493.51 719.15 500.7 709.78 497.3C700.41 493.89 696.42 481.18 700.88 468.91C705.34 456.64 716.55 449.45 725.92 452.86Z" id="d31Xu9637s"></path><path d="M734.67 424.9C744.04 428.29 748.04 440.99 743.6 453.26C739.16 465.53 727.97 472.73 718.59 469.34C709.22 465.95 705.22 453.25 709.66 440.98C714.1 428.71 725.29 421.51 734.67 424.9Z" id="b1fuL5DW3"></path><path d="M745.65 398.54C755.02 401.95 759.01 414.65 754.55 426.92C750.09 439.19 738.88 446.38 729.51 442.98C720.14 439.57 716.15 426.87 720.61 414.6C725.06 402.33 736.27 395.14 745.65 398.54Z" id="b1t5kow3oY"></path><path d="M755.51 371.39C764.88 374.79 768.86 387.5 764.41 399.77C759.95 412.04 748.74 419.23 739.37 415.83C729.99 412.42 726.01 399.71 730.47 387.44C734.92 375.17 746.13 367.98 755.51 371.39Z" id="b2PkrkmjR1"></path><path d="M888.2 223.87C885.4 222.3 871.42 214.46 846.25 200.35C875.12 211.08 891.15 217.04 894.36 218.23C911.11 201.28 920.14 178.19 919.32 154.37C914.2 155.04 888.57 158.4 842.43 164.44C887.79 151.13 913 143.73 918.04 142.25C909.68 95.21 864.77 63.85 817.73 72.21C770.7 80.57 739.34 125.47 747.7 172.51C748.41 176.56 749.42 180.56 750.71 184.46C745.43 187.75 740.52 191.59 736.06 195.92C739.19 199.32 754.83 216.36 783 247.02C750.48 221.13 732.41 206.74 728.8 203.87C710.55 226.71 705.07 257.21 714.22 284.98C673.65 310.2 661.21 363.53 686.43 404.1C711.66 444.67 764.99 457.11 805.56 431.89C839.45 410.82 854.52 369.3 842.05 331.4C875.95 310.32 891.04 268.78 878.56 230.86C881.88 228.76 885.13 226.42 888.2 223.87Z" id="a5TwMqmclA"></path><path d="M714.18 284.98C673.61 310.2 661.17 363.53 686.39 404.1C711.62 444.67 764.95 457.11 805.52 431.89C839.41 410.82 854.48 369.3 842.01 331.4C857.9 321.55 718.35 219.27 715.04 228.38C708.39 246.61 708.08 266.56 714.18 284.98Z" id="a2A1Q3UTci"></path><path d="M247.84 641.61C247.84 648.75 217.75 654.53 180.63 654.53C143.51 654.53 113.42 648.75 113.42 641.61C113.42 634.47 143.51 628.69 180.63 628.69C217.75 628.69 247.84 634.47 247.84 641.61Z" id="a1yihBIXdr"></path><path d="M187.33 636.12C187.33 641.78 183.83 646.36 179.51 646.36C175.18 646.36 171.68 641.78 171.68 636.12C171.68 630.46 175.18 625.87 179.51 625.87C183.83 625.87 187.33 630.46 187.33 636.12Z" id="ap18xFhY6"></path><path d="M187.33 623.6C187.33 629.25 183.83 633.84 179.51 633.84C175.18 633.84 171.68 629.25 171.68 623.6C171.68 617.94 175.18 613.35 179.51 613.35C183.83 613.35 187.33 617.94 187.33 623.6Z" id="bHotXWoyx"></path><path d="M187.33 611.07C187.33 616.73 183.83 621.32 179.51 621.32C175.18 621.32 171.68 616.73 171.68 611.07C171.68 605.41 175.18 600.83 179.51 600.83C183.83 600.83 187.33 605.41 187.33 611.07Z" id="j1re7pDR8H"></path><path d="M187.33 598.56C187.33 604.22 183.83 608.8 179.51 608.8C175.18 608.8 171.68 604.22 171.68 598.56C171.68 592.9 175.18 588.31 179.51 588.31C183.83 588.31 187.33 592.9 187.33 598.56Z" id="a2efT9hCtz"></path><path d="M187.33 586.04C187.33 591.69 183.83 596.28 179.51 596.28C175.18 596.28 171.68 591.69 171.68 586.04C171.68 580.38 175.18 575.79 179.51 575.79C183.83 575.79 187.33 580.38 187.33 586.04Z" id="a1mMowUP4"></path><path d="M187.33 573.51C187.33 579.17 183.83 583.76 179.51 583.76C175.18 583.76 171.68 579.17 171.68 573.51C171.68 567.85 175.18 563.27 179.51 563.27C183.83 563.27 187.33 567.85 187.33 573.51Z" id="c1qy0wPgvi"></path><path d="M187.33 561C187.33 566.66 183.83 571.25 179.51 571.25C175.18 571.25 171.68 566.66 171.68 561C171.68 555.34 175.18 550.75 179.51 550.75C183.83 550.75 187.33 555.34 187.33 561Z" id="d18MnW85wS"></path><path d="M211.71 471.05C210.34 470.82 203.49 469.7 191.16 467.67C204.5 467.78 211.91 467.83 213.39 467.84C217.71 458.46 217.97 447.72 214.11 438.14C212.12 439.17 202.18 444.33 184.28 453.61C200.79 441.48 209.96 434.75 211.79 433.4C201.44 415.47 178.51 409.33 160.58 419.68C142.65 430.03 136.51 452.96 146.86 470.89C147.76 472.45 148.76 473.93 149.87 475.34C148.2 477.46 146.77 479.75 145.59 482.17C147.37 483.1 156.27 487.72 172.28 496.05C155.21 490.31 145.72 487.13 143.82 486.49C139.76 498.49 142.04 511.73 149.87 521.69C137.08 537.96 139.9 561.53 156.17 574.32C172.44 587.12 196 584.3 208.8 568.03C219.49 554.43 219.49 535.29 208.8 521.69C219.49 508.09 219.49 488.94 208.8 475.34C209.87 473.98 210.85 472.55 211.71 471.05Z" id="c59eC42haK"></path><path d="M149.84 521.66C137.05 537.93 139.87 561.5 156.14 574.29C172.41 587.09 195.97 584.27 208.77 568C219.46 554.4 219.46 535.26 208.77 521.66C213.83 515.29 141.86 494.32 141.86 498.48C141.83 506.89 144.65 515.06 149.84 521.66Z" id="j2WH76zbj"></path><path d="M744.01 178.13C748.95 178.13 751.42 180.6 751.42 185.54C751.42 239.18 751.42 268.97 751.42 274.93C751.42 279.87 748.95 282.34 744.01 282.34C463.12 282.34 307.08 282.34 275.87 282.34C270.93 282.34 268.46 279.87 268.46 274.93C268.46 221.3 268.46 191.5 268.46 185.54C268.46 180.6 270.93 178.13 275.87 178.13C556.75 178.13 712.8 178.13 744.01 178.13Z" id="a1OxKNweNx"></path><path d="M309.33 52.08C309.33 52.08 316.19 238.66 304.03 260.5C345.15 260.5 674.1 260.5 715.22 260.5C715.22 260.5 697.75 116.98 715.22 52.08C634.04 52.08 390.51 52.08 309.33 52.08Z" id="dSfpDESju"></path><path d="M309.33 52.08C309.33 52.08 316.19 238.66 304.03 260.5C345.15 260.5 674.1 260.5 715.22 260.5C715.22 260.5 697.75 116.98 715.22 52.08C634.04 52.08 390.51 52.08 309.33 52.08Z" id="anHe4y6Ad"></path><path d="M652.83 252.55C652.83 252.55 652.83 252.55 652.83 252.55C652.83 275.02 652.83 287.5 652.83 289.99C652.83 289.99 652.83 289.99 652.83 289.99C472 289.99 371.54 289.99 351.44 289.99C351.44 289.99 351.44 289.99 351.44 289.99C351.44 267.53 351.44 255.05 351.44 252.55C351.44 252.55 351.44 252.55 351.44 252.55C532.28 252.55 632.74 252.55 652.83 252.55Z" id="b2HTUaDQnB"></path><path d="M228.41 693.26C211.96 693.26 198.63 679.93 198.63 663.48C198.63 662.38 198.69 661.28 198.81 660.19C199.95 649.89 209.09 567.53 210.23 557.23C210.99 550.39 211.53 543.53 211.86 536.65C213.15 494.77 213.87 471.5 214.01 466.84C214.75 443.19 216.89 424.37 217.2 419.65C218.06 411.51 219.06 403.39 220.2 395.29C229.01 333.88 233.91 299.77 234.89 292.95C238.76 266.47 261.46 246.83 288.22 246.81C290.45 246.81 308.3 246.81 310.53 246.81C321.85 246.85 332.86 250.55 341.9 257.37C365.01 274.61 430.66 287.06 508.06 287.06C585.45 287.06 651.11 274.61 674.27 257.33C683.31 250.51 694.32 246.81 705.64 246.77C709.25 246.77 738.17 246.77 741.78 246.77C757.46 246.77 770.88 258.03 773.6 273.47C775.57 284.66 791.35 374.14 793.32 385.32C796.32 402.38 797.9 416.15 798.41 419.58C800.72 438.64 802.18 457.78 802.77 477.01C803.97 515.93 804.63 537.55 804.77 541.87C805.19 555.4 806.36 568.89 808.27 582.29C809.33 589.71 817.81 649.08 818.87 656.5C821.41 674.08 809.21 690.39 791.63 692.93C790.1 693.15 788.56 693.26 787.02 693.26C787.02 693.26 284.27 693.26 228.41 693.26Z" id="b4aF2OqNN2"></path><path d="M755.2 434.3C768.49 434.3 775.14 440.94 775.14 454.23C775.14 567.91 775.14 631.06 775.14 643.69C775.14 656.98 768.49 663.62 755.2 663.62C459.02 663.62 294.47 663.62 261.57 663.62C248.28 663.62 241.63 656.98 241.63 643.69C241.63 530.01 241.63 466.86 241.63 454.23C241.63 440.94 248.28 434.3 261.57 434.3C557.75 434.3 722.3 434.3 755.2 434.3Z" id="h9wbCDl1jB"></path><path d="M291.24 461.12C291.24 468.19 284.39 473.92 275.95 473.92C267.5 473.92 260.66 468.19 260.66 461.12C260.66 454.06 267.5 448.33 275.95 448.33C284.39 448.33 291.24 454.06 291.24 461.12Z" id="h8JTonEA41"></path><path d="M291.24 461.12C291.24 468.19 284.39 473.92 275.95 473.92C267.5 473.92 260.66 468.19 260.66 461.12C260.66 454.06 267.5 448.33 275.95 448.33C284.39 448.33 291.24 454.06 291.24 461.12Z" id="c1QOEzgM61"></path><path d="M291.24 458.32C291.24 465.38 284.39 471.11 275.95 471.11C267.5 471.11 260.66 465.38 260.66 458.32C260.66 451.25 267.5 445.52 275.95 445.52C284.39 445.52 291.24 451.25 291.24 458.32Z" id="a6c24LiUoc"></path><path d="M309.33 505.74C309.33 512.81 302.49 518.54 294.04 518.54C285.6 518.54 278.75 512.81 278.75 505.74C278.75 498.68 285.6 492.95 294.04 492.95C302.49 492.95 309.33 498.68 309.33 505.74Z" id="a2ZLHLMmG8"></path><path d="M309.33 505.74C309.33 512.81 302.49 518.54 294.04 518.54C285.6 518.54 278.75 512.81 278.75 505.74C278.75 498.68 285.6 492.95 294.04 492.95C302.49 492.95 309.33 498.68 309.33 505.74Z" id="c1v2veFSh1"></path><path d="M309.33 502.94C309.33 510 302.49 515.73 294.04 515.73C285.6 515.73 278.75 510 278.75 502.94C278.75 495.87 285.6 490.14 294.04 490.14C302.49 490.14 309.33 495.87 309.33 502.94Z" id="b1gxyDsSgM"></path><path d="M319.32 550.36C319.32 557.43 312.47 563.16 304.03 563.16C295.58 563.16 288.74 557.43 288.74 550.36C288.74 543.3 295.58 537.57 304.03 537.57C312.47 537.57 319.32 543.3 319.32 550.36Z" id="b2PrJXQVf"></path><path d="M319.32 550.36C319.32 557.43 312.47 563.16 304.03 563.16C295.58 563.16 288.74 557.43 288.74 550.36C288.74 543.3 295.58 537.57 304.03 537.57C312.47 537.57 319.32 543.3 319.32 550.36Z" id="b2a0Edppgs"></path><path d="M319.32 547.56C319.32 554.62 312.47 560.35 304.03 560.35C295.58 560.35 288.74 554.62 288.74 547.56C288.74 540.49 295.58 534.76 304.03 534.76C312.47 534.76 319.32 540.49 319.32 547.56Z" id="b2wSanAPm"></path><path d="M280.63 555.67C280.63 562.73 273.78 568.46 265.34 568.46C256.9 568.46 250.05 562.73 250.05 555.67C250.05 548.6 256.9 542.87 265.34 542.87C273.78 542.87 280.63 548.6 280.63 555.67Z" id="cjMqzGPu9"></path><path d="M280.63 555.67C280.63 562.73 273.78 568.46 265.34 568.46C256.9 568.46 250.05 562.73 250.05 555.67C250.05 548.6 256.9 542.87 265.34 542.87C273.78 542.87 280.63 548.6 280.63 555.67Z" id="bKc2xCfwy"></path><path d="M280.63 552.86C280.63 559.93 273.78 565.65 265.34 565.65C256.9 565.65 250.05 559.93 250.05 552.86C250.05 545.79 256.9 540.07 265.34 540.07C273.78 540.07 280.63 545.79 280.63 552.86Z" id="a3EBy1wetx"></path><path d="M338.03 594.97C338.03 602.04 331.19 607.77 322.74 607.77C314.3 607.77 307.45 602.04 307.45 594.97C307.45 587.91 314.3 582.18 322.74 582.18C331.19 582.18 338.03 587.91 338.03 594.97Z" id="d2nLdU3g9k"></path><path d="M338.03 594.97C338.03 602.04 331.19 607.77 322.74 607.77C314.3 607.77 307.45 602.04 307.45 594.97C307.45 587.91 314.3 582.18 322.74 582.18C331.19 582.18 338.03 587.91 338.03 594.97Z" id="aEjeD8XDe"></path><path d="M338.03 592.17C338.03 599.23 331.19 604.96 322.74 604.96C314.3 604.96 307.45 599.23 307.45 592.17C307.45 585.1 314.3 579.37 322.74 579.37C331.19 579.37 338.03 585.1 338.03 592.17Z" id="a40w15ZFcO"></path><path d="M286.87 596.54C286.87 603.61 280.03 609.33 271.58 609.33C263.14 609.33 256.29 603.61 256.29 596.54C256.29 589.48 263.14 583.75 271.58 583.75C280.03 583.75 286.87 589.48 286.87 596.54Z" id="b1hV2en1f0"></path><path d="M286.87 596.54C286.87 603.61 280.03 609.33 271.58 609.33C263.14 609.33 256.29 603.61 256.29 596.54C256.29 589.48 263.14 583.75 271.58 583.75C280.03 583.75 286.87 589.48 286.87 596.54Z" id="e7okPOpsN"></path><path d="M286.87 593.73C286.87 600.79 280.03 606.52 271.58 606.52C263.14 606.52 256.29 600.79 256.29 593.73C256.29 586.66 263.14 580.93 271.58 580.93C280.03 580.93 286.87 586.66 286.87 593.73Z" id="bgnMvfkPB"></path><path d="M380.16 594.97C380.16 602.04 373.31 607.77 364.87 607.77C356.42 607.77 349.58 602.04 349.58 594.97C349.58 587.91 356.42 582.18 364.87 582.18C373.31 582.18 380.16 587.91 380.16 594.97Z" id="ffQUhCm3Y"></path><path d="M380.16 594.97C380.16 602.04 373.31 607.77 364.87 607.77C356.42 607.77 349.58 602.04 349.58 594.97C349.58 587.91 356.42 582.18 364.87 582.18C373.31 582.18 380.16 587.91 380.16 594.97Z" id="b17OuaxLKv"></path><path d="M380.16 592.17C380.16 599.23 373.31 604.96 364.87 604.96C356.42 604.96 349.58 599.23 349.58 592.17C349.58 585.1 356.42 579.37 364.87 579.37C373.31 579.37 380.16 585.1 380.16 592.17Z" id="dXa2vHNPV"></path><path d="M424.77 594.97C424.77 602.04 417.92 607.77 409.48 607.77C401.03 607.77 394.19 602.04 394.19 594.97C394.19 587.91 401.03 582.18 409.48 582.18C417.92 582.18 424.77 587.91 424.77 594.97Z" id="bufbWyNYj"></path><path d="M424.77 594.97C424.77 602.04 417.92 607.77 409.48 607.77C401.03 607.77 394.19 602.04 394.19 594.97C394.19 587.91 401.03 582.18 409.48 582.18C417.92 582.18 424.77 587.91 424.77 594.97Z" id="alP0CtvTz"></path><path d="M424.77 592.17C424.77 599.23 417.92 604.96 409.48 604.96C401.03 604.96 394.19 599.23 394.19 592.17C394.19 585.1 401.03 579.37 409.48 579.37C417.92 579.37 424.77 585.1 424.77 592.17Z" id="e2s2eHuM9x"></path><path d="M465.95 594.97C465.95 602.04 459.11 607.77 450.66 607.77C442.22 607.77 435.37 602.04 435.37 594.97C435.37 587.91 442.22 582.18 450.66 582.18C459.11 582.18 465.95 587.91 465.95 594.97Z" id="d4f420kzER"></path><path d="M465.95 594.97C465.95 602.04 459.11 607.77 450.66 607.77C442.22 607.77 435.37 602.04 435.37 594.97C435.37 587.91 442.22 582.18 450.66 582.18C459.11 582.18 465.95 587.91 465.95 594.97Z" id="d3Ey5trmu"></path><path d="M465.95 592.17C465.95 599.23 459.11 604.96 450.66 604.96C442.22 604.96 435.37 599.23 435.37 592.17C435.37 585.1 442.22 579.37 450.66 579.37C459.11 579.37 465.95 585.1 465.95 592.17Z" id="a1OUkyExvf"></path><path d="M511.5 594.97C511.5 602.04 504.66 607.77 496.21 607.77C487.77 607.77 480.92 602.04 480.92 594.97C480.92 587.91 487.77 582.18 496.21 582.18C504.66 582.18 511.5 587.91 511.5 594.97Z" id="diGZjZ0eM"></path><path d="M511.5 594.97C511.5 602.04 504.66 607.77 496.21 607.77C487.77 607.77 480.92 602.04 480.92 594.97C480.92 587.91 487.77 582.18 496.21 582.18C504.66 582.18 511.5 587.91 511.5 594.97Z" id="a18nOda9my"></path><path d="M511.5 592.17C511.5 599.23 504.66 604.96 496.21 604.96C487.77 604.96 480.92 599.23 480.92 592.17C480.92 585.1 487.77 579.37 496.21 579.37C504.66 579.37 511.5 585.1 511.5 592.17Z" id="aSngKLDyb"></path><path d="M552.69 594.97C552.69 602.04 545.84 607.77 537.4 607.77C528.95 607.77 522.11 602.04 522.11 594.97C522.11 587.91 528.95 582.18 537.4 582.18C545.84 582.18 552.69 587.91 552.69 594.97Z" id="bLxfTsnfZ"></path><path d="M552.69 594.97C552.69 602.04 545.84 607.77 537.4 607.77C528.95 607.77 522.11 602.04 522.11 594.97C522.11 587.91 528.95 582.18 537.4 582.18C545.84 582.18 552.69 587.91 552.69 594.97Z" id="a3IsKvA9hv"></path><path d="M552.69 592.17C552.69 599.23 545.84 604.96 537.4 604.96C528.95 604.96 522.11 599.23 522.11 592.17C522.11 585.1 528.95 579.37 537.4 579.37C545.84 579.37 552.69 585.1 552.69 592.17Z" id="c8gEl6OQU"></path><path d="M593.55 594.97C593.55 602.04 586.71 607.77 578.26 607.77C569.82 607.77 562.97 602.04 562.97 594.97C562.97 587.91 569.82 582.18 578.26 582.18C586.71 582.18 593.55 587.91 593.55 594.97Z" id="e91jtO5IA"></path><path d="M593.55 594.97C593.55 602.04 586.71 607.77 578.26 607.77C569.82 607.77 562.97 602.04 562.97 594.97C562.97 587.91 569.82 582.18 578.26 582.18C586.71 582.18 593.55 587.91 593.55 594.97Z" id="b1tZJ2chsO"></path><path d="M593.55 592.17C593.55 599.23 586.71 604.96 578.26 604.96C569.82 604.96 562.97 599.23 562.97 592.17C562.97 585.1 569.82 579.37 578.26 579.37C586.71 579.37 593.55 585.1 593.55 592.17Z" id="btqlU0F0p"></path><path d="M637.86 594.97C637.86 602.04 631.02 607.77 622.57 607.77C614.13 607.77 607.28 602.04 607.28 594.97C607.28 587.91 614.13 582.18 622.57 582.18C631.02 582.18 637.86 587.91 637.86 594.97Z" id="alaWBYzC"></path><path d="M637.86 594.97C637.86 602.04 631.02 607.77 622.57 607.77C614.13 607.77 607.28 602.04 607.28 594.97C607.28 587.91 614.13 582.18 622.57 582.18C631.02 582.18 637.86 587.91 637.86 594.97Z" id="aia7cGotM"></path><path d="M637.86 592.17C637.86 599.23 631.02 604.96 622.57 604.96C614.13 604.96 607.28 599.23 607.28 592.17C607.28 585.1 614.13 579.37 622.57 579.37C631.02 579.37 637.86 585.1 637.86 592.17Z" id="b9kpIEBK4A"></path><path d="M679.36 594.97C679.36 602.04 672.51 607.77 664.07 607.77C655.62 607.77 648.78 602.04 648.78 594.97C648.78 587.91 655.62 582.18 664.07 582.18C672.51 582.18 679.36 587.91 679.36 594.97Z" id="a5HvcIZv9e"></path><path d="M679.36 594.97C679.36 602.04 672.51 607.77 664.07 607.77C655.62 607.77 648.78 602.04 648.78 594.97C648.78 587.91 655.62 582.18 664.07 582.18C672.51 582.18 679.36 587.91 679.36 594.97Z" id="a7R18BdL8"></path><path d="M679.36 592.17C679.36 599.23 672.51 604.96 664.07 604.96C655.62 604.96 648.78 599.23 648.78 592.17C648.78 585.1 655.62 579.37 664.07 579.37C672.51 579.37 679.36 585.1 679.36 592.17Z" id="a3wkykW4Pm"></path><path d="M725.21 594.97C725.21 602.04 718.37 607.77 709.92 607.77C701.48 607.77 694.64 602.04 694.64 594.97C694.64 587.91 701.48 582.18 709.92 582.18C718.37 582.18 725.21 587.91 725.21 594.97Z" id="a5wcEhfQAV"></path><path d="M725.21 594.97C725.21 602.04 718.37 607.77 709.92 607.77C701.48 607.77 694.64 602.04 694.64 594.97C694.64 587.91 701.48 582.18 709.92 582.18C718.37 582.18 725.21 587.91 725.21 594.97Z" id="a11lPuoAD"></path><path d="M725.21 592.17C725.21 599.23 718.37 604.96 709.92 604.96C701.48 604.96 694.64 599.23 694.64 592.17C694.64 585.1 701.48 579.37 709.92 579.37C718.37 579.37 725.21 585.1 725.21 592.17Z" id="a55UkYCwHI"></path><path d="M772.33 594.97C772.33 602.04 765.49 607.77 757.04 607.77C748.6 607.77 741.75 602.04 741.75 594.97C741.75 587.91 748.6 582.18 757.04 582.18C765.49 582.18 772.33 587.91 772.33 594.97Z" id="c3wVUxRW"></path><path d="M772.33 594.97C772.33 602.04 765.49 607.77 757.04 607.77C748.6 607.77 741.75 602.04 741.75 594.97C741.75 587.91 748.6 582.18 757.04 582.18C765.49 582.18 772.33 587.91 772.33 594.97Z" id="j3pHgvTGc1"></path><path d="M772.33 592.17C772.33 599.23 765.49 604.96 757.04 604.96C748.6 604.96 741.75 599.23 741.75 592.17C741.75 585.1 748.6 579.37 757.04 579.37C765.49 579.37 772.33 585.1 772.33 592.17Z" id="a2q81HPUIQ"></path><path d="M361.75 550.36C361.75 557.43 354.91 563.16 346.46 563.16C338.02 563.16 331.17 557.43 331.17 550.36C331.17 543.3 338.02 537.57 346.46 537.57C354.91 537.57 361.75 543.3 361.75 550.36Z" id="d1CPjRPqiS"></path><path d="M361.75 550.36C361.75 557.43 354.91 563.16 346.46 563.16C338.02 563.16 331.17 557.43 331.17 550.36C331.17 543.3 338.02 537.57 346.46 537.57C354.91 537.57 361.75 543.3 361.75 550.36Z" id="a1wMXRK0vi"></path><path d="M361.75 547.56C361.75 554.62 354.91 560.35 346.46 560.35C338.02 560.35 331.17 554.62 331.17 547.56C331.17 540.49 338.02 534.76 346.46 534.76C354.91 534.76 361.75 540.49 361.75 547.56Z" id="c2zB9sXUUs"></path><path d="M404.17 550.36C404.17 557.43 397.33 563.16 388.88 563.16C380.44 563.16 373.6 557.43 373.6 550.36C373.6 543.3 380.44 537.57 388.88 537.57C397.33 537.57 404.17 543.3 404.17 550.36Z" id="a9VbC6QU4"></path><path d="M404.17 550.36C404.17 557.43 397.33 563.16 388.88 563.16C380.44 563.16 373.6 557.43 373.6 550.36C373.6 543.3 380.44 537.57 388.88 537.57C397.33 537.57 404.17 543.3 404.17 550.36Z" id="bY1TM5h8h"></path><path d="M404.17 547.56C404.17 554.62 397.33 560.35 388.88 560.35C380.44 560.35 373.6 554.62 373.6 547.56C373.6 540.49 380.44 534.76 388.88 534.76C397.33 534.76 404.17 540.49 404.17 547.56Z" id="b2mXxz8cOT"></path><path d="M447.86 550.36C447.86 557.43 441.01 563.16 432.57 563.16C424.12 563.16 417.28 557.43 417.28 550.36C417.28 543.3 424.12 537.57 432.57 537.57C441.01 537.57 447.86 543.3 447.86 550.36Z" id="b3jt7QvMeJ"></path><path d="M447.86 550.36C447.86 557.43 441.01 563.16 432.57 563.16C424.12 563.16 417.28 557.43 417.28 550.36C417.28 543.3 424.12 537.57 432.57 537.57C441.01 537.57 447.86 543.3 447.86 550.36Z" id="b32AsOkJu"></path><path d="M447.86 547.56C447.86 554.62 441.01 560.35 432.57 560.35C424.12 560.35 417.28 554.62 417.28 547.56C417.28 540.49 424.12 534.76 432.57 534.76C441.01 534.76 447.86 540.49 447.86 547.56Z" id="a3jhAVVHeq"></path><path d="M489.66 550.36C489.66 557.43 482.81 563.16 474.37 563.16C465.93 563.16 459.08 557.43 459.08 550.36C459.08 543.3 465.93 537.57 474.37 537.57C482.81 537.57 489.66 543.3 489.66 550.36Z" id="d7aB297ne"></path><path d="M489.66 550.36C489.66 557.43 482.81 563.16 474.37 563.16C465.93 563.16 459.08 557.43 459.08 550.36C459.08 543.3 465.93 537.57 474.37 537.57C482.81 537.57 489.66 543.3 489.66 550.36Z" id="e3uW34JpZy"></path><path d="M489.66 547.56C489.66 554.62 482.81 560.35 474.37 560.35C465.93 560.35 459.08 554.62 459.08 547.56C459.08 540.49 465.93 534.76 474.37 534.76C482.81 534.76 489.66 540.49 489.66 547.56Z" id="a41U51gfn3"></path><path d="M532.4 550.36C532.4 557.43 525.56 563.16 517.11 563.16C508.67 563.16 501.82 557.43 501.82 550.36C501.82 543.3 508.67 537.57 517.11 537.57C525.56 537.57 532.4 543.3 532.4 550.36Z" id="h3OneIhtp5"></path><path d="M532.4 550.36C532.4 557.43 525.56 563.16 517.11 563.16C508.67 563.16 501.82 557.43 501.82 550.36C501.82 543.3 508.67 537.57 517.11 537.57C525.56 537.57 532.4 543.3 532.4 550.36Z" id="a1XCrDrLpc"></path><path d="M532.4 547.56C532.4 554.62 525.56 560.35 517.11 560.35C508.67 560.35 501.82 554.62 501.82 547.56C501.82 540.49 508.67 534.76 517.11 534.76C525.56 534.76 532.4 540.49 532.4 547.56Z" id="h2dfXQX8SX"></path><path d="M573.28 550.36C573.28 557.43 566.43 563.16 557.99 563.16C549.54 563.16 542.7 557.43 542.7 550.36C542.7 543.3 549.54 537.57 557.99 537.57C566.43 537.57 573.28 543.3 573.28 550.36Z" id="cl8RyJoYr"></path><path d="M573.28 550.36C573.28 557.43 566.43 563.16 557.99 563.16C549.54 563.16 542.7 557.43 542.7 550.36C542.7 543.3 549.54 537.57 557.99 537.57C566.43 537.57 573.28 543.3 573.28 550.36Z" id="a2rycGxJEm"></path><path d="M573.28 547.56C573.28 554.62 566.43 560.35 557.99 560.35C549.54 560.35 542.7 554.62 542.7 547.56C542.7 540.49 549.54 534.76 557.99 534.76C566.43 534.76 573.28 540.49 573.28 547.56Z" id="f1cOYu5QGk"></path><path d="M617.58 550.36C617.58 557.43 610.73 563.16 602.29 563.16C593.84 563.16 587 557.43 587 550.36C587 543.3 593.84 537.57 602.29 537.57C610.73 537.57 617.58 543.3 617.58 550.36Z" id="c178OaDiHd"></path><path d="M617.58 550.36C617.58 557.43 610.73 563.16 602.29 563.16C593.84 563.16 587 557.43 587 550.36C587 543.3 593.84 537.57 602.29 537.57C610.73 537.57 617.58 543.3 617.58 550.36Z" id="e9V0NYcXW"></path><path d="M617.58 547.56C617.58 554.62 610.73 560.35 602.29 560.35C593.84 560.35 587 554.62 587 547.56C587 540.49 593.84 534.76 602.29 534.76C610.73 534.76 617.58 540.49 617.58 547.56Z" id="aLMriWsGX"></path><path d="M659.7 550.36C659.7 557.43 652.86 563.16 644.41 563.16C635.97 563.16 629.12 557.43 629.12 550.36C629.12 543.3 635.97 537.57 644.41 537.57C652.86 537.57 659.7 543.3 659.7 550.36Z" id="a48qrwYJm"></path><path d="M659.7 550.36C659.7 557.43 652.86 563.16 644.41 563.16C635.97 563.16 629.12 557.43 629.12 550.36C629.12 543.3 635.97 537.57 644.41 537.57C652.86 537.57 659.7 543.3 659.7 550.36Z" id="bjKWuDF9c"></path><path d="M659.7 547.56C659.7 554.62 652.86 560.35 644.41 560.35C635.97 560.35 629.12 554.62 629.12 547.56C629.12 540.49 635.97 534.76 644.41 534.76C652.86 534.76 659.7 540.49 659.7 547.56Z" id="dG5RtEfbY"></path><path d="M702.75 550.36C702.75 557.43 695.91 563.16 687.47 563.16C679.02 563.16 672.18 557.43 672.18 550.36C672.18 543.3 679.02 537.57 687.47 537.57C695.91 537.57 702.75 543.3 702.75 550.36Z" id="acC6MhlOM"></path><path d="M702.75 550.36C702.75 557.43 695.91 563.16 687.47 563.16C679.02 563.16 672.18 557.43 672.18 550.36C672.18 543.3 679.02 537.57 687.47 537.57C695.91 537.57 702.75 543.3 702.75 550.36Z" id="b9VRXMQNH"></path><path d="M702.75 547.56C702.75 554.62 695.91 560.35 687.47 560.35C679.02 560.35 672.18 554.62 672.18 547.56C672.18 540.49 679.02 534.76 687.47 534.76C695.91 534.76 702.75 540.49 702.75 547.56Z" id="a1SqmuRVx"></path><path d="M745.81 550.36C745.81 557.43 738.96 563.16 730.52 563.16C722.07 563.16 715.23 557.43 715.23 550.36C715.23 543.3 722.07 537.57 730.52 537.57C738.96 537.57 745.81 543.3 745.81 550.36Z" id="dsBHipX4"></path><path d="M745.81 550.36C745.81 557.43 738.96 563.16 730.52 563.16C722.07 563.16 715.23 557.43 715.23 550.36C715.23 543.3 722.07 537.57 730.52 537.57C738.96 537.57 745.81 543.3 745.81 550.36Z" id="a2eIWbRPG"></path><path d="M745.81 547.56C745.81 554.62 738.96 560.35 730.52 560.35C722.07 560.35 715.23 554.62 715.23 547.56C715.23 540.49 722.07 534.76 730.52 534.76C738.96 534.76 745.81 540.49 745.81 547.56Z" id="d4RXlSsNi"></path><path d="M352.38 505.74C352.38 512.81 345.54 518.54 337.09 518.54C328.65 518.54 321.8 512.81 321.8 505.74C321.8 498.68 328.65 492.95 337.09 492.95C345.54 492.95 352.38 498.68 352.38 505.74Z" id="ab5BSZLD"></path><path d="M352.38 505.74C352.38 512.81 345.54 518.54 337.09 518.54C328.65 518.54 321.8 512.81 321.8 505.74C321.8 498.68 328.65 492.95 337.09 492.95C345.54 492.95 352.38 498.68 352.38 505.74Z" id="b11NpSKXkk"></path><path d="M352.38 502.94C352.38 510 345.54 515.73 337.09 515.73C328.65 515.73 321.8 510 321.8 502.94C321.8 495.87 328.65 490.14 337.09 490.14C345.54 490.14 352.38 495.87 352.38 502.94Z" id="a6ijqDMzc0"></path><path d="M395.45 505.74C395.45 512.81 388.6 518.54 380.16 518.54C371.71 518.54 364.87 512.81 364.87 505.74C364.87 498.68 371.71 492.95 380.16 492.95C388.6 492.95 395.45 498.68 395.45 505.74Z" id="bk12SxUDi"></path><path d="M395.45 505.74C395.45 512.81 388.6 518.54 380.16 518.54C371.71 518.54 364.87 512.81 364.87 505.74C364.87 498.68 371.71 492.95 380.16 492.95C388.6 492.95 395.45 498.68 395.45 505.74Z" id="a9ZA2lC7u2"></path><path d="M395.45 502.94C395.45 510 388.6 515.73 380.16 515.73C371.71 515.73 364.87 510 364.87 502.94C364.87 495.87 371.71 490.14 380.16 490.14C388.6 490.14 395.45 495.87 395.45 502.94Z" id="a34N5xPmG"></path><path d="M436.94 505.74C436.94 512.81 430.1 518.54 421.65 518.54C413.21 518.54 406.36 512.81 406.36 505.74C406.36 498.68 413.21 492.95 421.65 492.95C430.1 492.95 436.94 498.68 436.94 505.74Z" id="cHbFptRD9"></path><path d="M436.94 505.74C436.94 512.81 430.1 518.54 421.65 518.54C413.21 518.54 406.36 512.81 406.36 505.74C406.36 498.68 413.21 492.95 421.65 492.95C430.1 492.95 436.94 498.68 436.94 505.74Z" id="a4L5cHhH6l"></path><path d="M436.94 502.94C436.94 510 430.1 515.73 421.65 515.73C413.21 515.73 406.36 510 406.36 502.94C406.36 495.87 413.21 490.14 421.65 490.14C430.1 490.14 436.94 495.87 436.94 502.94Z" id="dc2GXEy8JN"></path><path d="M478.43 505.74C478.43 512.81 471.59 518.54 463.15 518.54C454.7 518.54 447.86 512.81 447.86 505.74C447.86 498.68 454.7 492.95 463.15 492.95C471.59 492.95 478.43 498.68 478.43 505.74Z" id="buYBRaNx2"></path><path d="M478.43 505.74C478.43 512.81 471.59 518.54 463.15 518.54C454.7 518.54 447.86 512.81 447.86 505.74C447.86 498.68 454.7 492.95 463.15 492.95C471.59 492.95 478.43 498.68 478.43 505.74Z" id="f11FksK51t"></path><path d="M478.43 502.94C478.43 510 471.59 515.73 463.15 515.73C454.7 515.73 447.86 510 447.86 502.94C447.86 495.87 454.7 490.14 463.15 490.14C471.59 490.14 478.43 495.87 478.43 502.94Z" id="i62Fhlc3db"></path><path d="M520.24 505.74C520.24 512.81 513.39 518.54 504.95 518.54C496.51 518.54 489.66 512.81 489.66 505.74C489.66 498.68 496.51 492.95 504.95 492.95C513.39 492.95 520.24 498.68 520.24 505.74Z" id="c2P53p3fgl"></path><path d="M520.24 505.74C520.24 512.81 513.39 518.54 504.95 518.54C496.51 518.54 489.66 512.81 489.66 505.74C489.66 498.68 496.51 492.95 504.95 492.95C513.39 492.95 520.24 498.68 520.24 505.74Z" id="bz3f4kVdF"></path><path d="M520.24 502.94C520.24 510 513.39 515.73 504.95 515.73C496.51 515.73 489.66 510 489.66 502.94C489.66 495.87 496.51 490.14 504.95 490.14C513.39 490.14 520.24 495.87 520.24 502.94Z" id="f3lY6Zulud"></path><path d="M561.42 505.74C561.42 512.81 554.58 518.54 546.13 518.54C537.69 518.54 530.84 512.81 530.84 505.74C530.84 498.68 537.69 492.95 546.13 492.95C554.58 492.95 561.42 498.68 561.42 505.74Z" id="b5Rb4iJP0Q"></path><path d="M561.42 505.74C561.42 512.81 554.58 518.54 546.13 518.54C537.69 518.54 530.84 512.81 530.84 505.74C530.84 498.68 537.69 492.95 546.13 492.95C554.58 492.95 561.42 498.68 561.42 505.74Z" id="b1Az7VtYPi"></path><path d="M561.42 502.94C561.42 510 554.58 515.73 546.13 515.73C537.69 515.73 530.84 510 530.84 502.94C530.84 495.87 537.69 490.14 546.13 490.14C554.58 490.14 561.42 495.87 561.42 502.94Z" id="bxcUfq5D"></path><path d="M605.1 505.74C605.1 512.81 598.25 518.54 589.81 518.54C581.36 518.54 574.52 512.81 574.52 505.74C574.52 498.68 581.36 492.95 589.81 492.95C598.25 492.95 605.1 498.68 605.1 505.74Z" id="a1E8tN2ag"></path><path d="M605.1 505.74C605.1 512.81 598.25 518.54 589.81 518.54C581.36 518.54 574.52 512.81 574.52 505.74C574.52 498.68 581.36 492.95 589.81 492.95C598.25 492.95 605.1 498.68 605.1 505.74Z" id="d3xV9RoBK"></path><path d="M605.1 502.94C605.1 510 598.25 515.73 589.81 515.73C581.36 515.73 574.52 510 574.52 502.94C574.52 495.87 581.36 490.14 589.81 490.14C598.25 490.14 605.1 495.87 605.1 502.94Z" id="cSVIXusF"></path><path d="M646.28 505.74C646.28 512.81 639.43 518.54 630.99 518.54C622.55 518.54 615.7 512.81 615.7 505.74C615.7 498.68 622.55 492.95 630.99 492.95C639.43 492.95 646.28 498.68 646.28 505.74Z" id="b7OEKGUJb"></path><path d="M646.28 505.74C646.28 512.81 639.43 518.54 630.99 518.54C622.55 518.54 615.7 512.81 615.7 505.74C615.7 498.68 622.55 492.95 630.99 492.95C639.43 492.95 646.28 498.68 646.28 505.74Z" id="a12XPxYJgS"></path><path d="M646.28 502.94C646.28 510 639.43 515.73 630.99 515.73C622.55 515.73 615.7 510 615.7 502.94C615.7 495.87 622.55 490.14 630.99 490.14C639.43 490.14 646.28 495.87 646.28 502.94Z" id="b10Jhwa80z"></path><path d="M690.27 505.74C690.27 512.81 683.43 518.54 674.98 518.54C666.54 518.54 659.69 512.81 659.69 505.74C659.69 498.68 666.54 492.95 674.98 492.95C683.43 492.95 690.27 498.68 690.27 505.74Z" id="aHfbF74EX"></path><path d="M690.27 505.74C690.27 512.81 683.43 518.54 674.98 518.54C666.54 518.54 659.69 512.81 659.69 505.74C659.69 498.68 666.54 492.95 674.98 492.95C683.43 492.95 690.27 498.68 690.27 505.74Z" id="a6t0mPxfnJ"></path><path d="M690.27 502.94C690.27 510 683.43 515.73 674.98 515.73C666.54 515.73 659.69 510 659.69 502.94C659.69 495.87 666.54 490.14 674.98 490.14C683.43 490.14 690.27 495.87 690.27 502.94Z" id="aFBQt5kcr"></path><path d="M733.32 505.74C733.32 512.81 726.48 518.54 718.03 518.54C709.59 518.54 702.74 512.81 702.74 505.74C702.74 498.68 709.59 492.95 718.03 492.95C726.48 492.95 733.32 498.68 733.32 505.74Z" id="b1nJEneZrw"></path><path d="M733.32 505.74C733.32 512.81 726.48 518.54 718.03 518.54C709.59 518.54 702.74 512.81 702.74 505.74C702.74 498.68 709.59 492.95 718.03 492.95C726.48 492.95 733.32 498.68 733.32 505.74Z" id="dP6qWQ4n7"></path><path d="M733.32 502.94C733.32 510 726.48 515.73 718.03 515.73C709.59 515.73 702.74 510 702.74 502.94C702.74 495.87 709.59 490.14 718.03 490.14C726.48 490.14 733.32 495.87 733.32 502.94Z" id="acmfN5T4c"></path><path d="M331.17 461.12C331.17 468.19 324.33 473.92 315.88 473.92C307.44 473.92 300.59 468.19 300.59 461.12C300.59 454.06 307.44 448.33 315.88 448.33C324.33 448.33 331.17 454.06 331.17 461.12Z" id="k2CyKQxAGE"></path><path d="M331.17 461.12C331.17 468.19 324.33 473.92 315.88 473.92C307.44 473.92 300.59 468.19 300.59 461.12C300.59 454.06 307.44 448.33 315.88 448.33C324.33 448.33 331.17 454.06 331.17 461.12Z" id="c2vtvhXFJo"></path><path d="M331.17 458.32C331.17 465.38 324.33 471.11 315.88 471.11C307.44 471.11 300.59 465.38 300.59 458.32C300.59 451.25 307.44 445.52 315.88 445.52C324.33 445.52 331.17 451.25 331.17 458.32Z" id="a5OxR0rFs"></path><path d="M373.61 461.12C373.61 468.19 366.76 473.92 358.32 473.92C349.87 473.92 343.03 468.19 343.03 461.12C343.03 454.06 349.87 448.33 358.32 448.33C366.76 448.33 373.61 454.06 373.61 461.12Z" id="a2oC9bbWyd"></path><path d="M373.61 461.12C373.61 468.19 366.76 473.92 358.32 473.92C349.87 473.92 343.03 468.19 343.03 461.12C343.03 454.06 349.87 448.33 358.32 448.33C366.76 448.33 373.61 454.06 373.61 461.12Z" id="bNs6poVxO"></path><path d="M373.61 458.32C373.61 465.38 366.76 471.11 358.32 471.11C349.87 471.11 343.03 465.38 343.03 458.32C343.03 451.25 349.87 445.52 358.32 445.52C366.76 445.52 373.61 451.25 373.61 458.32Z" id="a3MDJE8cDw"></path><path d="M414.47 461.12C414.47 468.19 407.63 473.92 399.18 473.92C390.74 473.92 383.89 468.19 383.89 461.12C383.89 454.06 390.74 448.33 399.18 448.33C407.63 448.33 414.47 454.06 414.47 461.12Z" id="dugyqXv7G"></path><path d="M414.47 461.12C414.47 468.19 407.63 473.92 399.18 473.92C390.74 473.92 383.89 468.19 383.89 461.12C383.89 454.06 390.74 448.33 399.18 448.33C407.63 448.33 414.47 454.06 414.47 461.12Z" id="b2njmXORom"></path><path d="M414.47 458.32C414.47 465.38 407.63 471.11 399.18 471.11C390.74 471.11 383.89 465.38 383.89 458.32C383.89 451.25 390.74 445.52 399.18 445.52C407.63 445.52 414.47 451.25 414.47 458.32Z" id="bnq71VXt7"></path><path d="M456.59 461.12C456.59 468.19 449.75 473.92 441.3 473.92C432.86 473.92 426.02 468.19 426.02 461.12C426.02 454.06 432.86 448.33 441.3 448.33C449.75 448.33 456.59 454.06 456.59 461.12Z" id="a5ycqX1ieJ"></path><path d="M456.59 461.12C456.59 468.19 449.75 473.92 441.3 473.92C432.86 473.92 426.02 468.19 426.02 461.12C426.02 454.06 432.86 448.33 441.3 448.33C449.75 448.33 456.59 454.06 456.59 461.12Z" id="di98opb5B"></path><path d="M456.59 458.32C456.59 465.38 449.75 471.11 441.3 471.11C432.86 471.11 426.02 465.38 426.02 458.32C426.02 451.25 432.86 445.52 441.3 445.52C449.75 445.52 456.59 451.25 456.59 458.32Z" id="a2leWp3GAS"></path><path d="M498.09 461.12C498.09 468.19 491.24 473.92 482.8 473.92C474.35 473.92 467.51 468.19 467.51 461.12C467.51 454.06 474.35 448.33 482.8 448.33C491.24 448.33 498.09 454.06 498.09 461.12Z" id="erKXnShjA"></path><path d="M498.09 461.12C498.09 468.19 491.24 473.92 482.8 473.92C474.35 473.92 467.51 468.19 467.51 461.12C467.51 454.06 474.35 448.33 482.8 448.33C491.24 448.33 498.09 454.06 498.09 461.12Z" id="d48uoR6DNH"></path><path d="M498.09 458.32C498.09 465.38 491.24 471.11 482.8 471.11C474.35 471.11 467.51 465.38 467.51 458.32C467.51 451.25 474.35 445.52 482.8 445.52C491.24 445.52 498.09 451.25 498.09 458.32Z" id="a5dWCV3Pyp"></path><path d="M540.52 461.12C540.52 468.19 533.68 473.92 525.23 473.92C516.79 473.92 509.94 468.19 509.94 461.12C509.94 454.06 516.79 448.33 525.23 448.33C533.68 448.33 540.52 454.06 540.52 461.12Z" id="e3J9cg9DU"></path><path d="M540.52 461.12C540.52 468.19 533.68 473.92 525.23 473.92C516.79 473.92 509.94 468.19 509.94 461.12C509.94 454.06 516.79 448.33 525.23 448.33C533.68 448.33 540.52 454.06 540.52 461.12Z" id="b5ccNYJAfJ"></path><path d="M540.52 458.32C540.52 465.38 533.68 471.11 525.23 471.11C516.79 471.11 509.94 465.38 509.94 458.32C509.94 451.25 516.79 445.52 525.23 445.52C533.68 445.52 540.52 451.25 540.52 458.32Z" id="b3MMuhAym"></path><path d="M582.02 461.12C582.02 468.19 575.17 473.92 566.73 473.92C558.28 473.92 551.44 468.19 551.44 461.12C551.44 454.06 558.28 448.33 566.73 448.33C575.17 448.33 582.02 454.06 582.02 461.12Z" id="f2YKhVjJ6"></path><path d="M582.02 461.12C582.02 468.19 575.17 473.92 566.73 473.92C558.28 473.92 551.44 468.19 551.44 461.12C551.44 454.06 558.28 448.33 566.73 448.33C575.17 448.33 582.02 454.06 582.02 461.12Z" id="b2FfgSrwuW"></path><path d="M582.02 458.32C582.02 465.38 575.17 471.11 566.73 471.11C558.28 471.11 551.44 465.38 551.44 458.32C551.44 451.25 558.28 445.52 566.73 445.52C575.17 445.52 582.02 451.25 582.02 458.32Z" id="b1HGfHPp8F"></path><path d="M624.13 461.12C624.13 468.19 617.28 473.92 608.84 473.92C600.4 473.92 593.55 468.19 593.55 461.12C593.55 454.06 600.4 448.33 608.84 448.33C617.28 448.33 624.13 454.06 624.13 461.12Z" id="c8PQNinbV"></path><path d="M624.13 461.12C624.13 468.19 617.28 473.92 608.84 473.92C600.4 473.92 593.55 468.19 593.55 461.12C593.55 454.06 600.4 448.33 608.84 448.33C617.28 448.33 624.13 454.06 624.13 461.12Z" id="c2DaTDCw0V"></path><path d="M624.13 458.32C624.13 465.38 617.28 471.11 608.84 471.11C600.4 471.11 593.55 465.38 593.55 458.32C593.55 451.25 600.4 445.52 608.84 445.52C617.28 445.52 624.13 451.25 624.13 458.32Z" id="d11YDUpEON"></path><path d="M667.5 461.12C667.5 468.19 660.66 473.92 652.21 473.92C643.77 473.92 636.92 468.19 636.92 461.12C636.92 454.06 643.77 448.33 652.21 448.33C660.66 448.33 667.5 454.06 667.5 461.12Z" id="b2qYiTsi42"></path><path d="M667.5 461.12C667.5 468.19 660.66 473.92 652.21 473.92C643.77 473.92 636.92 468.19 636.92 461.12C636.92 454.06 643.77 448.33 652.21 448.33C660.66 448.33 667.5 454.06 667.5 461.12Z" id="c295IMwruA"></path><path d="M667.5 458.32C667.5 465.38 660.66 471.11 652.21 471.11C643.77 471.11 636.92 465.38 636.92 458.32C636.92 451.25 643.77 445.52 652.21 445.52C660.66 445.52 667.5 451.25 667.5 458.32Z" id="h79FmudG0a"></path><path d="M709.92 461.12C709.92 468.19 703.08 473.92 694.64 473.92C686.19 473.92 679.35 468.19 679.35 461.12C679.35 454.06 686.19 448.33 694.64 448.33C703.08 448.33 709.92 454.06 709.92 461.12Z" id="aZWqK4bs4"></path><path d="M709.92 461.12C709.92 468.19 703.08 473.92 694.64 473.92C686.19 473.92 679.35 468.19 679.35 461.12C679.35 454.06 686.19 448.33 694.64 448.33C703.08 448.33 709.92 454.06 709.92 461.12Z" id="c129j9cXED"></path><path d="M709.92 458.32C709.92 465.38 703.08 471.11 694.64 471.11C686.19 471.11 679.35 465.38 679.35 458.32C679.35 451.25 686.19 445.52 694.64 445.52C703.08 445.52 709.92 451.25 709.92 458.32Z" id="bzWJy2YPS"></path><path d="M751.42 461.12C751.42 468.19 744.57 473.92 736.13 473.92C727.69 473.92 720.84 468.19 720.84 461.12C720.84 454.06 727.69 448.33 736.13 448.33C744.57 448.33 751.42 454.06 751.42 461.12Z" id="a1g6WietB"></path><path d="M751.42 461.12C751.42 468.19 744.57 473.92 736.13 473.92C727.69 473.92 720.84 468.19 720.84 461.12C720.84 454.06 727.69 448.33 736.13 448.33C744.57 448.33 751.42 454.06 751.42 461.12Z" id="a3hl1WuPT"></path><path d="M751.42 458.32C751.42 465.38 744.57 471.11 736.13 471.11C727.69 471.11 720.84 465.38 720.84 458.32C720.84 451.25 727.69 445.52 736.13 445.52C744.57 445.52 751.42 451.25 751.42 458.32Z" id="abkFWlrUr"></path><path d="M733.94 624.93C739.98 624.93 743 627.95 743 633.99C743 637.91 743 640.09 743 640.52C743 646.56 739.98 649.58 733.94 649.58C464.58 649.58 314.93 649.58 285 649.58C278.97 649.58 275.95 646.56 275.95 640.52C275.95 636.6 275.95 634.43 275.95 633.99C275.95 627.95 278.97 624.93 285 624.93C554.37 624.93 704.01 624.93 733.94 624.93Z" id="a18fX1Gnma"></path><path d="M733.94 624.93C739.98 624.93 743 627.95 743 633.99C743 637.91 743 640.09 743 640.52C743 646.56 739.98 649.58 733.94 649.58C464.58 649.58 314.93 649.58 285 649.58C278.97 649.58 275.95 646.56 275.95 640.52C275.95 636.6 275.95 634.43 275.95 633.99C275.95 627.95 278.97 624.93 285 624.93C554.37 624.93 704.01 624.93 733.94 624.93Z" id="a68FuYK7B"></path><path d="M733.94 623.06C739.98 623.06 743 626.08 743 632.11C743 636.03 743 638.21 743 638.64C743 644.68 739.98 647.7 733.94 647.7C464.58 647.7 314.93 647.7 285 647.7C278.97 647.7 275.95 644.68 275.95 638.64C275.95 634.73 275.95 632.55 275.95 632.11C275.95 626.08 278.97 623.06 285 623.06C554.37 623.06 704.01 623.06 733.94 623.06Z" id="b1r9MaJv1O"></path><path d="M501.82 385.61C407.74 385.61 338.04 355.19 338.04 328.83C338.04 302.47 407.76 290.14 501.82 290.14C595.89 290.14 679.36 304.65 679.36 331.02C679.36 357.38 595.91 385.61 501.82 385.61Z" id="ctsr9m4pZ"></path><path d="M772.32 228.21C772.32 242.26 767.71 253.64 762.03 253.64C756.34 253.64 751.73 242.26 751.73 228.21C751.73 214.17 756.34 202.79 762.03 202.79C767.71 202.79 772.32 214.17 772.32 228.21Z" id="e1XvpWDXY"></path><path d="M268.15 228.21C268.15 242.26 263.54 253.64 257.85 253.64C252.16 253.64 247.55 242.26 247.55 228.21C247.55 214.17 252.16 202.79 257.85 202.79C263.54 202.79 268.15 214.17 268.15 228.21Z" id="c5tRAupRF"></path><path d="M762.03 222.13C762.03 222.13 762.03 222.13 762.03 222.13C762.03 226.63 762.03 229.12 762.03 229.62C762.03 229.62 762.03 229.62 762.03 229.62C464.01 229.62 298.45 229.62 265.34 229.62C265.34 229.62 265.34 229.62 265.34 229.62C265.34 225.13 265.34 222.63 265.34 222.13C265.34 222.13 265.34 222.13 265.34 222.13C563.35 222.13 728.91 222.13 762.03 222.13Z" id="c8QS96Thrk"></path><path d="M762.03 220.88C762.03 220.88 762.03 220.88 762.03 220.88C762.03 225.38 762.03 227.87 762.03 228.37C762.03 228.37 762.03 228.37 762.03 228.37C464.01 228.37 298.45 228.37 265.34 228.37C265.34 228.37 265.34 228.37 265.34 228.37C265.34 223.88 265.34 221.38 265.34 220.88C265.34 220.88 265.34 220.88 265.34 220.88C563.35 220.88 728.91 220.88 762.03 220.88Z" id="i2gTkbKLiL"></path><path d="M509.93 253.64C512.21 253.64 530.43 253.64 532.7 253.64C532.7 253.64 525.54 231.49 521.48 230.24C517.41 228.99 512.24 248.96 509.93 253.64ZM523.35 235.53C523.36 236.74 522.39 237.73 521.18 237.73C519.97 237.74 518.99 236.76 518.98 235.55C518.98 235.55 518.98 235.55 518.98 235.54C518.98 234.34 519.96 233.36 521.17 233.36C521.17 233.36 521.17 233.36 521.17 233.36C522.37 233.35 523.35 234.33 523.35 235.53ZM528.81 252.7C527.31 252.7 515.33 252.7 513.83 252.7C513.83 252.7 518.76 239.75 521.48 240.41C524.08 241.06 527.34 250.24 528.81 252.7Z" id="divyVuWJ9"></path><path d="M217.18 419.61C218.04 411.47 219.04 403.35 220.18 395.25C228.99 333.85 233.89 299.73 234.87 292.91C238.74 266.43 261.44 246.79 288.2 246.77C290.43 246.77 308.28 246.77 310.51 246.77C321.83 246.81 332.84 250.51 341.88 257.33C364.99 274.57 430.64 287.02 508.04 287.02C585.43 287.02 651.11 274.61 674.27 257.33C683.31 250.51 694.32 246.81 705.64 246.77C709.25 246.77 738.17 246.77 741.78 246.77C757.46 246.77 770.88 258.03 773.6 273.47C775.57 284.66 791.35 374.14 793.32 385.32C795.32 396.74 797.02 408.16 798.41 419.61C449.67 419.61 255.93 419.61 217.18 419.61Z" id="b1baTsZbCE"></path><path d="M486 481.89L481.61 483.46L480.01 480.81C480.01 480.67 480.01 480.59 480.01 480.58C481.64 479.55 483.58 479.16 485.48 479.5C485.55 479.82 485.72 480.62 486 481.89Z" id="cUnuRiy2F"></path><path d="M426.35 585.45C426.67 584.58 427.03 583.73 427.44 582.91C427.9 582.63 431.6 580.38 432.06 580.1C432.06 580.1 433 582.51 434 585.74C431.5 586.58 428.78 586.47 426.35 585.45Z" id="bNlQ6sR0g"></path><path d="M448.85 541.66C446.98 544.37 442.74 535.05 442.74 535.05C443.97 536.38 450.73 538.96 448.85 541.66Z" id="a52oOvPcrR"></path><path d="M485.99 504.84C486.17 507.05 483.82 499.24 483.82 499.24C484.25 500.36 485.82 502.64 485.99 504.84Z" id="afj2ZKsgM"></path><path d="M487.37 494.66C489.93 495.51 483.82 494.66 483.82 494.66C484.53 494.66 484.82 493.81 487.37 494.66Z" id="a3ZWeeaew"></path><path d="M445.78 469.28C445.77 469.13 445.78 468.97 445.78 468.81C445.78 468.97 445.78 469.12 445.78 469.28Z" id="a3Oa3KsSDz"></path><path d="M475.87 478.65C475.55 480.8 475.4 482.96 475.42 485.13C475.73 482.98 475.88 480.82 475.87 478.65Z" id="a316Rxnc63"></path><path d="M438.38 488.46C438.32 488.92 438.3 489.38 438.32 489.84C438.42 492.6 439.79 495.17 440.06 497.91C440.13 497.23 440.13 496.55 440.07 495.87C439.84 493.34 438.66 490.96 438.38 488.46Z" id="a26uqGRocv"></path><path d="M476.6 510.97C476.64 509.98 476.78 508.99 477.02 508.03C477.68 505.42 479.13 502.99 479.25 500.29C479.27 499.81 479.25 499.33 479.18 498.85C478.88 501.31 477.62 503.52 477.02 505.9C476.63 507.56 476.49 509.27 476.6 510.97Z" id="bbm938QCV"></path><path d="M436.59 508.59C436.12 509.31 435.59 510.03 435.16 510.72C437.85 510.89 440.51 510.03 442.58 508.3C444.07 513.25 444.86 518.37 444.95 523.54C445.08 517.65 444.28 511.77 442.58 506.13C440.89 507.56 438.8 508.41 436.59 508.59Z" id="dkLgNf9uu"></path><path d="M448.48 534.69C448.12 534.58 447.75 534.53 447.38 534.55C447.04 534.55 444.38 534.55 444.05 534.55C443.92 535.26 443.78 535.97 443.62 536.67C444 536.67 447 536.67 447.38 536.67C447.75 536.65 448.12 536.69 448.48 536.81C448.81 536.96 449.1 537.19 449.34 537.46C452 539.99 453.71 543.36 454.19 547C454.62 542.76 452.43 538.41 449.34 535.34C449.1 535.07 448.8 534.85 448.48 534.69Z" id="b1PSoWlDHm"></path><path d="M289.82 56.55C289.58 55.6 289.52 54.61 289.65 53.63C289.88 54.59 289.93 55.58 289.82 56.55Z" id="c7rYp5o9g"></path><path d="M293.46 65.73C293.1 64.86 293.14 63.87 293.57 63.03C294.08 62.28 294.64 61.58 295.25 60.93C295.46 60.64 295.63 60.32 295.74 59.98C295.77 60.01 295.79 60.04 295.81 60.07C296.22 60.89 296.08 61.89 295.46 62.57C294.85 63.22 294.29 63.92 293.78 64.66C293.61 65 293.5 65.36 293.46 65.73Z" id="a8ko7cC72F"></path><path d="M365.11 195.42C365.4 195.38 366.87 195.19 369.51 194.85C370.9 193.05 371.67 192.05 371.83 191.85C371.83 191.85 372.42 185.21 367.83 185.29C366.94 185.25 366.06 185.03 365.26 184.63C364.89 186.63 367.11 188.27 367.11 188.27C367.11 188.27 368.03 188.94 367.81 192.06C367.68 194.19 365.8 194.64 364.62 194.72C364.94 195.15 365.01 195.28 365.11 195.42Z" id="ag8mpXPcl"></path><path d="M370.97 199.67C371.42 199.89 373.75 197.3 374.06 195.21C374.38 193.12 379.95 186.6 379.95 186.6C381.12 184.03 381.82 181.27 382.01 178.45C382.22 175.6 381.02 175.39 379.65 176.02C379.42 178.28 378.85 182.67 377.65 184.95C376.31 187.67 370.68 196.41 369.13 198.77C370.08 199.26 370.82 199.6 370.97 199.67Z" id="d4CpkIOwE1"></path><path d="M216.71 58.69L216.97 60.79C222.45 61.56 225.48 61.99 226.09 62.08C226.09 62.08 226.84 61.52 228.01 60.76C227.01 60.54 222.52 59.55 220.14 58.76C219.27 58.49 218.68 58.26 218.66 58.1C218.64 57.94 218.72 57.92 218.86 57.8C218.57 57.92 217.86 58.22 216.71 58.69Z" id="c3ahHEn1xu"></path><path d="M260.15 134.41C260.15 134.41 262.55 145.74 258.93 152.16C258.93 152.16 260.15 134.41 260.15 134.41Z" id="a1enm1Ze4"></path><path d="M255.13 135.07C255.13 135.07 254.97 144.87 253.88 146.88C253.88 146.88 255.13 135.07 255.13 135.07Z" id="f26Jw2dg6"></path><path d="M304.42 133.11L298.08 133.94L287.09 126.32L287.09 126.32L304.42 133.11Z" id="a1sCFE9FLv"></path><path d="M320.03 58.11L321.68 64.81C322.98 64.03 323.7 63.6 323.84 63.51C323.36 60.52 322.62 57.69 321.94 57.04C321.69 57.19 321.05 57.54 320.03 58.11Z" id="b20E1XbfVQ"></path><path d="M320.01 57.02C320.18 56.99 320.35 56.99 320.52 57.02C322.1 57.51 324.17 71.25 322.51 72.51C321.7 73.13 320.74 73.55 319.73 73.72C319.71 73.72 319.63 73.72 319.49 73.72C319.17 70.97 318.99 69.44 318.96 69.14C318.82 69.21 318.69 69.29 318.57 69.39C318.57 69.37 318.57 69.22 318.57 69.2C319.41 65.64 318.58 61.89 316.31 59.02C317.05 58.62 319.27 57.42 320.01 57.02Z" id="b2gMUUsJ2"></path><path d="M319.51 73.79C320.75 73.71 321.95 73.26 322.94 72.51C324.58 71.25 322.51 57.53 320.95 57.02C319.69 56.63 317.48 58.2 316.6 58.87C318.97 61.75 319.85 65.58 318.98 69.21C319.08 70.12 319.45 73.33 319.51 73.79Z" id="czgdes0GD"></path><path d="M262.19 80.78C262.19 80.78 260.93 84.34 262.53 85.53C262.53 85.53 260.78 80.83 259.75 80.93" id="ll9cMJ90h"></path><path d="M310.49 93.38L355.91 52.09L308.92 52.09L308.92 52.09L310.49 93.38Z" id="g4gMH507Mh"></path><path d="M310.49 93.38L355.91 52.09L308.92 52.09L308.92 52.09L310.49 93.38Z" id="cexkaGHKm"></path><path d="M880.5 691.2C880.5 694.79 865.38 697.7 846.74 697.7C828.1 697.7 812.99 694.79 812.99 691.2C812.99 687.62 828.1 684.71 846.74 684.71C865.38 684.71 880.5 687.62 880.5 691.2Z" id="b39dFhP0"></path><path d="M850.11 688.45C850.11 691.29 848.35 693.59 846.17 693.59C844 693.59 842.24 691.29 842.24 688.45C842.24 685.61 844 683.31 846.17 683.31C848.35 683.31 850.11 685.61 850.11 688.45Z" id="a1LJH8DFZ0"></path><path d="M850.11 682.16C850.11 685 848.35 687.3 846.17 687.3C844 687.3 842.24 685 842.24 682.16C842.24 679.32 844 677.01 846.17 677.01C848.35 677.01 850.11 679.32 850.11 682.16Z" id="cDBcHdDxB"></path><path d="M850.11 675.87C850.11 678.71 848.35 681.01 846.17 681.01C844 681.01 842.24 678.71 842.24 675.87C842.24 673.02 844 670.72 846.17 670.72C848.35 670.72 850.11 673.02 850.11 675.87Z" id="d1RJwI3vpF"></path><path d="M850.11 669.58C850.11 672.42 848.35 674.73 846.17 674.73C844 674.73 842.24 672.42 842.24 669.58C842.24 666.74 844 664.44 846.17 664.44C848.35 664.44 850.11 666.74 850.11 669.58Z" id="auegHruIH"></path><path d="M850.11 663.29C850.11 666.13 848.35 668.44 846.17 668.44C844 668.44 842.24 666.13 842.24 663.29C842.24 660.45 844 658.15 846.17 658.15C848.35 658.15 850.11 660.45 850.11 663.29Z" id="a4kL0NytU"></path><path d="M850.11 657C850.11 659.84 848.35 662.14 846.17 662.14C844 662.14 842.24 659.84 842.24 657C842.24 654.16 844 651.86 846.17 651.86C848.35 651.86 850.11 654.16 850.11 657Z" id="c4BNXyTvR"></path><path d="M850.11 650.72C850.11 653.56 848.35 655.86 846.17 655.86C844 655.86 842.24 653.56 842.24 650.72C842.24 647.88 844 645.58 846.17 645.58C848.35 645.58 850.11 647.88 850.11 650.72Z" id="dj9HXsmHJ"></path><path d="M862.35 605.53C861.66 605.42 858.22 604.85 852.03 603.83C858.73 603.88 862.46 603.91 863.2 603.91C865.37 599.2 865.5 593.81 863.56 589C862.56 589.52 857.57 592.11 848.58 596.77C856.87 590.68 861.48 587.29 862.4 586.61C857.16 577.64 845.63 574.61 836.65 579.85C827.67 585.09 824.65 596.62 829.89 605.6C830.31 606.33 830.78 607.02 831.3 607.69C830.47 608.75 829.75 609.9 829.16 611.11C830.05 611.58 834.52 613.91 842.57 618.1C833.99 615.22 829.22 613.62 828.27 613.3C826.22 619.32 827.35 625.97 831.26 630.99C824.84 639.16 826.26 650.99 834.43 657.42C842.6 663.84 854.44 662.43 860.86 654.25C866.23 647.42 866.23 637.81 860.86 630.99C866.23 624.15 866.23 614.54 860.86 607.71C861.42 607 861.91 606.28 862.35 605.53Z" id="i63foVhaWX"></path><path d="M831.26 630.97C824.84 639.14 826.26 650.97 834.43 657.4C842.6 663.82 854.44 662.41 860.86 654.23C866.23 647.4 866.23 637.79 860.86 630.97C863.41 627.76 827.27 617.2 827.27 619.32C827.26 623.54 828.66 627.64 831.26 630.97Z" id="a3xb22sIcK"></path></defs><g><g><use xlink:href="#m5iYQolyqw" opacity="1" fill="#000000" fill-opacity="1"></use><g><use xlink:href="#m5iYQolyqw" opacity="1" fill-opacity="0" stroke="#000000" stroke-width="1" stroke-opacity="0"></use></g></g><g><use xlink:href="#b1KuKptkp9" opacity="1" fill="#3f3d56" fill-opacity="1"></use><g><use xlink:href="#b1KuKptkp9" opacity="1" fill-opacity="0" stroke="#000000" stroke-width="1" stroke-opacity="0"></use></g></g><g><use xlink:href="#l1o3QDprlD" opacity="1" fill="#3f3d56" fill-opacity="1"></use><g><use xlink:href="#l1o3QDprlD" opacity="1" fill-opacity="0" stroke="#000000" stroke-width="1" stroke-opacity="0"></use></g></g><g><use xlink:href="#b8FYNWYKcl" opacity="1" fill="#3f3d56" fill-opacity="1"></use><g><use xlink:href="#b8FYNWYKcl" opacity="1" fill-opacity="0" stroke="#000000" stroke-width="1" stroke-opacity="0"></use></g></g><g><use xlink:href="#caWK1LKUw" opacity="1" fill="#3f3d56" fill-opacity="1"></use><g><use xlink:href="#caWK1LKUw" opacity="1" fill-opacity="0" stroke="#000000" stroke-width="1" stroke-opacity="0"></use></g></g><g><use xlink:href="#abKWskm0F" opacity="1" fill="#3f3d56" fill-opacity="1"></use><g><use xlink:href="#abKWskm0F" opacity="1" fill-opacity="0" stroke="#000000" stroke-width="1" stroke-opacity="0"></use></g></g><g><use xlink:href="#d1gpJjQctF" opacity="1" fill="#000000" fill-opacity="1"></use><g><use xlink:href="#d1gpJjQctF" opacity="1" fill-opacity="0" stroke="#000000" stroke-width="1" stroke-opacity="0"></use></g></g><g><use xlink:href="#adtNXeW0t" opacity="1" fill="#000000" fill-opacity="1"></use><g><use xlink:href="#adtNXeW0t" opacity="1" fill-opacity="0" stroke="#000000" stroke-width="1" stroke-opacity="0"></use></g></g><g><use xlink:href="#bjvwIfqPv" opacity="1" fill="#3f3d56" fill-opacity="1"></use><g><use xlink:href="#bjvwIfqPv" opacity="1" fill-opacity="0" stroke="#000000" stroke-width="1" stroke-opacity="0"></use></g></g><g><use xlink:href="#d31Xu9637s" opacity="1" fill="#3f3d56" fill-opacity="1"></use><g><use xlink:href="#d31Xu9637s" opacity="1" fill-opacity="0" stroke="#000000" stroke-width="1" stroke-opacity="0"></use></g></g><g><use xlink:href="#b1fuL5DW3" opacity="1" fill="#3f3d56" fill-opacity="1"></use><g><use xlink:href="#b1fuL5DW3" opacity="1" fill-opacity="0" stroke="#000000" stroke-width="1" stroke-opacity="0"></use></g></g><g><use xlink:href="#b1t5kow3oY" opacity="1" fill="#3f3d56" fill-opacity="1"></use><g><use xlink:href="#b1t5kow3oY" opacity="1" fill-opacity="0" stroke="#000000" stroke-width="1" stroke-opacity="0"></use></g></g><g><use xlink:href="#b2PkrkmjR1" opacity="1" fill="#3f3d56" fill-opacity="1"></use><g><use xlink:href="#b2PkrkmjR1" opacity="1" fill-opacity="0" stroke="#000000" stroke-width="1" stroke-opacity="0"></use></g></g><g><use xlink:href="#a5TwMqmclA" opacity="1" fill="#000000" fill-opacity="1"></use><g><use xlink:href="#a5TwMqmclA" opacity="1" fill-opacity="0" stroke="#000000" stroke-width="1" stroke-opacity="0"></use></g></g><g><use xlink:href="#a2A1Q3UTci" opacity="1" fill="#000000" fill-opacity="1"></use><g><use xlink:href="#a2A1Q3UTci" opacity="1" fill-opacity="0" stroke="#000000" stroke-width="1" stroke-opacity="0"></use></g></g><g><use xlink:href="#a1yihBIXdr" opacity="1" fill="#000000" fill-opacity="1"></use><g><use xlink:href="#a1yihBIXdr" opacity="1" fill-opacity="0" stroke="#000000" stroke-width="1" stroke-opacity="0"></use></g></g><g><use xlink:href="#ap18xFhY6" opacity="1" fill="#3f3d56" fill-opacity="1"></use><g><use xlink:href="#ap18xFhY6" opacity="1" fill-opacity="0" stroke="#000000" stroke-width="1" stroke-opacity="0"></use></g></g><g><use xlink:href="#bHotXWoyx" opacity="1" fill="#3f3d56" fill-opacity="1"></use><g><use xlink:href="#bHotXWoyx" opacity="1" fill-opacity="0" stroke="#000000" stroke-width="1" stroke-opacity="0"></use></g></g><g><use xlink:href="#j1re7pDR8H" opacity="1" fill="#3f3d56" fill-opacity="1"></use><g><use xlink:href="#j1re7pDR8H" opacity="1" fill-opacity="0" stroke="#000000" stroke-width="1" stroke-opacity="0"></use></g></g><g><use xlink:href="#a2efT9hCtz" opacity="1" fill="#3f3d56" fill-opacity="1"></use><g><use xlink:href="#a2efT9hCtz" opacity="1" fill-opacity="0" stroke="#000000" stroke-width="1" stroke-opacity="0"></use></g></g><g><use xlink:href="#a1mMowUP4" opacity="1" fill="#3f3d56" fill-opacity="1"></use><g><use xlink:href="#a1mMowUP4" opacity="1" fill-opacity="0" stroke="#000000" stroke-width="1" stroke-opacity="0"></use></g></g><g><use xlink:href="#c1qy0wPgvi" opacity="1" fill="#3f3d56" fill-opacity="1"></use><g><use xlink:href="#c1qy0wPgvi" opacity="1" fill-opacity="0" stroke="#000000" stroke-width="1" stroke-opacity="0"></use></g></g><g><use xlink:href="#d18MnW85wS" opacity="1" fill="#3f3d56" fill-opacity="1"></use><g><use xlink:href="#d18MnW85wS" opacity="1" fill-opacity="0" stroke="#000000" stroke-width="1" stroke-opacity="0"></use></g></g><g><use xlink:href="#c59eC42haK" opacity="1" fill="#000000" fill-opacity="1"></use><g><use xlink:href="#c59eC42haK" opacity="1" fill-opacity="0" stroke="#000000" stroke-width="1" stroke-opacity="0"></use></g></g><g><use xlink:href="#j2WH76zbj" opacity="1" fill="#000000" fill-opacity="1"></use><g><use xlink:href="#j2WH76zbj" opacity="1" fill-opacity="0" stroke="#000000" stroke-width="1" stroke-opacity="0"></use></g></g><g><use xlink:href="#a1OxKNweNx" opacity="1" fill="#35323e" fill-opacity="1"></use><g><use xlink:href="#a1OxKNweNx" opacity="1" fill-opacity="0" stroke="#000000" stroke-width="1" stroke-opacity="0"></use></g></g><g><use xlink:href="#dSfpDESju" opacity="1" fill="#ffffff" fill-opacity="1"></use><g><use xlink:href="#dSfpDESju" opacity="1" fill-opacity="0" stroke="#000000" stroke-width="1" stroke-opacity="0"></use></g></g><g><use xlink:href="#anHe4y6Ad" opacity="1" fill="#000000" fill-opacity="1"></use><g><use xlink:href="#anHe4y6Ad" opacity="1" fill-opacity="0" stroke="#000000" stroke-width="1" stroke-opacity="0"></use></g></g><g><use xlink:href="#b2HTUaDQnB" opacity="1" fill="#35323e" fill-opacity="1"></use><g><use xlink:href="#b2HTUaDQnB" opacity="1" fill-opacity="0" stroke="#000000" stroke-width="1" stroke-opacity="0"></use></g></g><g><use xlink:href="#b4aF2OqNN2" opacity="1" fill="#464353" fill-opacity="1"></use><g><use xlink:href="#b4aF2OqNN2" opacity="1" fill-opacity="0" stroke="#000000" stroke-width="1" stroke-opacity="0"></use></g></g><g><use xlink:href="#h9wbCDl1jB" opacity="1" fill="#000000" fill-opacity="1"></use><g><use xlink:href="#h9wbCDl1jB" opacity="1" fill-opacity="0" stroke="#000000" stroke-width="1" stroke-opacity="0"></use></g></g><g><use xlink:href="#h8JTonEA41" opacity="1" fill="#000000" fill-opacity="1"></use><g><use xlink:href="#h8JTonEA41" opacity="1" fill-opacity="0" stroke="#000000" stroke-width="1" stroke-opacity="0"></use></g></g><g><use xlink:href="#c1QOEzgM61" opacity="1" fill="#000000" fill-opacity="1"></use><g><use xlink:href="#c1QOEzgM61" opacity="1" fill-opacity="0" stroke="#000000" stroke-width="1" stroke-opacity="0"></use></g></g><g><use xlink:href="#a6c24LiUoc" opacity="1" fill="#000000" fill-opacity="1"></use><g><use xlink:href="#a6c24LiUoc" opacity="1" fill-opacity="0" stroke="#000000" stroke-width="1" stroke-opacity="0"></use></g></g><g><use xlink:href="#a2ZLHLMmG8" opacity="1" fill="#35323e" fill-opacity="1"></use><g><use xlink:href="#a2ZLHLMmG8" opacity="1" fill-opacity="0" stroke="#000000" stroke-width="1" stroke-opacity="0"></use></g></g><g><use xlink:href="#c1v2veFSh1" opacity="1" fill="#000000" fill-opacity="1"></use><g><use xlink:href="#c1v2veFSh1" opacity="1" fill-opacity="0" stroke="#000000" stroke-width="1" stroke-opacity="0"></use></g></g><g><use xlink:href="#b1gxyDsSgM" opacity="1" fill="#35323e" fill-opacity="1"></use><g><use xlink:href="#b1gxyDsSgM" opacity="1" fill-opacity="0" stroke="#000000" stroke-width="1" stroke-opacity="0"></use></g></g><g><use xlink:href="#b2PrJXQVf" opacity="1" fill="#35323e" fill-opacity="1"></use><g><use xlink:href="#b2PrJXQVf" opacity="1" fill-opacity="0" stroke="#000000" stroke-width="1" stroke-opacity="0"></use></g></g><g><use xlink:href="#b2a0Edppgs" opacity="1" fill="#000000" fill-opacity="1"></use><g><use xlink:href="#b2a0Edppgs" opacity="1" fill-opacity="0" stroke="#000000" stroke-width="1" stroke-opacity="0"></use></g></g><g><use xlink:href="#b2wSanAPm" opacity="1" fill="#35323e" fill-opacity="1"></use><g><use xlink:href="#b2wSanAPm" opacity="1" fill-opacity="0" stroke="#000000" stroke-width="1" stroke-opacity="0"></use></g></g><g><use xlink:href="#cjMqzGPu9" opacity="1" fill="#35323e" fill-opacity="1"></use><g><use xlink:href="#cjMqzGPu9" opacity="1" fill-opacity="0" stroke="#000000" stroke-width="1" stroke-opacity="0"></use></g></g><g><use xlink:href="#bKc2xCfwy" opacity="1" fill="#000000" fill-opacity="1"></use><g><use xlink:href="#bKc2xCfwy" opacity="1" fill-opacity="0" stroke="#000000" stroke-width="1" stroke-opacity="0"></use></g></g><g><use xlink:href="#a3EBy1wetx" opacity="1" fill="#35323e" fill-opacity="1"></use><g><use xlink:href="#a3EBy1wetx" opacity="1" fill-opacity="0" stroke="#000000" stroke-width="1" stroke-opacity="0"></use></g></g><g><use xlink:href="#d2nLdU3g9k" opacity="1" fill="#35323e" fill-opacity="1"></use><g><use xlink:href="#d2nLdU3g9k" opacity="1" fill-opacity="0" stroke="#000000" stroke-width="1" stroke-opacity="0"></use></g></g><g><use xlink:href="#aEjeD8XDe" opacity="1" fill="#000000" fill-opacity="1"></use><g><use xlink:href="#aEjeD8XDe" opacity="1" fill-opacity="0" stroke="#000000" stroke-width="1" stroke-opacity="0"></use></g></g><g><use xlink:href="#a40w15ZFcO" opacity="1" fill="#35323e" fill-opacity="1"></use><g><use xlink:href="#a40w15ZFcO" opacity="1" fill-opacity="0" stroke="#000000" stroke-width="1" stroke-opacity="0"></use></g></g><g><use xlink:href="#b1hV2en1f0" opacity="1" fill="#35323e" fill-opacity="1"></use><g><use xlink:href="#b1hV2en1f0" opacity="1" fill-opacity="0" stroke="#000000" stroke-width="1" stroke-opacity="0"></use></g></g><g><use xlink:href="#e7okPOpsN" opacity="1" fill="#000000" fill-opacity="1"></use><g><use xlink:href="#e7okPOpsN" opacity="1" fill-opacity="0" stroke="#000000" stroke-width="1" stroke-opacity="0"></use></g></g><g><use xlink:href="#bgnMvfkPB" opacity="1" fill="#35323e" fill-opacity="1"></use><g><use xlink:href="#bgnMvfkPB" opacity="1" fill-opacity="0" stroke="#000000" stroke-width="1" stroke-opacity="0"></use></g></g><g><use xlink:href="#ffQUhCm3Y" opacity="1" fill="#35323e" fill-opacity="1"></use><g><use xlink:href="#ffQUhCm3Y" opacity="1" fill-opacity="0" stroke="#000000" stroke-width="1" stroke-opacity="0"></use></g></g><g><use xlink:href="#b17OuaxLKv" opacity="1" fill="#000000" fill-opacity="1"></use><g><use xlink:href="#b17OuaxLKv" opacity="1" fill-opacity="0" stroke="#000000" stroke-width="1" stroke-opacity="0"></use></g></g><g><use xlink:href="#dXa2vHNPV" opacity="1" fill="#35323e" fill-opacity="1"></use><g><use xlink:href="#dXa2vHNPV" opacity="1" fill-opacity="0" stroke="#000000" stroke-width="1" stroke-opacity="0"></use></g></g><g><use xlink:href="#bufbWyNYj" opacity="1" fill="#35323e" fill-opacity="1"></use><g><use xlink:href="#bufbWyNYj" opacity="1" fill-opacity="0" stroke="#000000" stroke-width="1" stroke-opacity="0"></use></g></g><g><use xlink:href="#alP0CtvTz" opacity="1" fill="#000000" fill-opacity="1"></use><g><use xlink:href="#alP0CtvTz" opacity="1" fill-opacity="0" stroke="#000000" stroke-width="1" stroke-opacity="0"></use></g></g><g><use xlink:href="#e2s2eHuM9x" opacity="1" fill="#35323e" fill-opacity="1"></use><g><use xlink:href="#e2s2eHuM9x" opacity="1" fill-opacity="0" stroke="#000000" stroke-width="1" stroke-opacity="0"></use></g></g><g><use xlink:href="#d4f420kzER" opacity="1" fill="#35323e" fill-opacity="1"></use><g><use xlink:href="#d4f420kzER" opacity="1" fill-opacity="0" stroke="#000000" stroke-width="1" stroke-opacity="0"></use></g></g><g><use xlink:href="#d3Ey5trmu" opacity="1" fill="#000000" fill-opacity="1"></use><g><use xlink:href="#d3Ey5trmu" opacity="1" fill-opacity="0" stroke="#000000" stroke-width="1" stroke-opacity="0"></use></g></g><g><use xlink:href="#a1OUkyExvf" opacity="1" fill="#35323e" fill-opacity="1"></use><g><use xlink:href="#a1OUkyExvf" opacity="1" fill-opacity="0" stroke="#000000" stroke-width="1" stroke-opacity="0"></use></g></g><g><use xlink:href="#diGZjZ0eM" opacity="1" fill="#35323e" fill-opacity="1"></use><g><use xlink:href="#diGZjZ0eM" opacity="1" fill-opacity="0" stroke="#000000" stroke-width="1" stroke-opacity="0"></use></g></g><g><use xlink:href="#a18nOda9my" opacity="1" fill="#000000" fill-opacity="1"></use><g><use xlink:href="#a18nOda9my" opacity="1" fill-opacity="0" stroke="#000000" stroke-width="1" stroke-opacity="0"></use></g></g><g><use xlink:href="#aSngKLDyb" opacity="1" fill="#35323e" fill-opacity="1"></use><g><use xlink:href="#aSngKLDyb" opacity="1" fill-opacity="0" stroke="#000000" stroke-width="1" stroke-opacity="0"></use></g></g><g><use xlink:href="#bLxfTsnfZ" opacity="1" fill="#35323e" fill-opacity="1"></use><g><use xlink:href="#bLxfTsnfZ" opacity="1" fill-opacity="0" stroke="#000000" stroke-width="1" stroke-opacity="0"></use></g></g><g><use xlink:href="#a3IsKvA9hv" opacity="1" fill="#000000" fill-opacity="1"></use><g><use xlink:href="#a3IsKvA9hv" opacity="1" fill-opacity="0" stroke="#000000" stroke-width="1" stroke-opacity="0"></use></g></g><g><use xlink:href="#c8gEl6OQU" opacity="1" fill="#35323e" fill-opacity="1"></use><g><use xlink:href="#c8gEl6OQU" opacity="1" fill-opacity="0" stroke="#000000" stroke-width="1" stroke-opacity="0"></use></g></g><g><use xlink:href="#e91jtO5IA" opacity="1" fill="#35323e" fill-opacity="1"></use><g><use xlink:href="#e91jtO5IA" opacity="1" fill-opacity="0" stroke="#000000" stroke-width="1" stroke-opacity="0"></use></g></g><g><use xlink:href="#b1tZJ2chsO" opacity="1" fill="#000000" fill-opacity="1"></use><g><use xlink:href="#b1tZJ2chsO" opacity="1" fill-opacity="0" stroke="#000000" stroke-width="1" stroke-opacity="0"></use></g></g><g><use xlink:href="#btqlU0F0p" opacity="1" fill="#35323e" fill-opacity="1"></use><g><use xlink:href="#btqlU0F0p" opacity="1" fill-opacity="0" stroke="#000000" stroke-width="1" stroke-opacity="0"></use></g></g><g><use xlink:href="#alaWBYzC" opacity="1" fill="#35323e" fill-opacity="1"></use><g><use xlink:href="#alaWBYzC" opacity="1" fill-opacity="0" stroke="#000000" stroke-width="1" stroke-opacity="0"></use></g></g><g><use xlink:href="#aia7cGotM" opacity="1" fill="#000000" fill-opacity="1"></use><g><use xlink:href="#aia7cGotM" opacity="1" fill-opacity="0" stroke="#000000" stroke-width="1" stroke-opacity="0"></use></g></g><g><use xlink:href="#b9kpIEBK4A" opacity="1" fill="#35323e" fill-opacity="1"></use><g><use xlink:href="#b9kpIEBK4A" opacity="1" fill-opacity="0" stroke="#000000" stroke-width="1" stroke-opacity="0"></use></g></g><g><use xlink:href="#a5HvcIZv9e" opacity="1" fill="#35323e" fill-opacity="1"></use><g><use xlink:href="#a5HvcIZv9e" opacity="1" fill-opacity="0" stroke="#000000" stroke-width="1" stroke-opacity="0"></use></g></g><g><use xlink:href="#a7R18BdL8" opacity="1" fill="#000000" fill-opacity="1"></use><g><use xlink:href="#a7R18BdL8" opacity="1" fill-opacity="0" stroke="#000000" stroke-width="1" stroke-opacity="0"></use></g></g><g><use xlink:href="#a3wkykW4Pm" opacity="1" fill="#35323e" fill-opacity="1"></use><g><use xlink:href="#a3wkykW4Pm" opacity="1" fill-opacity="0" stroke="#000000" stroke-width="1" stroke-opacity="0"></use></g></g><g><use xlink:href="#a5wcEhfQAV" opacity="1" fill="#35323e" fill-opacity="1"></use><g><use xlink:href="#a5wcEhfQAV" opacity="1" fill-opacity="0" stroke="#000000" stroke-width="1" stroke-opacity="0"></use></g></g><g><use xlink:href="#a11lPuoAD" opacity="1" fill="#000000" fill-opacity="1"></use><g><use xlink:href="#a11lPuoAD" opacity="1" fill-opacity="0" stroke="#000000" stroke-width="1" stroke-opacity="0"></use></g></g><g><use xlink:href="#a55UkYCwHI" opacity="1" fill="#35323e" fill-opacity="1"></use><g><use xlink:href="#a55UkYCwHI" opacity="1" fill-opacity="0" stroke="#000000" stroke-width="1" stroke-opacity="0"></use></g></g><g><use xlink:href="#c3wVUxRW" opacity="1" fill="#35323e" fill-opacity="1"></use><g><use xlink:href="#c3wVUxRW" opacity="1" fill-opacity="0" stroke="#000000" stroke-width="1" stroke-opacity="0"></use></g></g><g><use xlink:href="#j3pHgvTGc1" opacity="1" fill="#000000" fill-opacity="1"></use><g><use xlink:href="#j3pHgvTGc1" opacity="1" fill-opacity="0" stroke="#000000" stroke-width="1" stroke-opacity="0"></use></g></g><g><use xlink:href="#a2q81HPUIQ" opacity="1" fill="#35323e" fill-opacity="1"></use><g><use xlink:href="#a2q81HPUIQ" opacity="1" fill-opacity="0" stroke="#000000" stroke-width="1" stroke-opacity="0"></use></g></g><g><use xlink:href="#d1CPjRPqiS" opacity="1" fill="#35323e" fill-opacity="1"></use><g><use xlink:href="#d1CPjRPqiS" opacity="1" fill-opacity="0" stroke="#000000" stroke-width="1" stroke-opacity="0"></use></g></g><g><use xlink:href="#a1wMXRK0vi" opacity="1" fill="#000000" fill-opacity="1"></use><g><use xlink:href="#a1wMXRK0vi" opacity="1" fill-opacity="0" stroke="#000000" stroke-width="1" stroke-opacity="0"></use></g></g><g><use xlink:href="#c2zB9sXUUs" opacity="1" fill="#35323e" fill-opacity="1"></use><g><use xlink:href="#c2zB9sXUUs" opacity="1" fill-opacity="0" stroke="#000000" stroke-width="1" stroke-opacity="0"></use></g></g><g><use xlink:href="#a9VbC6QU4" opacity="1" fill="#35323e" fill-opacity="1"></use><g><use xlink:href="#a9VbC6QU4" opacity="1" fill-opacity="0" stroke="#000000" stroke-width="1" stroke-opacity="0"></use></g></g><g><use xlink:href="#bY1TM5h8h" opacity="1" fill="#000000" fill-opacity="1"></use><g><use xlink:href="#bY1TM5h8h" opacity="1" fill-opacity="0" stroke="#000000" stroke-width="1" stroke-opacity="0"></use></g></g><g><use xlink:href="#b2mXxz8cOT" opacity="1" fill="#35323e" fill-opacity="1"></use><g><use xlink:href="#b2mXxz8cOT" opacity="1" fill-opacity="0" stroke="#000000" stroke-width="1" stroke-opacity="0"></use></g></g><g><use xlink:href="#b3jt7QvMeJ" opacity="1" fill="#35323e" fill-opacity="1"></use><g><use xlink:href="#b3jt7QvMeJ" opacity="1" fill-opacity="0" stroke="#000000" stroke-width="1" stroke-opacity="0"></use></g></g><g><use xlink:href="#b32AsOkJu" opacity="1" fill="#000000" fill-opacity="1"></use><g><use xlink:href="#b32AsOkJu" opacity="1" fill-opacity="0" stroke="#000000" stroke-width="1" stroke-opacity="0"></use></g></g><g><use xlink:href="#a3jhAVVHeq" opacity="1" fill="#35323e" fill-opacity="1"></use><g><use xlink:href="#a3jhAVVHeq" opacity="1" fill-opacity="0" stroke="#000000" stroke-width="1" stroke-opacity="0"></use></g></g><g><use xlink:href="#d7aB297ne" opacity="1" fill="#35323e" fill-opacity="1"></use><g><use xlink:href="#d7aB297ne" opacity="1" fill-opacity="0" stroke="#000000" stroke-width="1" stroke-opacity="0"></use></g></g><g><use xlink:href="#e3uW34JpZy" opacity="1" fill="#000000" fill-opacity="1"></use><g><use xlink:href="#e3uW34JpZy" opacity="1" fill-opacity="0" stroke="#000000" stroke-width="1" stroke-opacity="0"></use></g></g><g><use xlink:href="#a41U51gfn3" opacity="1" fill="#35323e" fill-opacity="1"></use><g><use xlink:href="#a41U51gfn3" opacity="1" fill-opacity="0" stroke="#000000" stroke-width="1" stroke-opacity="0"></use></g></g><g><use xlink:href="#h3OneIhtp5" opacity="1" fill="#35323e" fill-opacity="1"></use><g><use xlink:href="#h3OneIhtp5" opacity="1" fill-opacity="0" stroke="#000000" stroke-width="1" stroke-opacity="0"></use></g></g><g><use xlink:href="#a1XCrDrLpc" opacity="1" fill="#000000" fill-opacity="1"></use><g><use xlink:href="#a1XCrDrLpc" opacity="1" fill-opacity="0" stroke="#000000" stroke-width="1" stroke-opacity="0"></use></g></g><g><use xlink:href="#h2dfXQX8SX" opacity="1" fill="#35323e" fill-opacity="1"></use><g><use xlink:href="#h2dfXQX8SX" opacity="1" fill-opacity="0" stroke="#000000" stroke-width="1" stroke-opacity="0"></use></g></g><g><use xlink:href="#cl8RyJoYr" opacity="1" fill="#35323e" fill-opacity="1"></use><g><use xlink:href="#cl8RyJoYr" opacity="1" fill-opacity="0" stroke="#000000" stroke-width="1" stroke-opacity="0"></use></g></g><g><use xlink:href="#a2rycGxJEm" opacity="1" fill="#000000" fill-opacity="1"></use><g><use xlink:href="#a2rycGxJEm" opacity="1" fill-opacity="0" stroke="#000000" stroke-width="1" stroke-opacity="0"></use></g></g><g><use xlink:href="#f1cOYu5QGk" opacity="1" fill="#35323e" fill-opacity="1"></use><g><use xlink:href="#f1cOYu5QGk" opacity="1" fill-opacity="0" stroke="#000000" stroke-width="1" stroke-opacity="0"></use></g></g><g><use xlink:href="#c178OaDiHd" opacity="1" fill="#35323e" fill-opacity="1"></use><g><use xlink:href="#c178OaDiHd" opacity="1" fill-opacity="0" stroke="#000000" stroke-width="1" stroke-opacity="0"></use></g></g><g><use xlink:href="#e9V0NYcXW" opacity="1" fill="#000000" fill-opacity="1"></use><g><use xlink:href="#e9V0NYcXW" opacity="1" fill-opacity="0" stroke="#000000" stroke-width="1" stroke-opacity="0"></use></g></g><g><use xlink:href="#aLMriWsGX" opacity="1" fill="#35323e" fill-opacity="1"></use><g><use xlink:href="#aLMriWsGX" opacity="1" fill-opacity="0" stroke="#000000" stroke-width="1" stroke-opacity="0"></use></g></g><g><use xlink:href="#a48qrwYJm" opacity="1" fill="#35323e" fill-opacity="1"></use><g><use xlink:href="#a48qrwYJm" opacity="1" fill-opacity="0" stroke="#000000" stroke-width="1" stroke-opacity="0"></use></g></g><g><use xlink:href="#bjKWuDF9c" opacity="1" fill="#000000" fill-opacity="1"></use><g><use xlink:href="#bjKWuDF9c" opacity="1" fill-opacity="0" stroke="#000000" stroke-width="1" stroke-opacity="0"></use></g></g><g><use xlink:href="#dG5RtEfbY" opacity="1" fill="#35323e" fill-opacity="1"></use><g><use xlink:href="#dG5RtEfbY" opacity="1" fill-opacity="0" stroke="#000000" stroke-width="1" stroke-opacity="0"></use></g></g><g><use xlink:href="#acC6MhlOM" opacity="1" fill="#35323e" fill-opacity="1"></use><g><use xlink:href="#acC6MhlOM" opacity="1" fill-opacity="0" stroke="#000000" stroke-width="1" stroke-opacity="0"></use></g></g><g><use xlink:href="#b9VRXMQNH" opacity="1" fill="#000000" fill-opacity="1"></use><g><use xlink:href="#b9VRXMQNH" opacity="1" fill-opacity="0" stroke="#000000" stroke-width="1" stroke-opacity="0"></use></g></g><g><use xlink:href="#a1SqmuRVx" opacity="1" fill="#35323e" fill-opacity="1"></use><g><use xlink:href="#a1SqmuRVx" opacity="1" fill-opacity="0" stroke="#000000" stroke-width="1" stroke-opacity="0"></use></g></g><g><use xlink:href="#dsBHipX4" opacity="1" fill="#35323e" fill-opacity="1"></use><g><use xlink:href="#dsBHipX4" opacity="1" fill-opacity="0" stroke="#000000" stroke-width="1" stroke-opacity="0"></use></g></g><g><use xlink:href="#a2eIWbRPG" opacity="1" fill="#000000" fill-opacity="1"></use><g><use xlink:href="#a2eIWbRPG" opacity="1" fill-opacity="0" stroke="#000000" stroke-width="1" stroke-opacity="0"></use></g></g><g><use xlink:href="#d4RXlSsNi" opacity="1" fill="#35323e" fill-opacity="1"></use><g><use xlink:href="#d4RXlSsNi" opacity="1" fill-opacity="0" stroke="#000000" stroke-width="1" stroke-opacity="0"></use></g></g><g><use xlink:href="#ab5BSZLD" opacity="1" fill="#35323e" fill-opacity="1"></use><g><use xlink:href="#ab5BSZLD" opacity="1" fill-opacity="0" stroke="#000000" stroke-width="1" stroke-opacity="0"></use></g></g><g><use xlink:href="#b11NpSKXkk" opacity="1" fill="#000000" fill-opacity="1"></use><g><use xlink:href="#b11NpSKXkk" opacity="1" fill-opacity="0" stroke="#000000" stroke-width="1" stroke-opacity="0"></use></g></g><g><use xlink:href="#a6ijqDMzc0" opacity="1" fill="#35323e" fill-opacity="1"></use><g><use xlink:href="#a6ijqDMzc0" opacity="1" fill-opacity="0" stroke="#000000" stroke-width="1" stroke-opacity="0"></use></g></g><g><use xlink:href="#bk12SxUDi" opacity="1" fill="#35323e" fill-opacity="1"></use><g><use xlink:href="#bk12SxUDi" opacity="1" fill-opacity="0" stroke="#000000" stroke-width="1" stroke-opacity="0"></use></g></g><g><use xlink:href="#a9ZA2lC7u2" opacity="1" fill="#000000" fill-opacity="1"></use><g><use xlink:href="#a9ZA2lC7u2" opacity="1" fill-opacity="0" stroke="#000000" stroke-width="1" stroke-opacity="0"></use></g></g><g><use xlink:href="#a34N5xPmG" opacity="1" fill="#35323e" fill-opacity="1"></use><g><use xlink:href="#a34N5xPmG" opacity="1" fill-opacity="0" stroke="#000000" stroke-width="1" stroke-opacity="0"></use></g></g><g><use xlink:href="#cHbFptRD9" opacity="1" fill="#35323e" fill-opacity="1"></use><g><use xlink:href="#cHbFptRD9" opacity="1" fill-opacity="0" stroke="#000000" stroke-width="1" stroke-opacity="0"></use></g></g><g><use xlink:href="#a4L5cHhH6l" opacity="1" fill="#000000" fill-opacity="1"></use><g><use xlink:href="#a4L5cHhH6l" opacity="1" fill-opacity="0" stroke="#000000" stroke-width="1" stroke-opacity="0"></use></g></g><g><use xlink:href="#dc2GXEy8JN" opacity="1" fill="#35323e" fill-opacity="1"></use><g><use xlink:href="#dc2GXEy8JN" opacity="1" fill-opacity="0" stroke="#000000" stroke-width="1" stroke-opacity="0"></use></g></g><g><use xlink:href="#buYBRaNx2" opacity="1" fill="#35323e" fill-opacity="1"></use><g><use xlink:href="#buYBRaNx2" opacity="1" fill-opacity="0" stroke="#000000" stroke-width="1" stroke-opacity="0"></use></g></g><g><use xlink:href="#f11FksK51t" opacity="1" fill="#000000" fill-opacity="1"></use><g><use xlink:href="#f11FksK51t" opacity="1" fill-opacity="0" stroke="#000000" stroke-width="1" stroke-opacity="0"></use></g></g><g><use xlink:href="#i62Fhlc3db" opacity="1" fill="#35323e" fill-opacity="1"></use><g><use xlink:href="#i62Fhlc3db" opacity="1" fill-opacity="0" stroke="#000000" stroke-width="1" stroke-opacity="0"></use></g></g><g><use xlink:href="#c2P53p3fgl" opacity="1" fill="#35323e" fill-opacity="1"></use><g><use xlink:href="#c2P53p3fgl" opacity="1" fill-opacity="0" stroke="#000000" stroke-width="1" stroke-opacity="0"></use></g></g><g><use xlink:href="#bz3f4kVdF" opacity="1" fill="#000000" fill-opacity="1"></use><g><use xlink:href="#bz3f4kVdF" opacity="1" fill-opacity="0" stroke="#000000" stroke-width="1" stroke-opacity="0"></use></g></g><g><use xlink:href="#f3lY6Zulud" opacity="1" fill="#35323e" fill-opacity="1"></use><g><use xlink:href="#f3lY6Zulud" opacity="1" fill-opacity="0" stroke="#000000" stroke-width="1" stroke-opacity="0"></use></g></g><g><use xlink:href="#b5Rb4iJP0Q" opacity="1" fill="#35323e" fill-opacity="1"></use><g><use xlink:href="#b5Rb4iJP0Q" opacity="1" fill-opacity="0" stroke="#000000" stroke-width="1" stroke-opacity="0"></use></g></g><g><use xlink:href="#b1Az7VtYPi" opacity="1" fill="#000000" fill-opacity="1"></use><g><use xlink:href="#b1Az7VtYPi" opacity="1" fill-opacity="0" stroke="#000000" stroke-width="1" stroke-opacity="0"></use></g></g><g><use xlink:href="#bxcUfq5D" opacity="1" fill="#35323e" fill-opacity="1"></use><g><use xlink:href="#bxcUfq5D" opacity="1" fill-opacity="0" stroke="#000000" stroke-width="1" stroke-opacity="0"></use></g></g><g><use xlink:href="#a1E8tN2ag" opacity="1" fill="#35323e" fill-opacity="1"></use><g><use xlink:href="#a1E8tN2ag" opacity="1" fill-opacity="0" stroke="#000000" stroke-width="1" stroke-opacity="0"></use></g></g><g><use xlink:href="#d3xV9RoBK" opacity="1" fill="#000000" fill-opacity="1"></use><g><use xlink:href="#d3xV9RoBK" opacity="1" fill-opacity="0" stroke="#000000" stroke-width="1" stroke-opacity="0"></use></g></g><g><use xlink:href="#cSVIXusF" opacity="1" fill="#35323e" fill-opacity="1"></use><g><use xlink:href="#cSVIXusF" opacity="1" fill-opacity="0" stroke="#000000" stroke-width="1" stroke-opacity="0"></use></g></g><g><use xlink:href="#b7OEKGUJb" opacity="1" fill="#35323e" fill-opacity="1"></use><g><use xlink:href="#b7OEKGUJb" opacity="1" fill-opacity="0" stroke="#000000" stroke-width="1" stroke-opacity="0"></use></g></g><g><use xlink:href="#a12XPxYJgS" opacity="1" fill="#000000" fill-opacity="1"></use><g><use xlink:href="#a12XPxYJgS" opacity="1" fill-opacity="0" stroke="#000000" stroke-width="1" stroke-opacity="0"></use></g></g><g><use xlink:href="#b10Jhwa80z" opacity="1" fill="#35323e" fill-opacity="1"></use><g><use xlink:href="#b10Jhwa80z" opacity="1" fill-opacity="0" stroke="#000000" stroke-width="1" stroke-opacity="0"></use></g></g><g><use xlink:href="#aHfbF74EX" opacity="1" fill="#35323e" fill-opacity="1"></use><g><use xlink:href="#aHfbF74EX" opacity="1" fill-opacity="0" stroke="#000000" stroke-width="1" stroke-opacity="0"></use></g></g><g><use xlink:href="#a6t0mPxfnJ" opacity="1" fill="#000000" fill-opacity="1"></use><g><use xlink:href="#a6t0mPxfnJ" opacity="1" fill-opacity="0" stroke="#000000" stroke-width="1" stroke-opacity="0"></use></g></g><g><use xlink:href="#aFBQt5kcr" opacity="1" fill="#35323e" fill-opacity="1"></use><g><use xlink:href="#aFBQt5kcr" opacity="1" fill-opacity="0" stroke="#000000" stroke-width="1" stroke-opacity="0"></use></g></g><g><use xlink:href="#b1nJEneZrw" opacity="1" fill="#35323e" fill-opacity="1"></use><g><use xlink:href="#b1nJEneZrw" opacity="1" fill-opacity="0" stroke="#000000" stroke-width="1" stroke-opacity="0"></use></g></g><g><use xlink:href="#dP6qWQ4n7" opacity="1" fill="#000000" fill-opacity="1"></use><g><use xlink:href="#dP6qWQ4n7" opacity="1" fill-opacity="0" stroke="#000000" stroke-width="1" stroke-opacity="0"></use></g></g><g><use xlink:href="#acmfN5T4c" opacity="1" fill="#35323e" fill-opacity="1"></use><g><use xlink:href="#acmfN5T4c" opacity="1" fill-opacity="0" stroke="#000000" stroke-width="1" stroke-opacity="0"></use></g></g><g><use xlink:href="#k2CyKQxAGE" opacity="1" fill="#35323e" fill-opacity="1"></use><g><use xlink:href="#k2CyKQxAGE" opacity="1" fill-opacity="0" stroke="#000000" stroke-width="1" stroke-opacity="0"></use></g></g><g><use xlink:href="#c2vtvhXFJo" opacity="1" fill="#000000" fill-opacity="1"></use><g><use xlink:href="#c2vtvhXFJo" opacity="1" fill-opacity="0" stroke="#000000" stroke-width="1" stroke-opacity="0"></use></g></g><g><use xlink:href="#a5OxR0rFs" opacity="1" fill="#35323e" fill-opacity="1"></use><g><use xlink:href="#a5OxR0rFs" opacity="1" fill-opacity="0" stroke="#000000" stroke-width="1" stroke-opacity="0"></use></g></g><g><use xlink:href="#a2oC9bbWyd" opacity="1" fill="#35323e" fill-opacity="1"></use><g><use xlink:href="#a2oC9bbWyd" opacity="1" fill-opacity="0" stroke="#000000" stroke-width="1" stroke-opacity="0"></use></g></g><g><use xlink:href="#bNs6poVxO" opacity="1" fill="#000000" fill-opacity="1"></use><g><use xlink:href="#bNs6poVxO" opacity="1" fill-opacity="0" stroke="#000000" stroke-width="1" stroke-opacity="0"></use></g></g><g><use xlink:href="#a3MDJE8cDw" opacity="1" fill="#35323e" fill-opacity="1"></use><g><use xlink:href="#a3MDJE8cDw" opacity="1" fill-opacity="0" stroke="#000000" stroke-width="1" stroke-opacity="0"></use></g></g><g><use xlink:href="#dugyqXv7G" opacity="1" fill="#35323e" fill-opacity="1"></use><g><use xlink:href="#dugyqXv7G" opacity="1" fill-opacity="0" stroke="#000000" stroke-width="1" stroke-opacity="0"></use></g></g><g><use xlink:href="#b2njmXORom" opacity="1" fill="#000000" fill-opacity="1"></use><g><use xlink:href="#b2njmXORom" opacity="1" fill-opacity="0" stroke="#000000" stroke-width="1" stroke-opacity="0"></use></g></g><g><use xlink:href="#bnq71VXt7" opacity="1" fill="#35323e" fill-opacity="1"></use><g><use xlink:href="#bnq71VXt7" opacity="1" fill-opacity="0" stroke="#000000" stroke-width="1" stroke-opacity="0"></use></g></g><g><use xlink:href="#a5ycqX1ieJ" opacity="1" fill="#35323e" fill-opacity="1"></use><g><use xlink:href="#a5ycqX1ieJ" opacity="1" fill-opacity="0" stroke="#000000" stroke-width="1" stroke-opacity="0"></use></g></g><g><use xlink:href="#di98opb5B" opacity="1" fill="#000000" fill-opacity="1"></use><g><use xlink:href="#di98opb5B" opacity="1" fill-opacity="0" stroke="#000000" stroke-width="1" stroke-opacity="0"></use></g></g><g><use xlink:href="#a2leWp3GAS" opacity="1" fill="#35323e" fill-opacity="1"></use><g><use xlink:href="#a2leWp3GAS" opacity="1" fill-opacity="0" stroke="#000000" stroke-width="1" stroke-opacity="0"></use></g></g><g><use xlink:href="#erKXnShjA" opacity="1" fill="#35323e" fill-opacity="1"></use><g><use xlink:href="#erKXnShjA" opacity="1" fill-opacity="0" stroke="#000000" stroke-width="1" stroke-opacity="0"></use></g></g><g><use xlink:href="#d48uoR6DNH" opacity="1" fill="#000000" fill-opacity="1"></use><g><use xlink:href="#d48uoR6DNH" opacity="1" fill-opacity="0" stroke="#000000" stroke-width="1" stroke-opacity="0"></use></g></g><g><use xlink:href="#a5dWCV3Pyp" opacity="1" fill="#35323e" fill-opacity="1"></use><g><use xlink:href="#a5dWCV3Pyp" opacity="1" fill-opacity="0" stroke="#000000" stroke-width="1" stroke-opacity="0"></use></g></g><g><use xlink:href="#e3J9cg9DU" opacity="1" fill="#35323e" fill-opacity="1"></use><g><use xlink:href="#e3J9cg9DU" opacity="1" fill-opacity="0" stroke="#000000" stroke-width="1" stroke-opacity="0"></use></g></g><g><use xlink:href="#b5ccNYJAfJ" opacity="1" fill="#000000" fill-opacity="1"></use><g><use xlink:href="#b5ccNYJAfJ" opacity="1" fill-opacity="0" stroke="#000000" stroke-width="1" stroke-opacity="0"></use></g></g><g><use xlink:href="#b3MMuhAym" opacity="1" fill="#35323e" fill-opacity="1"></use><g><use xlink:href="#b3MMuhAym" opacity="1" fill-opacity="0" stroke="#000000" stroke-width="1" stroke-opacity="0"></use></g></g><g><use xlink:href="#f2YKhVjJ6" opacity="1" fill="#35323e" fill-opacity="1"></use><g><use xlink:href="#f2YKhVjJ6" opacity="1" fill-opacity="0" stroke="#000000" stroke-width="1" stroke-opacity="0"></use></g></g><g><use xlink:href="#b2FfgSrwuW" opacity="1" fill="#000000" fill-opacity="1"></use><g><use xlink:href="#b2FfgSrwuW" opacity="1" fill-opacity="0" stroke="#000000" stroke-width="1" stroke-opacity="0"></use></g></g><g><use xlink:href="#b1HGfHPp8F" opacity="1" fill="#35323e" fill-opacity="1"></use><g><use xlink:href="#b1HGfHPp8F" opacity="1" fill-opacity="0" stroke="#000000" stroke-width="1" stroke-opacity="0"></use></g></g><g><use xlink:href="#c8PQNinbV" opacity="1" fill="#35323e" fill-opacity="1"></use><g><use xlink:href="#c8PQNinbV" opacity="1" fill-opacity="0" stroke="#000000" stroke-width="1" stroke-opacity="0"></use></g></g><g><use xlink:href="#c2DaTDCw0V" opacity="1" fill="#000000" fill-opacity="1"></use><g><use xlink:href="#c2DaTDCw0V" opacity="1" fill-opacity="0" stroke="#000000" stroke-width="1" stroke-opacity="0"></use></g></g><g><use xlink:href="#d11YDUpEON" opacity="1" fill="#35323e" fill-opacity="1"></use><g><use xlink:href="#d11YDUpEON" opacity="1" fill-opacity="0" stroke="#000000" stroke-width="1" stroke-opacity="0"></use></g></g><g><use xlink:href="#b2qYiTsi42" opacity="1" fill="#35323e" fill-opacity="1"></use><g><use xlink:href="#b2qYiTsi42" opacity="1" fill-opacity="0" stroke="#000000" stroke-width="1" stroke-opacity="0"></use></g></g><g><use xlink:href="#c295IMwruA" opacity="1" fill="#000000" fill-opacity="1"></use><g><use xlink:href="#c295IMwruA" opacity="1" fill-opacity="0" stroke="#000000" stroke-width="1" stroke-opacity="0"></use></g></g><g><use xlink:href="#h79FmudG0a" opacity="1" fill="#35323e" fill-opacity="1"></use><g><use xlink:href="#h79FmudG0a" opacity="1" fill-opacity="0" stroke="#000000" stroke-width="1" stroke-opacity="0"></use></g></g><g><use xlink:href="#aZWqK4bs4" opacity="1" fill="#35323e" fill-opacity="1"></use><g><use xlink:href="#aZWqK4bs4" opacity="1" fill-opacity="0" stroke="#000000" stroke-width="1" stroke-opacity="0"></use></g></g><g><use xlink:href="#c129j9cXED" opacity="1" fill="#000000" fill-opacity="1"></use><g><use xlink:href="#c129j9cXED" opacity="1" fill-opacity="0" stroke="#000000" stroke-width="1" stroke-opacity="0"></use></g></g><g><use xlink:href="#bzWJy2YPS" opacity="1" fill="#35323e" fill-opacity="1"></use><g><use xlink:href="#bzWJy2YPS" opacity="1" fill-opacity="0" stroke="#000000" stroke-width="1" stroke-opacity="0"></use></g></g><g><use xlink:href="#a1g6WietB" opacity="1" fill="#000000" fill-opacity="1"></use><g><use xlink:href="#a1g6WietB" opacity="1" fill-opacity="0" stroke="#000000" stroke-width="1" stroke-opacity="0"></use></g></g><g><use xlink:href="#a3hl1WuPT" opacity="1" fill="#000000" fill-opacity="1"></use><g><use xlink:href="#a3hl1WuPT" opacity="1" fill-opacity="0" stroke="#000000" stroke-width="1" stroke-opacity="0"></use></g></g><g><use xlink:href="#abkFWlrUr" opacity="1" fill="#000000" fill-opacity="1"></use><g><use xlink:href="#abkFWlrUr" opacity="1" fill-opacity="0" stroke="#000000" stroke-width="1" stroke-opacity="0"></use></g></g><g><use xlink:href="#a18fX1Gnma" opacity="1" fill="#35323e" fill-opacity="1"></use><g><use xlink:href="#a18fX1Gnma" opacity="1" fill-opacity="0" stroke="#000000" stroke-width="1" stroke-opacity="0"></use></g></g><g><use xlink:href="#a68FuYK7B" opacity="1" fill="#000000" fill-opacity="1"></use><g><use xlink:href="#a68FuYK7B" opacity="1" fill-opacity="0" stroke="#000000" stroke-width="1" stroke-opacity="0"></use></g></g><g><use xlink:href="#b1r9MaJv1O" opacity="1" fill="#35323e" fill-opacity="1"></use><g><use xlink:href="#b1r9MaJv1O" opacity="1" fill-opacity="0" stroke="#000000" stroke-width="1" stroke-opacity="0"></use></g></g><g><use xlink:href="#ctsr9m4pZ" opacity="1" fill="#000000" fill-opacity="1"></use><g><use xlink:href="#ctsr9m4pZ" opacity="1" fill-opacity="0" stroke="#000000" stroke-width="1" stroke-opacity="0"></use></g></g><g><use xlink:href="#e1XvpWDXY" opacity="1" fill="#464353" fill-opacity="1"></use><g><use xlink:href="#e1XvpWDXY" opacity="1" fill-opacity="0" stroke="#000000" stroke-width="1" stroke-opacity="0"></use></g></g><g><use xlink:href="#c5tRAupRF" opacity="1" fill="#464353" fill-opacity="1"></use><g><use xlink:href="#c5tRAupRF" opacity="1" fill-opacity="0" stroke="#000000" stroke-width="1" stroke-opacity="0"></use></g></g><g><use xlink:href="#c8QS96Thrk" opacity="1" fill="#000000" fill-opacity="1"></use><g><use xlink:href="#c8QS96Thrk" opacity="1" fill-opacity="0" stroke="#000000" stroke-width="1" stroke-opacity="0"></use></g></g><g><use xlink:href="#i2gTkbKLiL" opacity="1" fill="#464353" fill-opacity="1"></use><g><use xlink:href="#i2gTkbKLiL" opacity="1" fill-opacity="0" stroke="#000000" stroke-width="1" stroke-opacity="0"></use></g></g><g><use xlink:href="#divyVuWJ9" opacity="1" fill="#464353" fill-opacity="1"></use><g><use xlink:href="#divyVuWJ9" opacity="1" fill-opacity="0" stroke="#000000" stroke-width="1" stroke-opacity="0"></use></g></g><g><use xlink:href="#b1baTsZbCE" opacity="1" fill="#ffffff" fill-opacity="1"></use><g><use xlink:href="#b1baTsZbCE" opacity="1" fill-opacity="0" stroke="#000000" stroke-width="1" stroke-opacity="0"></use></g></g><g><use xlink:href="#cUnuRiy2F" opacity="1" fill="#000000" fill-opacity="1"></use><g><use xlink:href="#cUnuRiy2F" opacity="1" fill-opacity="0" stroke="#000000" stroke-width="1" stroke-opacity="0"></use></g></g><g><use xlink:href="#bNlQ6sR0g" opacity="1" fill="#000000" fill-opacity="1"></use><g><use xlink:href="#bNlQ6sR0g" opacity="1" fill-opacity="0" stroke="#000000" stroke-width="1" stroke-opacity="0"></use></g></g><g><use xlink:href="#a52oOvPcrR" opacity="1" fill="#000000" fill-opacity="1"></use><g><use xlink:href="#a52oOvPcrR" opacity="1" fill-opacity="0" stroke="#000000" stroke-width="1" stroke-opacity="0"></use></g></g><g><use xlink:href="#afj2ZKsgM" opacity="1" fill="#000000" fill-opacity="1"></use><g><use xlink:href="#afj2ZKsgM" opacity="1" fill-opacity="0" stroke="#000000" stroke-width="1" stroke-opacity="0"></use></g></g><g><use xlink:href="#a3ZWeeaew" opacity="1" fill="#000000" fill-opacity="1"></use><g><use xlink:href="#a3ZWeeaew" opacity="1" fill-opacity="0" stroke="#000000" stroke-width="1" stroke-opacity="0"></use></g></g><g><use xlink:href="#a3Oa3KsSDz" opacity="1" fill="#000000" fill-opacity="1"></use><g><use xlink:href="#a3Oa3KsSDz" opacity="1" fill-opacity="0" stroke="#000000" stroke-width="1" stroke-opacity="0"></use></g></g><g><use xlink:href="#a316Rxnc63" opacity="1" fill="#000000" fill-opacity="1"></use><g><use xlink:href="#a316Rxnc63" opacity="1" fill-opacity="0" stroke="#000000" stroke-width="1" stroke-opacity="0"></use></g></g><g><use xlink:href="#a26uqGRocv" opacity="1" fill="#000000" fill-opacity="1"></use><g><use xlink:href="#a26uqGRocv" opacity="1" fill-opacity="0" stroke="#000000" stroke-width="1" stroke-opacity="0"></use></g></g><g><use xlink:href="#bbm938QCV" opacity="1" fill="#000000" fill-opacity="1"></use><g><use xlink:href="#bbm938QCV" opacity="1" fill-opacity="0" stroke="#000000" stroke-width="1" stroke-opacity="0"></use></g></g><g><use xlink:href="#dkLgNf9uu" opacity="1" fill="#000000" fill-opacity="1"></use><g><use xlink:href="#dkLgNf9uu" opacity="1" fill-opacity="0" stroke="#000000" stroke-width="1" stroke-opacity="0"></use></g></g><g><use xlink:href="#b1PSoWlDHm" opacity="1" fill="#000000" fill-opacity="1"></use><g><use xlink:href="#b1PSoWlDHm" opacity="1" fill-opacity="0" stroke="#000000" stroke-width="1" stroke-opacity="0"></use></g></g><g><use xlink:href="#c7rYp5o9g" opacity="1" fill="#000000" fill-opacity="1"></use><g><use xlink:href="#c7rYp5o9g" opacity="1" fill-opacity="0" stroke="#000000" stroke-width="1" stroke-opacity="0"></use></g></g><g><use xlink:href="#a8ko7cC72F" opacity="1" fill="#000000" fill-opacity="1"></use><g><use xlink:href="#a8ko7cC72F" opacity="1" fill-opacity="0" stroke="#000000" stroke-width="1" stroke-opacity="0"></use></g></g><g><use xlink:href="#ag8mpXPcl" opacity="1" fill="#000000" fill-opacity="1"></use><g><use xlink:href="#ag8mpXPcl" opacity="1" fill-opacity="0" stroke="#000000" stroke-width="1" stroke-opacity="0"></use></g></g><g><use xlink:href="#d4CpkIOwE1" opacity="1" fill="#000000" fill-opacity="1"></use><g><use xlink:href="#d4CpkIOwE1" opacity="1" fill-opacity="0" stroke="#000000" stroke-width="1" stroke-opacity="0"></use></g></g><g><use xlink:href="#c3ahHEn1xu" opacity="1" fill="#000000" fill-opacity="1"></use><g><use xlink:href="#c3ahHEn1xu" opacity="1" fill-opacity="0" stroke="#000000" stroke-width="1" stroke-opacity="0"></use></g></g><g><use xlink:href="#a1enm1Ze4" opacity="1" fill="#000000" fill-opacity="1"></use><g><use xlink:href="#a1enm1Ze4" opacity="1" fill-opacity="0" stroke="#000000" stroke-width="1" stroke-opacity="0"></use></g></g><g><use xlink:href="#f26Jw2dg6" opacity="1" fill="#000000" fill-opacity="1"></use><g><use xlink:href="#f26Jw2dg6" opacity="1" fill-opacity="0" stroke="#000000" stroke-width="1" stroke-opacity="0"></use></g></g><g><use xlink:href="#a1sCFE9FLv" opacity="1" fill="#000000" fill-opacity="1"></use><g><use xlink:href="#a1sCFE9FLv" opacity="1" fill-opacity="0" stroke="#000000" stroke-width="1" stroke-opacity="0"></use></g></g><g><use xlink:href="#b20E1XbfVQ" opacity="1" fill="#000000" fill-opacity="1"></use><g><use xlink:href="#b20E1XbfVQ" opacity="1" fill-opacity="0" stroke="#000000" stroke-width="1" stroke-opacity="0"></use></g></g><g><use xlink:href="#b2gMUUsJ2" opacity="1" fill="#000000" fill-opacity="1"></use><g><use xlink:href="#b2gMUUsJ2" opacity="1" fill-opacity="0" stroke="#000000" stroke-width="1" stroke-opacity="0"></use></g></g><g><use xlink:href="#czgdes0GD" opacity="1" fill="#444053" fill-opacity="1"></use><g><use xlink:href="#czgdes0GD" opacity="1" fill-opacity="0" stroke="#000000" stroke-width="1" stroke-opacity="0"></use></g></g><g><use xlink:href="#ll9cMJ90h" opacity="1" fill="#000000" fill-opacity="1"></use><g><use xlink:href="#ll9cMJ90h" opacity="1" fill-opacity="0" stroke="#000000" stroke-width="1" stroke-opacity="0"></use></g></g><g><use xlink:href="#g4gMH507Mh" opacity="1" fill="#ffffff" fill-opacity="1"></use><g><use xlink:href="#g4gMH507Mh" opacity="1" fill-opacity="0" stroke="#000000" stroke-width="1" stroke-opacity="0"></use></g></g><g><use xlink:href="#cexkaGHKm" opacity="1" fill="#000000" fill-opacity="1"></use><g><use xlink:href="#cexkaGHKm" opacity="1" fill-opacity="0" stroke="#000000" stroke-width="1" stroke-opacity="0"></use></g></g><g><use xlink:href="#b39dFhP0" opacity="1" fill="#000000" fill-opacity="1"></use><g><use xlink:href="#b39dFhP0" opacity="1" fill-opacity="0" stroke="#000000" stroke-width="1" stroke-opacity="0"></use></g></g><g><use xlink:href="#a1LJH8DFZ0" opacity="1" fill="#3f3d56" fill-opacity="1"></use><g><use xlink:href="#a1LJH8DFZ0" opacity="1" fill-opacity="0" stroke="#000000" stroke-width="1" stroke-opacity="0"></use></g></g><g><use xlink:href="#cDBcHdDxB" opacity="1" fill="#3f3d56" fill-opacity="1"></use><g><use xlink:href="#cDBcHdDxB" opacity="1" fill-opacity="0" stroke="#000000" stroke-width="1" stroke-opacity="0"></use></g></g><g><use xlink:href="#d1RJwI3vpF" opacity="1" fill="#3f3d56" fill-opacity="1"></use><g><use xlink:href="#d1RJwI3vpF" opacity="1" fill-opacity="0" stroke="#000000" stroke-width="1" stroke-opacity="0"></use></g></g><g><use xlink:href="#auegHruIH" opacity="1" fill="#3f3d56" fill-opacity="1"></use><g><use xlink:href="#auegHruIH" opacity="1" fill-opacity="0" stroke="#000000" stroke-width="1" stroke-opacity="0"></use></g></g><g><use xlink:href="#a4kL0NytU" opacity="1" fill="#3f3d56" fill-opacity="1"></use><g><use xlink:href="#a4kL0NytU" opacity="1" fill-opacity="0" stroke="#000000" stroke-width="1" stroke-opacity="0"></use></g></g><g><use xlink:href="#c4BNXyTvR" opacity="1" fill="#3f3d56" fill-opacity="1"></use><g><use xlink:href="#c4BNXyTvR" opacity="1" fill-opacity="0" stroke="#000000" stroke-width="1" stroke-opacity="0"></use></g></g><g><use xlink:href="#dj9HXsmHJ" opacity="1" fill="#3f3d56" fill-opacity="1"></use><g><use xlink:href="#dj9HXsmHJ" opacity="1" fill-opacity="0" stroke="#000000" stroke-width="1" stroke-opacity="0"></use></g></g><g><use xlink:href="#i63foVhaWX" opacity="1" fill="#000000" fill-opacity="1"></use><g><use xlink:href="#i63foVhaWX" opacity="1" fill-opacity="0" stroke="#000000" stroke-width="1" stroke-opacity="0"></use></g></g><g><use xlink:href="#a3xb22sIcK" opacity="1" fill="#000000" fill-opacity="1"></use><g><use xlink:href="#a3xb22sIcK" opacity="1" fill-opacity="0" stroke="#000000" stroke-width="1" stroke-opacity="0"></use></g></g></g></svg>